<svg width="42" height="43" viewBox="0 0 42 43" fill="none" xmlns="http://www.w3.org/2000/svg">
<path d="M20.7547 42.1418C32.0885 42.1418 41.5096 32.5773 41.5096 21.0709C41.5096 9.54387 32.0682 0 20.7344 0C9.38027 0 0 9.54387 0 21.0709C0 32.5773 9.40067 42.1418 20.7547 42.1418ZM12.6766 31.6477C12.0459 31.6477 11.6186 31.1932 11.6186 30.5322C11.6186 30.2636 11.6796 29.995 11.7814 29.7472L19.31 10.2255C19.6357 9.41994 20.1036 9.02746 20.7751 9.02746C21.4059 9.02746 21.8942 9.41994 22.1791 10.2255L29.7281 29.7472C29.8298 29.995 29.9113 30.2636 29.9113 30.5322C29.9113 31.1932 29.484 31.6477 28.8328 31.6477C28.5276 31.6477 28.202 31.5237 27.9985 31.3171L21.2431 24.4381C21.0599 24.2522 20.9175 24.1489 20.7751 24.1489C20.6123 24.1489 20.4495 24.2522 20.2664 24.4381L13.4905 31.3171C13.287 31.5237 12.9819 31.6477 12.6766 31.6477Z" fill="white"/>
</svg>
