<svg width="222" height="161" viewBox="0 0 222 161" fill="none" xmlns="http://www.w3.org/2000/svg">
<path d="M190.445 52.4939C195.682 60.6467 196.508 70.3475 190.058 77.8553C189.8 78.1391 189.465 78.2165 189.155 78.1649C183.556 84.0731 173.34 79.3775 168.747 73.1597C168.283 72.5405 167.844 71.9213 167.38 71.2763C166.993 70.6829 166.606 70.0895 166.193 69.4961C166.141 69.3413 166.09 69.1865 166.012 69.0317C165.806 68.4125 165.471 67.8707 164.98 67.4063C164.903 67.3031 164.8 67.2515 164.722 67.1741C160.104 59.8211 156.028 51.2039 153.319 42.4319C140.857 38.5877 129.841 29.1965 123.468 17.9477C125.635 27.7259 127.957 37.3751 131.492 46.7405C133.479 52.0553 135.801 57.2927 138.458 62.2979C139.696 64.6973 141.038 67.0451 142.457 69.3155C144.676 73.7789 147.72 76.1009 151.59 76.3847C151.848 77.0039 152.158 77.5457 152.648 78.0101C153.628 78.9389 154.841 79.5065 156.234 79.5065C157.756 79.5065 159.356 79.5065 160.852 79.1195C160.956 79.0679 161.059 79.0421 161.162 79.0163C161.652 78.8357 162.142 78.6293 162.633 78.3971C162.71 78.3713 162.787 78.3197 162.865 78.2681C163.303 77.9843 163.716 77.6489 164.103 77.3135C164.181 77.2619 164.232 77.1845 164.284 77.1329C164.645 76.7459 164.955 76.3331 165.238 75.8945C165.316 75.8171 165.342 75.7397 165.393 75.6365C165.625 75.1721 165.832 74.6819 166.012 74.1917C166.116 73.9079 166.167 73.6241 166.219 73.3403C166.296 72.7469 166.374 72.1535 166.425 71.5343C166.503 71.6117 166.58 71.6891 166.657 71.7665C166.941 72.1277 167.096 72.5921 166.967 73.1597C164.129 86.8853 148.314 82.8863 141.554 74.7077C141.115 74.1917 140.703 73.6241 140.264 73.0823C137.013 83.6603 125.042 85.3889 116.373 78.2165C115.935 77.8553 115.548 77.4167 115.161 77.0297C115.109 77.1587 115.083 77.2619 115.006 77.3909C108.711 86.6531 97.4876 86.1887 89.051 80.6933C85.6196 90.1361 72.6422 87.8915 64.7732 82.8605C64.5926 85.6985 63.5348 88.2011 61.9094 90.2393C61.6514 90.5747 61.3677 90.8843 61.0581 91.1681C56.1045 96.3023 47.4357 97.6955 42.0693 92.5097C42.0435 92.4839 42.0434 92.4839 42.0177 92.4839C42.1725 93.0257 42.0177 93.6449 41.3727 94.0061C34.2002 98.0309 26.6667 103.062 19.0041 106.029C15.9081 107.216 12.5024 107.654 10.1546 104.816C7.05863 100.998 8.34862 94.4705 9.01942 90.0845C10.103 83.0927 12.4766 76.5911 16.2176 70.5797C16.2176 70.5539 16.2692 70.5281 16.295 70.5023C9.58704 62.3495 4.04005 53.2163 0.092646 44.1605C-0.139554 43.6187 0.0926302 43.1285 0.47963 42.8963C0.53123 42.2255 1.15044 41.5031 1.89864 41.7611C16.1144 46.5341 29.5562 53.2163 42.482 60.7757C36.3416 52.4681 31.4396 43.2317 28.3436 33.6857C28.0082 32.6021 29.324 31.8281 30.1238 32.3183C30.2786 32.3957 30.4335 32.5505 30.5367 32.7569C35.8773 43.6187 41.45 53.9387 49.2158 63.2783C52.9052 67.6901 56.9816 71.8181 61.316 75.5591C63.767 77.6747 66.3986 80.0225 69.2624 81.5447C71.9972 82.4477 74.7321 83.3249 77.4669 84.2279C80.0211 82.0091 82.5752 79.7903 85.1294 77.5457C76.796 69.7025 70.1396 58.0925 65.7536 46.2761C53.3438 43.3091 41.0889 38.9489 30.3303 31.9829C30.3303 31.9571 30.3044 31.9571 30.3044 31.9571C29.3756 31.3637 30.1754 30.0479 31.1558 30.4865C42.1208 35.5433 52.931 40.0325 64.5927 42.9479C62.9156 37.8653 61.6514 32.8343 60.8774 28.0871C60.6968 26.8745 62.1674 26.3843 62.7608 27.3131L64.412 25.6103C64.6442 25.0427 65.4182 24.6815 66.0632 25.2233C71.5328 29.6093 76.8993 34.0727 82.9107 37.7105C88.0449 40.8323 93.6951 42.7673 98.9067 45.6311C95.3205 37.1687 91.7859 28.7063 88.7157 20.0633C88.3287 19.0055 89.7476 18.2831 90.4958 18.8507C90.3668 18.1541 91.0118 17.3801 91.7858 17.8703C102.493 24.1397 113.148 30.2801 124.087 36.0851C122.617 29.7383 121.611 23.4173 121.12 17.5091C121.069 16.6319 122.023 16.2707 122.72 16.5287C122.565 16.2449 122.41 15.9869 122.256 15.7031C121.894 14.9549 122.901 14.3873 123.365 15.0581C131.105 26.1779 140.522 33.5051 152.287 38.8457C150.558 32.2409 149.629 25.5845 149.913 19.3925C149.965 18.3863 151.539 18.0251 151.848 18.9539C151.874 18.9539 151.874 18.9281 151.874 18.9281C152.106 18.4379 152.364 17.9735 152.622 17.5091C152.777 17.2511 152.932 16.9157 153.087 16.6061C153.112 16.1933 153.37 15.9095 153.706 15.7547C153.912 15.5741 154.144 15.4193 154.428 15.3935C154.789 15.3419 155.022 15.4709 155.176 15.8063C155.228 15.9353 155.202 16.0901 155.202 16.2191C155.254 16.2965 155.305 16.3481 155.331 16.4255C158.505 25.1717 164.877 30.4865 171.637 35.4401C175.042 27.5195 180.796 21.3275 188.02 16.5803C188.768 16.1159 189.619 16.7609 189.671 17.5349C190.471 27.4937 189.8 37.2977 187.71 47.0501C187.581 47.5661 187.246 47.8241 186.833 47.8499C188.149 49.2947 189.361 50.8169 190.445 52.4939ZM190.29 72.6437C199.243 50.9975 161.601 37.8911 153.861 19.1345C153.706 19.4183 153.525 19.7279 153.345 19.9859C153.241 20.1407 153.164 20.2697 153.009 20.3987C152.829 20.5535 152.364 20.5793 152.209 20.7857C152.209 20.7857 152.184 20.7857 152.184 20.8115C153.241 27.8033 154.841 34.3823 157.111 40.8839C157.447 41.0129 157.756 41.1419 158.092 41.2709C159.253 41.7095 159.046 43.2317 158.066 43.4897C159.046 46.1471 160.156 48.7787 161.394 51.4361C165.058 59.3309 176.719 88.3043 188.871 73.0823C189.31 72.5405 189.852 72.4631 190.29 72.6437ZM185.491 46.4567C187.426 37.5557 188.072 28.6289 187.581 19.5731C181.338 23.9849 176.565 29.6093 172.591 36.1367C177.055 39.3617 181.596 42.5351 185.491 46.4567ZM138.2 70.7861C138.252 70.6571 138.329 70.5797 138.381 70.5023C132.24 61.6529 127.854 50.7137 124.965 39.6713C113.097 34.0985 101.409 27.3647 90.9344 19.4699C96.5072 30.5123 101.306 41.9159 106.208 53.2679C108.478 58.5569 110.517 64.2587 113.638 69.1349C119.469 78.2681 132.988 83.2991 138.2 70.7861ZM111.936 75.6107C112.271 75.1979 112.658 74.9657 113.097 74.8883C107.446 68.2061 104.557 58.8407 101.254 51.1007C100.816 50.0945 100.403 49.0883 99.9644 48.1079C99.7064 48.2627 99.3969 48.3659 99.0357 48.3143C86.8323 46.2245 73.3647 36.6269 65.2119 27.3389C64.7733 27.7517 64.3605 28.1645 63.9219 28.5773C63.7413 28.7579 63.5607 28.8095 63.3543 28.8353C67.3791 39.4649 71.1716 50.0945 76.925 59.9759C79.376 64.1555 83.4783 70.1153 88.3029 74.7335C89.1027 74.7077 89.8251 75.1721 89.8767 76.1783C96.8169 82.1381 105.021 84.8213 111.936 75.6107ZM61.4193 83.7893C61.3419 83.4281 61.2386 83.1185 61.0839 82.8089C60.8774 82.1639 60.5162 81.6221 60.026 81.1577C59.9486 81.0803 59.8455 81.0287 59.7681 80.9513C60.1551 80.4095 60.8516 80.1515 61.4708 80.4095C55.7432 75.9203 50.4026 70.6829 45.6812 64.9037C45.2426 65.4455 44.4945 65.7293 43.7205 65.2649C30.4593 57.2411 16.6305 50.6621 2.44046 44.4443C8.11646 53.8355 14.1021 62.8655 21.5841 70.9667C25.0671 74.7077 28.7822 78.2939 32.7038 81.5963C35.387 83.9183 38.225 86.0597 41.1662 88.0463C42.8432 89.3621 44.546 90.1361 46.2488 90.3683L46.3779 91.2713C46.4553 91.5551 46.5842 91.8131 46.7132 92.0711C53.06 93.9029 59.6133 90.9359 61.4193 83.7893ZM39.902 91.5035C39.9794 91.4777 40.031 91.4777 40.1084 91.4519C31.775 86.5241 24.1382 79.7387 17.5334 71.9987C15.9596 75.9977 14.489 80.0225 13.457 84.2021C13.1216 85.5437 12.6056 87.2723 12.167 89.0783C12.6056 89.1815 12.9668 89.4911 12.941 90.0071C12.7346 92.5613 12.2186 94.9865 12.5798 97.5407C12.8894 99.6305 13.586 101.695 14.5664 103.604H15.1341C15.8307 103.63 16.5014 103.475 17.0948 103.165C17.6108 102.985 18.0494 102.701 18.4622 102.339C19.5458 102.443 20.6037 102.056 21.6357 101.127C23.5707 100.585 25.5572 99.0371 27.3374 98.1083C31.517 95.8895 35.6708 93.6449 39.902 91.5035ZM9.58703 101.772C9.14843 99.9917 8.94203 98.2115 8.86463 96.3797C8.83883 96.4571 8.81303 96.5087 8.78723 96.5603C8.47763 97.1795 8.32284 97.8245 8.34864 98.5211L8.52926 99.8627C8.73566 100.585 9.09683 101.23 9.58703 101.772Z" fill="#2F1E12"/>
<path d="M153.861 19.1348C161.601 37.8914 199.243 50.9978 190.29 72.644C189.852 72.4634 189.31 72.5408 188.871 73.0826C176.719 88.3046 165.058 59.3312 161.394 51.4364C160.156 48.779 159.046 46.1474 158.066 43.49C159.046 43.232 159.253 41.7098 158.092 41.2712C157.756 41.1422 157.447 41.0132 157.111 40.8842C154.841 34.3826 153.241 27.8036 152.184 20.8117C152.184 20.7859 152.209 20.786 152.209 20.786C152.364 20.5796 152.829 20.5538 153.009 20.399C153.164 20.27 153.241 20.141 153.345 19.9862C153.525 19.7282 153.706 19.4186 153.861 19.1348Z" fill="#F4DAAB"/>
<path d="M187.582 19.5732C188.072 28.629 187.427 37.5559 185.492 46.4569C181.596 42.5353 177.055 39.3618 172.592 36.1368C176.565 29.6094 181.338 23.985 187.582 19.5732Z" fill="#F4DAAB"/>
<path d="M166.194 69.4957C166.606 70.0891 166.993 70.6825 167.38 71.2759L166.658 71.7661C166.581 71.6887 166.503 71.6112 166.426 71.5338C166.374 72.153 166.297 72.7465 166.219 73.3399C166.168 73.6237 166.116 73.9075 166.013 74.1913C165.832 74.6815 165.626 75.1717 165.394 75.6361C165.342 75.7393 165.316 75.8166 165.239 75.894C164.955 76.3326 164.645 76.7455 164.284 77.1325C164.233 77.1841 164.181 77.2614 164.104 77.313C163.717 77.6484 163.304 77.9838 162.865 78.2676C162.788 78.3192 162.711 78.3708 162.633 78.3966C162.143 78.6288 161.653 78.8353 161.163 79.0159C161.059 79.0417 160.956 79.0674 160.853 79.119C159.357 79.506 157.757 79.5061 156.235 79.5061C154.842 79.5061 153.629 78.9385 152.649 78.0097C152.158 77.5453 151.849 77.0034 151.591 76.3842C147.721 76.1004 144.676 73.7785 142.458 69.3151C141.039 67.0447 139.697 64.6969 138.459 62.2975C135.801 57.2923 133.479 52.0549 131.493 46.7401C127.958 37.3747 125.636 27.7255 123.469 17.9473C129.841 29.1961 140.858 38.5872 153.319 42.4314C156.028 51.2034 160.105 59.8207 164.723 67.1737C164.8 67.2511 164.904 67.3027 164.981 67.4059C165.471 67.8703 165.807 68.4121 166.013 69.0313C166.09 69.1861 166.142 69.3409 166.194 69.4957Z" fill="#F4DAAB"/>
<path d="M138.381 70.5021C138.329 70.5795 138.252 70.6569 138.2 70.7859C132.989 83.2989 119.469 78.2679 113.639 69.1347C110.517 64.2585 108.479 58.5567 106.208 53.2677C101.306 41.9157 96.5074 30.5121 90.9346 19.4697C101.409 27.3645 113.097 34.0983 124.965 39.6711C127.854 50.7135 132.24 61.6527 138.381 70.5021Z" fill="#F4DAAB"/>
<path d="M113.097 74.8882C112.658 74.9656 112.271 75.1978 111.936 75.6106C105.021 84.8212 96.8171 82.138 89.8769 76.1782C89.8253 75.172 89.1029 74.7077 88.3031 74.7335C83.4785 70.1153 79.3763 64.1554 76.9253 59.9758C71.1719 50.0945 67.3793 39.4649 63.3545 28.8353C63.5609 28.8095 63.7415 28.7579 63.9221 28.5773C64.3607 28.1645 64.7735 27.7517 65.2121 27.3389C73.3649 36.6269 86.8325 46.2244 99.0359 48.3142C99.3971 48.3658 99.7067 48.2627 99.9647 48.1079C100.403 49.0883 100.816 50.0944 101.255 51.1006C104.557 58.8406 107.447 68.206 113.097 74.8882Z" fill="#F4DAAB"/>
<path d="M85.1296 77.5462C82.5754 79.7908 80.0212 82.0096 77.467 84.2284C74.7322 83.3254 71.9974 82.4482 69.2626 81.5452C66.3988 80.023 63.7672 77.6752 61.3162 75.5596C56.9818 71.8186 52.9054 67.6906 49.216 63.2788C41.4502 53.9392 35.8774 43.6192 30.5368 32.7574C30.4336 32.551 30.2788 32.3962 30.124 32.3188L30.3304 31.9834C41.089 38.9494 53.344 43.3096 65.7538 46.2766C70.1398 58.093 76.7962 69.703 85.1296 77.5462Z" fill="#F4DAAB"/>
<path d="M61.0838 82.809C61.2386 83.1186 61.3418 83.4281 61.4192 83.7893C59.6132 90.9359 53.06 93.903 46.7132 92.0712C46.5842 91.8132 46.4552 91.5552 46.3778 91.2714L46.2488 90.3683C44.546 90.1361 42.8432 89.3622 41.1662 88.0464C38.225 86.0598 35.387 83.9184 32.7038 81.5964C28.7822 78.294 25.067 74.7078 21.584 70.9668C14.102 62.8656 8.11643 53.8355 2.44043 44.4443C16.6304 50.6621 30.4592 57.2412 43.7204 65.265C44.4944 65.7294 45.2426 65.4456 45.6812 64.9038C50.4026 70.683 55.7432 75.9203 61.4708 80.4095C60.8516 80.1515 60.155 80.4096 59.768 80.9514C59.8454 81.0288 59.9486 81.0804 60.026 81.1578C60.5162 81.6222 60.8774 82.164 61.0838 82.809Z" fill="#F4DAAB"/>
<path d="M40.1084 91.4522C40.031 91.478 39.9794 91.478 39.902 91.5038C35.6708 93.6452 31.517 95.8898 27.3374 98.1086C25.5572 99.0374 23.5706 100.585 21.6356 101.127C20.6036 102.056 19.5458 102.443 18.4622 102.34C18.0494 102.701 17.6108 102.985 17.0948 103.165C16.5014 103.475 15.8306 103.63 15.134 103.604H14.5664C13.586 101.695 12.8894 99.6308 12.5798 97.541C12.2186 94.9868 12.7346 92.5616 12.941 90.0074C12.9668 89.4914 12.6056 89.1818 12.167 89.0786C12.6056 87.2726 13.1216 85.544 13.457 84.2024C14.489 80.0228 15.9596 75.998 17.5334 71.999C24.1382 79.739 31.775 86.5244 40.1084 91.4522Z" fill="#F4DAAB"/>
<g opacity="0.6">
<path d="M190.447 52.4938C189.364 50.8168 188.151 49.2946 186.835 47.8498C187.248 47.824 187.583 47.566 187.712 47.05C189.802 37.2976 190.473 27.4936 189.673 17.5348C189.622 16.7608 188.77 16.1158 188.022 16.5802C181.76 20.6953 176.611 25.9017 173.13 32.3723C173.391 32.9786 173.628 33.5978 173.876 34.2119C177.596 28.5178 181.977 23.5359 187.586 19.573C188.076 28.6288 187.431 37.5556 185.496 46.4566C182.408 43.3477 178.912 40.7109 175.372 38.1412C176.051 40.0453 176.688 41.9545 177.274 43.8611C187.034 52.4783 194.942 61.4103 190.295 72.6436C189.856 72.463 189.315 72.5404 188.876 73.0822C182.07 81.6065 175.419 76.2685 170.238 68.5336C168.811 68.8226 167.336 68.8897 165.87 68.7194C165.914 68.8252 165.978 68.9207 166.017 69.0316C166.095 69.1864 166.146 69.3412 166.198 69.496C166.611 70.0894 166.998 70.6828 167.385 71.2762C167.849 71.9212 168.288 72.5404 168.752 73.1596C173.344 79.3774 183.561 84.073 189.16 78.1648C189.469 78.2164 189.805 78.139 190.063 77.8552C196.508 70.3474 195.682 60.6466 190.447 52.4938Z" fill="#2F1E12"/>
<path d="M166.428 71.5341C166.376 72.1533 166.298 72.7467 166.221 73.3401C166.169 73.6239 166.118 73.9077 166.015 74.1915C165.834 74.6817 165.628 75.1719 165.395 75.6363C165.344 75.7395 165.318 75.8169 165.241 75.8943C164.957 76.3329 164.647 76.7457 164.286 77.1327C164.234 77.1843 164.183 77.2617 164.105 77.3133C163.718 77.6487 163.306 77.9841 162.867 78.2679C162.79 78.3195 162.712 78.3711 162.635 78.3969C162.145 78.6291 161.654 78.8355 161.164 79.0161C161.061 79.0419 160.958 79.0677 160.855 79.1193C159.358 79.5063 157.759 79.5063 156.236 79.5063C154.843 79.5063 153.631 78.9387 152.65 78.0099C152.16 77.5455 151.851 77.0037 151.592 76.3845C147.723 76.1007 144.678 73.7787 142.459 69.3153C141.04 67.0449 139.699 64.6971 138.46 62.2977C137.632 60.7368 136.894 59.1191 136.133 57.5195C134.727 56.325 133.303 55.1511 131.912 53.9385C131.716 55.0324 131.381 56.0489 130.95 57.0009C133.071 61.8152 135.529 66.3896 138.383 70.5021C138.331 70.5795 138.254 70.6569 138.202 70.7859C132.991 83.2989 119.471 78.2679 113.641 69.1347C111.747 66.1754 110.263 62.9091 108.873 59.6171C108.287 59.1191 107.699 58.6264 107.111 58.1336C106.961 59.7409 106.512 61.147 105.875 62.3983C107.815 66.8901 110.049 71.2838 113.101 74.8907C112.663 74.9681 112.276 75.2003 111.94 75.6131C105.026 84.8237 96.8217 82.1405 89.8815 76.1807C89.8299 75.1745 89.1075 74.7101 88.3077 74.7359C84.4428 71.0361 81.0604 66.4902 78.5991 62.6744C78.0341 64.2069 77.2291 65.6413 76.2307 66.9081C78.9268 70.8813 81.899 74.5037 85.1343 77.5481C82.5801 79.7927 80.0259 82.0115 77.4717 84.2303C74.7369 83.3273 72.002 82.4501 69.2673 81.5471C66.4035 80.0249 63.7718 77.677 61.3208 75.5614C60.3404 74.7152 59.4271 73.7812 58.4751 72.8963C58.5628 73.1362 58.6377 73.3814 58.728 73.6213C59.3627 75.3035 59.4865 76.9753 59.2749 78.5826C60.0076 79.1941 60.7274 79.8236 61.4756 80.4093C60.8564 80.1513 60.1599 80.4093 59.7729 80.9511C59.8503 81.0285 59.9534 81.0801 60.0308 81.1575C60.521 81.6219 60.8823 82.1637 61.0887 82.8087C61.2435 83.1183 61.3467 83.4279 61.4241 83.7891C59.6181 90.9357 53.0649 93.9027 46.7181 92.0709C46.5891 91.8129 46.4601 91.5549 46.3827 91.2711L46.2537 90.3681C45.5287 90.27 44.8037 90.0507 44.0813 89.7566C42.6262 89.5141 41.2046 89.0058 39.894 88.1003C38.751 87.3082 37.6365 86.4852 36.5142 85.6725C36.6457 86.8748 36.5374 87.9816 36.331 89.0394C37.5771 89.8804 38.8336 90.6957 40.1132 91.4517C40.0358 91.4775 39.9842 91.4775 39.9068 91.5033C37.3759 92.7855 34.8733 94.1039 32.3758 95.4326C31.1452 96.4027 29.7184 97.1509 28.1859 97.6618C27.9047 97.8114 27.6235 97.961 27.3422 98.1107C25.562 99.0395 23.5755 100.587 21.6405 101.129C20.6085 102.058 19.5506 102.445 18.467 102.342C18.0542 102.703 17.6156 102.987 17.0996 103.167C16.5062 103.477 15.8355 103.632 15.1389 103.606H14.5713C13.5909 101.697 12.8942 99.6329 12.5846 97.5431C12.3524 95.897 12.4892 94.3051 12.6672 92.6978C12.0712 91.769 11.5346 90.7602 11.1398 89.5837C10.7245 88.3376 10.3091 87.0889 9.8937 85.8428C9.56088 87.2411 9.24615 88.6472 9.02427 90.0869C8.35347 94.4729 7.06344 101 10.1594 104.819C12.5072 107.657 15.9129 107.218 19.0089 106.031C26.6715 103.064 34.2051 98.0333 41.3775 94.0085C42.0225 93.6473 42.1773 93.028 42.0225 92.4862C42.0483 92.4862 42.0483 92.4863 42.0741 92.5121C47.4405 97.6979 56.1093 96.3047 61.0629 91.1705C61.3725 90.8867 61.6563 90.5771 61.9143 90.2417C63.5397 88.2035 64.5975 85.7009 64.7781 82.8629C72.6471 87.8939 85.6244 90.1385 89.0558 80.6957C97.4924 86.1911 108.715 86.6555 115.011 77.3933C115.088 77.2643 115.114 77.1611 115.165 77.0321C115.552 77.4191 115.939 77.8576 116.378 78.2188C125.047 85.3912 137.018 83.6627 140.269 73.0847C140.707 73.6265 141.12 74.194 141.559 74.71C148.318 82.8886 164.134 86.8877 166.972 73.1621C167.101 72.5945 166.946 72.13 166.662 71.7688C166.582 71.6889 166.502 71.6115 166.428 71.5341ZM8.52891 99.8625L8.34829 98.5209C8.32249 97.8243 8.47728 97.1793 8.78688 96.5601C8.81268 96.5085 8.83848 96.4569 8.86428 96.3795C8.94168 98.2113 9.14808 99.9915 9.58668 101.772C9.09906 101.23 8.73789 100.585 8.52891 99.8625Z" fill="#2F1E12"/>
<path d="M177.271 43.8613C178.239 46.9986 179.103 50.1024 179.887 53.0436C182.106 61.3666 176.727 67.2129 170.235 68.5339C175.416 76.2687 182.067 81.6067 188.873 73.0824C189.312 72.5406 189.854 72.4632 190.292 72.6438C194.936 61.4105 187.029 52.4785 177.271 43.8613Z" fill="#F4DAAB"/>
<path d="M187.583 19.5732C181.977 23.5361 177.593 28.5181 173.873 34.2122C174.397 35.5125 174.897 36.8205 175.367 38.1415C178.907 40.7086 182.403 43.3454 185.491 46.4569C187.428 37.5559 188.073 28.629 187.583 19.5732Z" fill="#F4DAAB"/>
<path d="M166.012 69.0315C165.976 68.9206 165.911 68.8277 165.865 68.7193C162.315 68.3039 158.85 66.4902 156.451 62.922C156.324 62.7337 156.19 62.5557 156.064 62.3673C151.471 65.0428 145.109 64.9912 140.168 60.9458C138.801 59.8261 137.475 58.6625 136.128 57.5195C136.892 59.1217 137.627 60.7368 138.455 62.2977C139.694 64.6971 141.035 67.0449 142.454 69.3153C144.673 73.7787 147.717 76.1007 151.587 76.3845C151.845 77.0037 152.155 77.5455 152.645 78.0099C153.626 78.9387 154.838 79.5063 156.231 79.5063C157.754 79.5063 159.353 79.5063 160.849 79.1193C160.953 79.0677 161.056 79.0419 161.159 79.0161C161.649 78.8355 162.139 78.6291 162.63 78.3969C162.707 78.3711 162.784 78.3195 162.862 78.2679C163.3 77.9841 163.713 77.6487 164.1 77.3133C164.178 77.2617 164.229 77.1843 164.281 77.1327C164.642 76.7457 164.952 76.3329 165.236 75.8943C165.313 75.8169 165.339 75.7395 165.39 75.6363C165.623 75.1719 165.829 74.6817 166.009 74.1915C166.113 73.9077 166.164 73.6239 166.216 73.3401C166.293 72.7467 166.371 72.1533 166.422 71.5341C166.5 71.6115 166.577 71.6889 166.654 71.7663L167.377 71.2761C166.99 70.6827 166.603 70.0893 166.19 69.4959C166.144 69.3411 166.092 69.1863 166.012 69.0315Z" fill="#F4DAAB"/>
<path d="M110.449 60.9458C109.915 60.5098 109.394 60.0609 108.87 59.6171C110.261 62.9092 111.744 66.1755 113.638 69.1347C119.469 78.2679 132.988 83.2989 138.2 70.7859C138.251 70.6569 138.329 70.5795 138.38 70.5021C135.527 66.3896 133.068 61.8153 130.947 57.001C127.642 64.2972 117.983 67.0991 110.449 60.9458Z" fill="#F4DAAB"/>
<path d="M85.3017 65.5171C83.2687 63.8892 81.2357 62.2637 79.2026 60.6357C79.0556 61.3298 78.8389 62.0032 78.5938 62.6688C81.0551 66.4846 84.4375 71.0306 88.3023 74.7303C89.1021 74.7045 89.8245 75.1689 89.8761 76.1751C96.8163 82.1349 105.021 84.8181 111.935 75.6075C112.271 75.1947 112.657 74.9625 113.096 74.8851C110.046 71.2783 107.81 66.8871 105.869 62.3927C102.27 69.4593 91.8549 70.7597 85.3017 65.5171Z" fill="#F4DAAB"/>
<path d="M60.4642 69.8107C59.1664 68.918 57.8429 68.077 56.5039 67.272C57.1386 69.1528 57.7836 71.031 58.4698 72.8964C59.4219 73.7813 60.3352 74.7153 61.3156 75.5615C63.7666 77.6771 66.3982 80.025 69.262 81.5472C71.9968 82.4502 74.7316 83.3273 77.4664 84.2303C80.0206 82.0115 82.5748 79.7927 85.129 77.5481C81.8937 74.5037 78.9215 70.8814 76.2254 66.9082C72.567 71.5548 66.3853 73.8819 60.4642 69.8107Z" fill="#F4DAAB"/>
<path d="M61.4735 80.4096C60.7279 79.824 60.0055 79.1919 59.2727 78.583C58.3852 85.3916 50.8645 90.8844 44.0791 89.757C44.8015 90.0511 45.5265 90.2704 46.2514 90.3684L46.3805 91.2714C46.4579 91.5552 46.5869 91.8132 46.7159 92.0712C53.0627 93.903 59.6159 90.936 61.4219 83.7894C61.3445 83.4282 61.2412 83.1186 61.0864 82.809C60.88 82.164 60.5189 81.6223 60.0287 81.1579C59.9513 81.0805 59.8481 81.0288 59.7707 80.9514C60.1577 80.4096 60.8543 80.1516 61.4735 80.4096Z" fill="#F4DAAB"/>
<path d="M12.6625 92.6953C12.4844 94.3027 12.3477 95.8945 12.5799 97.5405C12.8895 99.6303 13.5861 101.694 14.5665 103.604H15.1341C15.8307 103.629 16.5015 103.475 17.0949 103.165C17.6109 102.984 18.0495 102.701 18.4623 102.339C19.5459 102.443 20.6037 102.056 21.6357 101.127C23.5707 100.585 25.5573 99.0369 27.3375 98.1081C27.6187 97.9585 27.8999 97.8089 28.1811 97.6592C22.7786 99.4549 16.1713 98.1675 12.6625 92.6953Z" fill="#F4DAAB"/>
</g>
<path d="M43.0623 74.7983C39.9096 72.8117 37.2057 70.2368 34.8992 67.3162C32.8352 64.7027 31.2717 61.5164 28.604 59.4885C27.6545 58.7687 25.8408 59.4885 25.6731 60.6805C24.4605 69.3003 34.4503 76.145 41.3518 78.8566C43.7718 79.8112 45.1057 76.0857 43.0623 74.7983Z" fill="white"/>
<path d="M57.2806 64.5423C54.489 58.1672 52.2289 51.2657 47.7191 45.8889C46.2923 44.1887 43.8104 46.0463 44.2309 47.9194C45.7634 54.7254 49.9998 60.7858 53.3641 66.8308C54.8166 69.4443 58.4235 67.1507 57.2806 64.5423Z" fill="white"/>
<path d="M87.7916 59.5398C85.7663 54.8829 84.1254 48.9385 80.4334 45.3136C78.3204 43.2419 75.5262 45.4298 75.8849 47.9607C76.6021 53.0253 80.5056 57.9789 83.0134 62.3314C84.8375 65.497 89.1744 62.7209 87.7916 59.5398Z" fill="white"/>
<path d="M209.943 31.4253C218.299 36.3299 223.423 44.6091 221.062 54.2222C220.962 54.5911 220.696 54.813 220.397 54.9059C218.075 62.7078 206.839 63.1387 199.932 59.6686C199.238 59.3254 198.567 58.972 197.86 58.6082C197.246 58.2547 196.635 57.8987 195.998 57.5555C195.882 57.442 195.766 57.3259 195.626 57.2227C195.162 56.7635 194.617 56.4332 193.97 56.2397C193.854 56.183 193.738 56.183 193.634 56.1494C186.191 51.6783 178.658 45.8346 172.277 39.235C159.424 41.4409 145.352 38.043 134.581 30.8913C140.935 38.6338 147.367 46.1907 154.756 52.9451C158.931 56.7867 163.371 60.409 168.002 63.6727C170.193 65.2543 172.45 66.7403 174.741 68.1232C178.738 71.1005 182.504 71.7946 186.083 70.2982C186.594 70.7342 187.115 71.0773 187.76 71.2708C189.055 71.6553 190.391 71.614 191.635 70.9844C192.992 70.2956 194.419 69.5732 195.58 68.5515C195.649 68.4586 195.729 68.389 195.809 68.3193C196.165 67.9375 196.509 67.5298 196.841 67.1016C196.898 67.0422 196.945 66.9622 196.991 66.8822C197.254 66.4307 197.471 65.9457 197.664 65.471C197.711 65.391 197.721 65.2981 197.744 65.2285C197.891 64.7202 197.982 64.212 198.036 63.6934C198.069 63.5902 198.057 63.5076 198.057 63.3941C198.054 62.8755 198.015 62.344 197.956 61.8255C197.92 61.5262 197.837 61.2501 197.755 60.9715C197.556 60.4064 197.357 59.844 197.123 59.2687C197.226 59.3022 197.332 59.3358 197.435 59.3719C197.85 59.5654 198.198 59.9111 198.34 60.4735C202.014 74.0005 186.101 77.5815 176.372 73.3426C175.747 73.0794 175.123 72.7621 174.486 72.4757C176.369 83.3813 166.472 90.3345 155.497 87.8577C154.942 87.7338 154.398 87.5171 153.879 87.3468C153.892 87.4861 153.915 87.5893 153.905 87.739C152.478 98.8459 142.256 103.505 132.246 102.419C133.453 112.393 120.866 116.258 111.57 115.327C112.692 117.94 112.88 120.649 112.352 123.204C112.272 123.619 112.161 124.024 112.011 124.416C109.913 131.235 102.811 136.398 95.6796 134.197C95.6461 134.187 95.6461 134.187 95.6228 134.197C96.0073 134.61 96.1492 135.232 95.7364 135.846C91.1595 142.677 86.7141 150.572 81.2187 156.682C78.9948 159.14 76.1542 161.07 72.777 159.6C68.2878 157.592 66.4895 151.189 65.104 146.973C62.9085 140.247 62.088 133.374 62.7072 126.32C62.6943 126.297 62.7304 126.251 62.7408 126.217C53.0709 121.978 43.9945 116.338 36.3809 110.046C35.9294 109.666 35.9139 109.125 36.1539 108.743C35.8959 108.121 36.1229 107.197 36.9072 107.089C51.7448 104.919 66.7552 104.803 81.7038 105.701C72.4699 101.067 63.9224 95.0455 56.8454 87.9299C56.056 87.1146 56.879 85.8298 57.8155 85.9046C57.9884 85.9046 58.1974 85.9717 58.3831 86.1084C68.0581 93.3814 77.6944 100.069 88.8426 104.888C94.129 107.156 99.6296 108.996 105.187 110.371C108.329 111.15 111.738 112.053 114.981 112.117C117.829 111.687 120.664 111.232 123.513 110.802C124.787 107.667 126.062 104.535 127.326 101.377C116.348 98.1493 105.161 90.8014 95.9066 82.2461C83.4968 85.2106 70.5943 86.8618 57.8491 85.5124C57.8362 85.4892 57.8155 85.5021 57.8155 85.5021C56.719 85.3937 56.8377 83.8587 57.911 83.8045C69.9777 83.3581 81.6496 82.4758 93.3679 79.8029C89.5753 76.0283 86.1723 72.1119 83.3343 68.2264C82.6248 67.2254 83.7162 66.1237 84.6656 66.6836L85.3674 64.4183C85.3183 63.8069 85.8446 63.1361 86.6651 63.327C93.5279 64.7666 100.331 66.3224 107.339 66.8487C113.329 67.3131 119.245 66.4823 125.187 66.681C118.162 60.7547 111.183 54.8027 104.537 48.4843C103.714 47.7154 104.653 46.4306 105.577 46.5983C105.146 46.0358 105.373 45.0529 106.283 45.1406C118.667 45.8914 130.948 46.5519 143.33 46.7841C139.147 41.7892 135.394 36.6059 132.285 31.5569C131.841 30.7984 132.53 30.045 133.268 29.9599C133.002 29.7767 132.746 29.6167 132.481 29.4335C131.82 28.9304 132.46 27.9681 133.18 28.3577C145.11 34.7767 156.823 37.0549 169.731 36.5002C165.203 31.3892 161.366 25.8731 158.82 20.2204C158.41 19.2993 159.651 18.2673 160.347 18.9536C160.371 18.9407 160.358 18.9201 160.358 18.9201C160.342 18.3783 160.363 17.8468 160.383 17.3153C160.404 17.016 160.391 16.6471 160.389 16.2988C160.226 15.9195 160.327 15.5506 160.556 15.259C160.66 15.0036 160.796 14.7611 161.036 14.6114C161.335 14.4025 161.601 14.4128 161.89 14.6424C161.993 14.7353 162.042 14.8849 162.099 14.9984C162.179 15.0449 162.249 15.0681 162.308 15.1249C169.093 21.4923 177.179 23.3499 185.448 24.7147C184.904 16.1104 187.236 7.986 191.534 0.485943C191.991 -0.267417 193.044 -0.0764962 193.438 0.591724C198.655 9.11346 202.489 18.1615 205.033 27.8056C205.152 28.3242 204.968 28.706 204.612 28.915C206.449 29.609 208.219 30.4191 209.943 31.4253ZM218.916 49.4698C217.115 26.1157 177.615 31.4434 162.231 18.2105C162.22 18.533 162.2 18.8917 162.156 19.2039C162.135 19.3896 162.122 19.5392 162.042 19.7224C161.952 19.9417 161.55 20.1739 161.503 20.4293C161.503 20.4293 161.48 20.4423 161.493 20.4629C165.598 26.2215 169.999 31.366 174.963 36.139C175.322 36.1028 175.654 36.077 176.013 36.0409C177.246 35.9068 177.752 37.3593 176.993 38.0327C179.07 39.9599 181.248 41.8046 183.554 43.6158C190.391 49.0003 213.893 69.5732 217.85 50.5018C217.995 49.8207 218.441 49.506 218.916 49.4698ZM202.796 28.2803C200.497 19.467 197.038 11.211 192.507 3.35748C188.934 10.1145 187.218 17.2895 186.625 24.9082C192.063 25.7648 197.548 26.5439 202.796 28.2803ZM171.612 71.3611C171.599 71.2218 171.632 71.1186 171.645 71.0257C162.166 65.907 153.309 58.1335 145.739 49.5911C132.633 49.9858 119.165 49.2634 106.252 46.9569C116.216 54.2867 125.651 62.2899 135.156 70.1976C139.573 73.8895 143.967 78.0536 148.957 80.9922C158.288 86.5031 172.62 84.8778 171.612 71.3611ZM150.368 87.5403C150.481 87.0191 150.721 86.6373 151.077 86.3716C143.017 82.966 136.206 75.92 129.759 70.5071C128.913 69.808 128.09 69.0959 127.256 68.4199C127.096 68.6754 126.867 68.9075 126.521 69.0237C114.692 72.6769 98.3396 70.2053 86.8689 65.6052C86.6651 66.1702 86.4819 66.7274 86.2781 67.2925C86.1981 67.535 86.0614 67.6614 85.8885 67.7801C94.2838 75.4427 102.473 83.2085 112.073 89.4211C116.149 92.0424 122.501 95.5022 128.895 97.4398C129.596 97.0553 130.45 97.1431 130.951 98.0177C139.831 100.198 148.363 98.882 150.368 87.5403ZM109.005 117.672C108.773 117.386 108.541 117.156 108.262 116.95C107.788 116.467 107.22 116.147 106.572 115.956C106.469 115.923 106.353 115.923 106.25 115.889C106.35 115.231 106.854 114.687 107.524 114.635C100.385 113.222 93.2544 110.964 86.4303 107.943C86.2833 108.624 85.744 109.215 84.8436 109.15C69.3868 107.989 54.0797 108.374 38.61 109.243C47.9187 115.053 57.3408 120.402 67.6763 124.246C72.4751 126.008 77.4106 127.528 82.4003 128.699C85.8446 129.558 89.3431 130.185 92.8648 130.626C94.9546 131.042 96.8251 130.962 98.4479 130.399L98.9717 131.147C99.1678 131.367 99.4 131.537 99.6322 131.71C106.121 130.474 110.626 124.865 109.005 117.672ZM93.3009 134.282C93.3576 134.223 93.404 134.202 93.4608 134.143C83.8013 133.516 73.9199 130.915 64.5287 126.996C64.9338 131.274 65.442 135.528 66.4095 139.723C66.7165 141.073 67.039 142.848 67.4622 144.656C67.9008 144.551 68.3626 144.664 68.5715 145.134C69.5416 147.505 70.1789 149.901 71.6547 152.017C72.875 153.741 74.4307 155.268 76.1671 156.527L76.6727 156.269C77.3048 155.977 77.8338 155.536 78.2234 154.992C78.6026 154.597 78.8657 154.146 79.0696 153.637C80.0835 153.24 80.8524 152.417 81.3529 151.122C82.8338 149.765 83.9071 147.484 85.0732 145.851C87.8055 141.986 90.4938 138.106 93.3009 134.282ZM70.9039 157.146C69.7068 155.756 68.7186 154.262 67.8208 152.662C67.8337 152.742 67.8337 152.801 67.8337 152.858C67.8363 153.55 67.9911 154.195 68.329 154.806L69.0979 155.921C69.6061 156.473 70.2202 156.886 70.9039 157.146Z" fill="#2F1E12"/>
<path d="M162.228 18.2109C177.612 31.4412 217.112 26.1135 218.913 49.4702C218.441 49.5064 217.992 49.8211 217.845 50.5022C213.887 69.5736 190.386 49.0032 183.549 43.6162C181.242 41.805 179.065 39.9603 176.988 38.0331C177.746 37.3597 177.241 35.9071 176.008 36.0413C175.649 36.0774 175.316 36.1032 174.958 36.1394C169.994 31.3664 165.592 26.2218 161.487 20.4633C161.474 20.4401 161.498 20.4297 161.498 20.4297C161.541 20.1769 161.944 19.9421 162.037 19.7228C162.117 19.5371 162.127 19.3874 162.15 19.2042C162.197 18.8921 162.22 18.5334 162.228 18.2109Z" fill="#F4DAAB"/>
<path d="M192.504 3.35742C197.035 11.2135 200.497 19.467 202.794 28.2802C197.546 26.5439 192.061 25.7647 186.622 24.9082C187.215 17.2894 188.931 10.1144 192.504 3.35742Z" fill="#F4DAAB"/>
<path d="M195.997 57.5559C196.635 57.899 197.246 58.2525 197.86 58.6085L197.437 59.3722C197.334 59.3387 197.228 59.3051 197.125 59.269C197.36 59.8443 197.558 60.4094 197.757 60.9718C197.84 61.2479 197.922 61.524 197.958 61.8258C198.017 62.3444 198.056 62.8758 198.059 63.3944C198.059 63.5105 198.072 63.5905 198.038 63.6937C197.984 64.2123 197.894 64.7206 197.747 65.2288C197.723 65.2985 197.713 65.3914 197.667 65.4713C197.473 65.9461 197.256 66.4311 196.993 66.8826C196.947 66.9626 196.903 67.0452 196.844 67.1019C196.511 67.5302 196.168 67.9378 195.812 68.3197C195.732 68.3893 195.652 68.459 195.582 68.5519C194.421 69.5735 192.994 70.2959 191.637 70.9848C190.394 71.6143 189.057 71.6556 187.762 71.2712C187.114 71.0777 186.593 70.7346 186.085 70.2985C182.504 71.7949 178.74 71.1009 174.743 68.1236C172.452 66.7407 170.192 65.252 168.004 63.6731C163.371 60.4094 158.933 56.7871 154.759 52.9455C147.372 46.191 140.938 38.6316 134.583 30.8916C145.352 38.0434 159.426 41.4412 172.279 39.2353C178.662 45.835 186.193 51.6786 193.637 56.1498C193.74 56.1833 193.856 56.1833 193.972 56.2401C194.62 56.4336 195.164 56.7638 195.628 57.2231C195.765 57.3263 195.881 57.4398 195.997 57.5559Z" fill="#F4DAAB"/>
<path d="M171.646 71.0288C171.635 71.1216 171.602 71.2249 171.612 71.3642C172.621 84.8808 158.286 86.5062 148.957 80.9953C143.967 78.0567 139.571 73.8926 135.157 70.2006C125.652 62.2903 116.217 54.2897 106.253 46.96C119.166 49.2665 132.633 49.9889 145.74 49.5941C153.31 58.1365 162.167 65.91 171.646 71.0288Z" fill="#F4DAAB"/>
<path d="M151.075 86.3693C150.719 86.6376 150.479 87.0194 150.366 87.538C148.364 98.8797 139.832 100.196 130.946 98.018C130.446 97.1434 129.592 97.0556 128.89 97.4401C122.499 95.5025 116.145 92.0402 112.068 89.4215C102.468 83.2088 94.2791 75.443 85.8838 67.7804C86.0566 67.6643 86.1934 67.5353 86.2734 67.2928C86.4772 66.7252 86.6604 66.1705 86.8642 65.6055C98.3349 70.203 114.687 72.6747 126.516 69.024C126.862 68.9053 127.092 68.6757 127.252 68.4203C128.085 69.0962 128.91 69.8083 129.754 70.5075C136.204 75.9177 143.015 82.9637 151.075 86.3693Z" fill="#F4DAAB"/>
<path d="M127.331 101.385C126.066 104.543 124.792 107.675 123.517 110.809C120.669 111.24 117.834 111.694 114.985 112.125C111.742 112.063 108.334 111.158 105.192 110.378C99.6343 109.001 94.1312 107.161 88.8474 104.896C77.6992 100.077 68.0603 93.3918 58.3879 86.1162C58.2022 85.9794 57.9958 85.9098 57.8203 85.9123L57.8539 85.5202C70.5991 86.8695 83.5016 85.2183 95.9114 82.2539C105.166 90.8092 116.353 98.157 127.331 101.385Z" fill="#F4DAAB"/>
<path d="M108.263 116.95C108.541 117.156 108.773 117.386 109.006 117.672C110.626 124.863 106.121 130.472 99.6325 131.707C99.4003 131.535 99.1681 131.364 98.972 131.145L98.4483 130.397C96.8255 130.959 94.9549 131.039 92.8651 130.624C89.3434 130.183 85.845 129.556 82.4007 128.697C77.4109 127.525 72.4754 126.006 67.6766 124.243C57.3411 120.399 47.919 115.051 38.6104 109.241C54.0775 108.371 69.3872 107.987 84.8439 109.148C85.7444 109.212 86.2836 108.622 86.4307 107.94C93.2548 110.962 100.386 113.217 107.525 114.633C106.856 114.682 106.351 115.229 106.25 115.887C106.353 115.92 106.469 115.92 106.573 115.954C107.22 116.147 107.788 116.467 108.263 116.95Z" fill="#F4DAAB"/>
<path d="M93.4605 134.143C93.4037 134.202 93.3573 134.223 93.3006 134.282C90.4935 138.106 87.8051 141.986 85.0807 145.854C83.9119 147.487 82.8412 149.765 81.3603 151.125C80.8598 152.42 80.091 153.243 79.077 153.64C78.8732 154.148 78.61 154.6 78.2308 154.995C77.8412 155.539 77.3123 155.98 76.6802 156.272L76.1745 156.53C74.4356 155.271 72.8825 153.743 71.6621 152.02C70.1864 149.904 69.5491 147.507 68.579 145.136C68.37 144.664 67.9056 144.551 67.4696 144.659C67.0439 142.851 66.724 141.076 66.417 139.726C65.4469 135.531 64.9386 131.277 64.5361 126.999C73.9196 130.915 83.801 133.516 93.4605 134.143Z" fill="#F4DAAB"/>
<g opacity="0.6">
<path d="M209.943 31.4252C208.219 30.419 206.449 29.6089 204.62 28.9149C204.976 28.7059 205.159 28.3241 205.041 27.8055C202.497 18.1615 198.66 9.11338 193.446 0.591645C193.049 -0.076575 191.999 -0.264916 191.542 0.485864C187.816 6.98746 185.577 13.9586 185.396 21.3039C185.902 21.727 186.395 22.1734 186.893 22.6094C187.638 15.8498 189.292 9.42298 192.502 3.35482C197.032 11.2109 200.495 19.4644 202.791 28.2776C198.629 26.8999 194.321 26.1285 190.002 25.4396C191.467 26.8303 192.899 28.2467 194.285 29.6811C206.885 32.9552 217.977 37.3463 218.911 49.4672C218.439 49.5059 217.99 49.818 217.843 50.4991C215.626 61.1803 207.28 59.426 199.163 54.8671C198.02 55.7701 196.736 56.4977 195.35 57.0085C195.438 57.0833 195.538 57.1375 195.621 57.2201C195.76 57.3233 195.876 57.4394 195.993 57.5529C196.63 57.896 197.241 58.2495 197.855 58.6055C198.562 58.9719 199.233 59.3254 199.927 59.6659C206.834 63.136 218.07 62.7051 220.394 54.9032C220.693 54.8103 220.957 54.5885 221.06 54.2195C223.423 44.609 218.302 36.3298 209.943 31.4252Z" fill="#2F1E12"/>
<path d="M197.128 59.2684C197.362 59.8437 197.561 60.4088 197.76 60.9738C197.842 61.2498 197.925 61.5259 197.961 61.8277C198.023 62.3463 198.059 62.8778 198.061 63.3964C198.061 63.5125 198.074 63.5925 198.041 63.6957C197.987 64.2142 197.896 64.7225 197.749 65.2308C197.726 65.3004 197.716 65.3933 197.669 65.4733C197.476 65.948 197.259 66.4331 196.996 66.8846C196.949 66.9645 196.906 67.0471 196.846 67.1038C196.513 67.5321 196.17 67.9372 195.814 68.3216C195.734 68.3913 195.654 68.4609 195.585 68.5538C194.426 69.5755 192.997 70.2979 191.64 70.9868C190.396 71.6163 189.06 71.6575 187.765 71.2731C187.117 71.0796 186.596 70.7365 186.088 70.3005C182.507 71.7969 178.742 71.1028 174.746 68.1255C172.455 66.7426 170.195 65.254 168.007 63.675C166.562 62.6585 165.174 61.5491 163.771 60.4655C161.978 60.0346 160.177 59.6322 158.389 59.1807C158.709 60.2436 158.869 61.304 158.915 62.3463C162.984 65.6823 167.246 68.6518 171.65 71.028C171.64 71.1209 171.606 71.2241 171.616 71.3634C172.625 84.88 158.291 86.5054 148.961 80.9946C145.933 79.2118 143.133 76.9672 140.406 74.6607C139.658 74.4826 138.91 74.3072 138.162 74.1344C138.755 75.6359 138.99 77.0936 138.987 78.4971C142.749 81.6267 146.73 84.5343 151.08 86.3739C150.724 86.6422 150.484 87.024 150.37 87.5426C148.366 98.8843 139.836 100.2 130.951 98.0226C130.45 97.148 129.596 97.0602 128.894 97.4447C123.776 95.8915 118.701 93.3682 114.782 91.0746C114.973 92.6974 114.9 94.3409 114.583 95.9224C118.783 98.247 123.074 100.133 127.336 101.387C126.072 104.542 124.797 107.677 123.523 110.812C120.674 111.243 117.839 111.697 114.991 112.127C111.748 112.066 108.339 111.16 105.197 110.381C103.941 110.069 102.702 109.651 101.453 109.292C101.642 109.467 101.817 109.651 102.008 109.823C103.334 111.036 104.201 112.473 104.74 114.003C105.669 114.217 106.598 114.452 107.529 114.638C106.861 114.687 106.355 115.234 106.255 115.892C106.358 115.925 106.474 115.925 106.577 115.959C107.225 116.152 107.792 116.472 108.267 116.955C108.546 117.161 108.778 117.391 109.01 117.677C110.63 124.867 106.126 130.476 99.637 131.712C99.4048 131.539 99.1726 131.369 98.9766 131.15L98.4528 130.402C97.7614 130.641 97.0157 130.773 96.2392 130.838C94.8331 131.279 93.3315 131.467 91.7551 131.253C90.3774 131.065 89.01 130.835 87.6426 130.616C88.3031 131.63 88.7081 132.664 88.9997 133.704C90.4909 133.892 91.9822 134.05 93.4657 134.145C93.4089 134.202 93.3625 134.228 93.3057 134.284C91.6287 136.57 89.9904 138.879 88.365 141.194C87.7046 142.618 86.7706 143.928 85.6354 145.077C85.4522 145.337 85.269 145.598 85.0858 145.858C83.9171 147.492 82.8464 149.77 81.3655 151.129C80.8649 152.424 80.0961 153.247 79.0848 153.645C78.881 154.153 78.6178 154.605 78.2385 154.999C77.8489 155.544 77.3201 155.985 76.688 156.276L76.1823 156.532C74.4459 155.273 72.8902 153.745 71.6698 152.022C70.7178 150.66 70.1219 149.176 69.5543 147.664C68.6022 147.104 67.6683 146.449 66.7833 145.577C65.8494 144.653 64.9154 143.73 63.9814 142.804C64.3168 144.202 64.6729 145.598 65.1244 146.983C66.5098 151.199 68.3107 157.605 72.7973 159.61C76.1745 161.08 79.0151 159.148 81.2391 156.692C86.7319 150.58 91.1772 142.688 95.7542 135.856C96.167 135.242 96.025 134.62 95.6406 134.207C95.6638 134.194 95.6638 134.194 95.6974 134.207C102.829 136.408 109.931 131.245 112.029 124.426C112.176 124.034 112.289 123.629 112.369 123.214C112.898 120.662 112.71 117.951 111.588 115.337C120.881 116.266 133.471 112.401 132.264 102.427C142.274 103.513 152.493 98.8559 153.92 87.7464C153.931 87.5968 153.907 87.4936 153.894 87.3543C154.416 87.5245 154.957 87.7413 155.512 87.8651C166.487 90.3445 176.384 83.3888 174.501 72.4832C175.138 72.767 175.763 73.0869 176.387 73.35C186.113 77.589 202.03 74.0053 198.356 60.481C198.214 59.916 197.865 59.5728 197.45 59.3793C197.334 59.3355 197.231 59.3019 197.128 59.2684ZM69.095 155.92L68.3287 154.806C67.9908 154.197 67.836 153.549 67.8334 152.858C67.8334 152.801 67.8334 152.742 67.8205 152.662C68.7183 154.261 69.7065 155.755 70.9036 157.146C70.2199 156.885 69.6058 156.472 69.095 155.92Z" fill="#2F1E12"/>
<path d="M194.287 29.6836C196.568 32.0443 198.743 34.4205 200.773 36.6909C206.516 43.1099 204.362 50.7596 199.168 54.8721C207.285 59.4284 215.631 61.1854 217.848 50.5042C217.995 49.8231 218.441 49.5083 218.916 49.4722C217.979 37.3488 206.89 32.955 194.287 29.6836Z" fill="#F4DAAB"/>
<path d="M192.504 3.35742C189.295 9.42558 187.639 15.8524 186.896 22.612C187.951 23.5356 188.988 24.4747 190.007 25.4422C194.326 26.1311 198.634 26.9051 202.796 28.2802C200.497 19.467 197.038 11.2109 192.504 3.35742Z" fill="#F4DAAB"/>
<path d="M195.626 57.2231C195.544 57.1406 195.443 57.0864 195.356 57.0116C192.002 58.2448 188.09 58.1958 184.339 56.0983C184.14 55.9873 183.942 55.8893 183.743 55.7783C180.858 60.2417 175.157 63.072 168.921 61.6969C167.195 61.315 165.487 60.879 163.769 60.4662C165.172 61.5498 166.56 62.6592 168.005 63.6757C170.195 65.2573 172.453 66.7433 174.744 68.1262C178.74 71.1035 182.507 71.7975 186.086 70.3011C186.596 70.7372 187.118 71.0803 187.763 71.2738C189.058 71.6582 190.394 71.617 191.638 70.9874C192.995 70.2986 194.422 69.5761 195.583 68.5545C195.652 68.4616 195.732 68.3919 195.812 68.3223C196.168 67.9404 196.511 67.5328 196.844 67.1045C196.901 67.0478 196.947 66.9652 196.994 66.8852C197.257 66.4337 197.474 65.9487 197.667 65.4739C197.714 65.394 197.724 65.3011 197.747 65.2314C197.894 64.7232 197.984 64.2149 198.039 63.6963C198.072 63.5931 198.062 63.5106 198.059 63.3971C198.057 62.8785 198.018 62.347 197.959 61.8284C197.923 61.5291 197.84 61.2531 197.758 60.9745C197.559 60.4094 197.358 59.847 197.125 59.2691C197.229 59.3026 197.334 59.3387 197.438 59.3723L197.861 58.6086C197.247 58.2551 196.635 57.8991 195.998 57.5559C195.882 57.4398 195.766 57.3263 195.626 57.2231Z" fill="#F4DAAB"/>
<path d="M142.411 75.1303C141.738 74.9832 141.07 74.8181 140.401 74.6581C143.128 76.9646 145.93 79.2092 148.957 80.992C158.286 86.5029 172.62 84.8775 171.612 71.3609C171.599 71.2216 171.632 71.1183 171.645 71.0255C167.241 68.6467 162.979 65.6797 158.91 62.3438C159.259 70.3469 151.911 77.2149 142.411 75.1303Z" fill="#F4DAAB"/>
<path d="M122.047 90.5792C119.498 90.0477 116.948 89.5163 114.399 88.9848C114.58 89.6711 114.694 90.3702 114.776 91.0746C118.695 93.3656 123.77 95.8915 128.889 97.4446C129.59 97.0602 130.444 97.1479 130.945 98.0225C139.83 100.2 148.36 98.8842 150.365 87.5425C150.478 87.024 150.718 86.6396 151.074 86.3738C146.724 84.5343 142.743 81.6292 138.982 78.4971C138.964 86.4228 130.261 92.2923 122.047 90.5792Z" fill="#F4DAAB"/>
<path d="M101.832 105.636C100.272 105.427 98.7107 105.275 97.1523 105.161C98.5688 106.552 99.9929 107.935 101.448 109.289C102.697 109.648 103.935 110.069 105.192 110.378C108.334 111.157 111.742 112.06 114.985 112.125C117.834 111.694 120.669 111.24 123.517 110.809C124.792 107.674 126.066 104.54 127.331 101.384C123.068 100.13 118.778 98.2445 114.578 95.9199C113.417 101.722 108.956 106.591 101.832 105.636Z" fill="#F4DAAB"/>
<path d="M107.524 114.636C106.593 114.45 105.667 114.213 104.735 114.001C107.021 120.474 102.798 128.774 96.2344 130.838C97.0135 130.774 97.7566 130.642 98.448 130.402L98.9718 131.15C99.1678 131.367 99.4 131.54 99.6322 131.713C106.121 130.477 110.626 124.868 109.005 117.677C108.773 117.391 108.541 117.161 108.262 116.955C107.788 116.473 107.22 116.153 106.572 115.959C106.469 115.926 106.353 115.926 106.25 115.892C106.351 115.232 106.854 114.685 107.524 114.636Z" fill="#F4DAAB"/>
<path d="M69.541 147.659C70.1086 149.174 70.7072 150.654 71.6566 152.017C72.8769 153.74 74.4327 155.267 76.169 156.526L76.6747 156.271C77.3068 155.98 77.8357 155.538 78.2253 154.994C78.6045 154.599 78.8677 154.148 79.0715 153.639C80.0855 153.242 80.8517 152.419 81.3523 151.124C82.8332 149.767 83.9065 147.486 85.0726 145.853C85.2558 145.592 85.439 145.332 85.6222 145.071C81.6206 149.114 75.1448 150.956 69.541 147.659Z" fill="#F4DAAB"/>
</g>
<path d="M88.5644 117.954C84.8543 117.608 81.2785 116.535 77.9012 114.971C74.8775 113.573 72.042 111.439 68.7474 110.836C67.5761 110.621 66.2809 112.084 66.6731 113.225C69.4904 121.463 81.4926 123.052 88.874 122.35C91.4643 122.105 90.9715 118.176 88.5644 117.954Z" fill="white"/>
<path d="M96.611 102.378C91.2369 97.953 86.1026 92.8188 79.6501 90.0633C77.6093 89.1913 76.2341 91.97 77.457 93.4509C81.9024 98.8302 88.4195 102.318 94.1523 106.191C96.6316 107.863 98.8092 104.186 96.611 102.378Z" fill="white"/>
<path d="M121.565 84.1213C117.654 80.8834 113.502 76.322 108.569 74.7585C105.75 73.8658 104.245 77.0805 105.711 79.1755C108.639 83.368 114.362 86.0228 118.567 88.7705C121.624 90.77 124.235 86.3324 121.565 84.1213Z" fill="white"/>
</svg>
