<svg width="234" height="212" viewBox="0 0 234 212" fill="none" xmlns="http://www.w3.org/2000/svg">
<path d="M142.252 1.31575C151.385 28.0703 160.079 55.3409 155.745 83.9531C152.21 107.302 141.503 129.206 126.281 147.137C96.5083 182.2 44.4955 203.278 1.2547 180.497C-0.0610983 179.8 0.377467 178.097 1.46107 177.607C-0.499733 177.478 -0.499736 174.408 1.53846 174.408C4.22166 174.382 6.67265 174.098 8.94305 173.608C22.1011 165.249 18.7471 145.305 17.8183 131.631C16.9927 119.041 16.1155 106.476 15.3157 93.8861C14.3869 78.8963 13.6644 62.9261 19.8048 49.2005C19.7532 48.9425 19.8564 48.7361 20.0628 48.5813C21.5076 45.4337 23.3395 42.3893 25.6357 39.5255C52.6483 5.57274 104.713 18.7307 139.62 0.232115C140.678 -0.335485 141.865 0.18055 142.252 1.31575ZM153.268 71.9303C153.784 58.7465 151.643 45.6917 148.366 32.9723C146.818 27.0383 145.012 21.1817 143.155 15.3251C141.633 10.5779 141.349 7.99795 139.62 7.04335C131.674 25.0776 118.645 35.1911 101.539 45.2015C77.4421 59.3141 71.1469 84.3659 66.4513 110.063C62.8135 129.98 59.2014 152.246 44.3922 167.313C35.7234 176.111 24.7584 181.838 12.9678 182.096C55.7442 197.499 103.939 172.473 129.635 137.153C143.413 118.241 152.314 95.4341 153.268 71.9303ZM134.279 6.9917C134.099 7.0433 133.918 7.06915 133.712 7.12075C123.779 9.13315 114.388 13.1322 104.171 14.706C93.1801 16.4346 82.0345 17.3375 71.1211 19.6079C58.6081 22.1879 46.4562 26.7287 36.9876 34.1075C40.7544 33.7205 44.9082 34.7783 48.1848 36.1457C48.7524 36.3779 48.5203 37.3325 47.9011 37.1003C45.5791 36.3005 43.2055 35.7845 40.7287 35.6297C38.7421 35.5265 36.7812 35.8361 34.8204 35.8877C30.8731 39.3191 27.4417 43.2923 24.7843 47.9363C29.1703 47.7815 33.6078 48.6329 37.7874 50.0519C38.2776 50.2325 38.0712 50.9807 37.5552 50.8517C32.937 49.5875 28.4736 49.3554 23.8554 49.536C21.6882 53.6898 20.0887 58.3079 19.1857 63.5195C18.3859 68.1377 17.9473 72.8591 17.7667 77.6579C18.9535 77.7869 20.1403 78.3803 21.2497 78.7673C22.7977 79.3349 24.3457 79.9542 25.8937 80.5733C26.6161 80.8572 26.3322 82.0439 25.5324 81.8117C23.8554 81.2957 22.1785 80.8055 20.5015 80.2379C19.5985 79.9283 18.5922 79.6703 17.715 79.2575C17.1216 99.7169 20.9142 121.208 22.0752 141.048C22.6686 151.368 22.4623 162.591 17.0959 170.486C35.0269 159.986 35.9299 130.6 36.3685 111.172C36.7297 94.6085 38.7162 77.6579 45.5274 62.3843C51.8742 48.1685 62.1685 37.2035 76.6681 31.2437C95.9407 23.3489 120.58 24.0455 134.279 6.9917ZM114.697 32.9465C121.431 28.0703 126.978 21.9815 131.312 15.0671C120.631 23.6585 106.209 26.7029 92.535 30.1085C64.5678 37.1003 48.8299 54.4121 42.8443 82.3535C37.0909 109.237 47.0497 168.938 10.5169 176.73C9.43329 177.401 8.22068 177.968 6.95648 178.458C30.7183 182.148 48.5203 160.656 55.5895 139.758C61.5751 122.034 62.5555 103.097 67.7671 85.1657C72.0499 70.4855 78.9901 56.1923 91.4515 46.8011C98.7013 41.3315 107.344 38.2355 114.697 32.9465Z" fill="#2F1E12"/>
<path d="M148.366 32.9719C151.643 45.6913 153.784 58.7462 153.268 71.93C152.314 95.4338 143.413 118.241 129.635 137.152C103.939 172.473 55.7442 197.499 12.9678 182.096C24.7584 181.838 35.7234 176.11 44.3922 167.313C59.2014 152.245 62.8134 129.98 66.4512 110.062C71.1468 84.3656 77.442 59.3137 101.539 45.2011C118.645 35.1907 131.674 25.0772 139.62 7.04297C141.349 7.99757 141.632 10.5775 143.155 15.3247C145.012 21.1813 146.818 27.0379 148.366 32.9719ZM141.374 81.6565C142.639 72.0331 140.342 62.5129 136.008 53.9215C135.75 53.4313 135.002 53.87 135.234 54.3602C139.362 63.1064 140.523 72.0589 140.239 81.6565C140.213 82.4047 141.297 82.3531 141.374 81.6565ZM129.661 105.728C130.1 91.667 125.869 77.2189 120.631 64.3189C120.399 63.6997 119.367 63.9578 119.599 64.6028C124.604 78.2252 126.333 91.6411 128.345 105.909C128.449 106.683 129.635 106.45 129.661 105.728ZM112.375 138.391C113.33 114.552 105.538 92.1313 90.084 73.9681C89.697 73.5037 89.052 74.1745 89.4132 74.6389C103.964 93.2149 110.853 114.861 109.847 138.391C109.769 140.042 112.324 140.042 112.375 138.391ZM83.0406 150.646C85.182 140.971 80.925 129.129 75.7392 121.053C75.378 120.46 74.475 120.976 74.8104 121.595C77.1582 126.084 79.1448 130.625 80.28 135.579C81.441 140.584 81.1314 145.46 81.7506 150.465C81.828 151.136 82.86 151.446 83.0406 150.646Z" fill="#F5DE97"/>
<path d="M136.008 53.9222C140.343 62.5136 142.639 72.0338 141.375 81.6572C141.298 82.3538 140.214 82.4054 140.24 81.6572C140.524 72.0596 139.363 63.1071 135.235 54.3609C135.002 53.8707 135.75 53.432 136.008 53.9222Z" fill="#2F1E12"/>
<path d="M133.712 7.12026C133.918 7.06866 134.099 7.04281 134.279 6.99121C120.58 24.045 95.9405 23.3484 76.6679 31.2432C62.1683 37.203 51.8741 48.168 45.5273 62.3838C38.7161 77.6574 36.7295 94.608 36.3683 111.172C35.9297 130.599 35.0267 159.985 17.0957 170.486C22.4621 162.591 22.6685 151.368 22.0751 141.048C20.9141 121.208 17.1215 99.7164 17.7149 79.257C18.5921 79.6698 19.5983 79.9278 20.5013 80.2374C22.1783 80.805 23.8553 81.2952 25.5323 81.8112C26.3321 82.0434 26.6159 80.8567 25.8935 80.5729C24.3455 79.9537 22.7975 79.3344 21.2495 78.7668C20.1401 78.3798 18.9533 77.7864 17.7665 77.6574C17.9471 72.8587 18.3857 68.1372 19.1855 63.519C20.0885 58.3074 21.6881 53.6893 23.8553 49.5355C28.4735 49.3549 32.9369 49.587 37.5551 50.8512C38.0711 50.9802 38.2775 50.232 37.7873 50.0514C33.6077 48.6324 29.1701 47.781 24.7841 47.9358C27.4415 43.2918 30.8729 39.3186 34.8203 35.8872C36.7811 35.8356 38.7419 35.526 40.7285 35.6292C43.2053 35.784 45.5789 36.3 47.9009 37.0998C48.5201 37.332 48.7523 36.3775 48.1847 36.1453C44.9081 34.7779 40.7543 33.72 36.9875 34.107C46.4561 26.7282 58.6079 22.1874 71.1209 19.6074C82.0343 17.337 93.1799 16.4341 104.171 14.7055C114.387 13.1317 123.779 9.13266 133.712 7.12026Z" fill="#F5DE97"/>
<path d="M120.631 64.3192C125.869 77.2192 130.1 91.6672 129.661 105.728C129.635 106.451 128.449 106.683 128.345 105.909C126.333 91.6414 124.604 78.2254 119.599 64.603C119.367 63.958 120.399 63.7 120.631 64.3192Z" fill="#2F1E12"/>
<path d="M131.312 15.0674C126.978 21.9818 121.431 28.0706 114.697 32.9468C107.344 38.2358 98.7009 41.3318 91.451 46.8013C78.9897 56.1926 72.0495 70.4858 67.7667 85.166C62.5551 103.097 61.5747 122.034 55.5891 139.759C48.5199 160.657 30.7179 182.148 6.95605 178.459C8.22025 177.969 9.43287 177.401 10.5165 176.73C47.0493 168.939 37.0905 109.237 42.8439 82.3537C48.8295 54.4123 64.5674 37.1005 92.5346 30.1087C106.209 26.7031 120.631 23.6588 131.312 15.0674Z" fill="#F0D39D"/>
<path d="M90.0836 73.9683C105.538 92.1315 113.329 114.552 112.375 138.391C112.323 140.042 109.769 140.042 109.846 138.391C110.853 114.861 103.964 93.2151 89.4128 74.6391C89.0516 74.1747 89.6966 73.5039 90.0836 73.9683Z" fill="#2F1E12"/>
<path d="M75.7395 121.053C80.9253 129.128 85.1823 140.971 83.0409 150.646C82.8603 151.445 81.8283 151.136 81.7509 150.465C81.1317 145.46 81.4412 140.584 80.2802 135.578C79.145 130.625 77.1585 126.084 74.8107 121.595C74.4753 120.976 75.3783 120.46 75.7395 121.053Z" fill="#2F1E12"/>
<g opacity="0.6">
<path d="M40.7284 35.6292C43.2052 35.784 45.5788 36.3 47.9008 37.0998C48.52 37.332 48.7521 36.3774 48.1845 36.1452C45.2614 34.9249 41.6546 34.0141 38.2335 34.0915C37.9678 34.6281 37.7279 35.1752 37.4854 35.7221C38.5612 35.6421 39.6396 35.5724 40.7284 35.6292Z" fill="#2F1E12"/>
<path d="M12.968 182.096C14.276 182.068 15.5686 181.947 16.8535 181.787C16.8793 180.783 17.0598 179.795 17.3617 178.833C11.9076 181.547 5.03445 179.191 1.33473 174.449C-0.47901 174.663 -0.427381 177.483 1.46118 177.607C0.377579 178.097 -0.0609863 179.8 1.25481 180.497C6.67797 183.353 12.2378 185.52 17.8725 187.055C17.3823 185.873 17.0521 184.64 16.9154 183.397C15.5944 183.002 14.2786 182.568 12.968 182.096Z" fill="#2F1E12"/>
<path d="M142.251 1.31575C141.864 0.18055 140.677 -0.335485 139.62 0.232115C112.181 14.7704 74.1521 9.7652 46.0095 23.4392C43.5585 25.7715 41.3835 28.4547 39.5775 31.5688C39.3685 31.93 39.1854 32.3041 38.9868 32.6705C48.1406 26.1508 59.459 22.0125 71.118 19.6079C82.0314 17.3375 93.177 16.4346 104.168 14.706C114.385 13.1322 123.776 9.13315 133.709 7.12075C133.915 7.06915 134.096 7.0433 134.276 6.9917C120.577 24.0455 95.9376 23.3489 76.665 31.2437C62.1654 37.2035 51.8713 48.1685 45.5245 62.3843C38.7133 77.6579 36.7266 94.6085 36.3654 111.172C36.0816 123.719 35.576 140.393 30.4444 153.476C29.077 158.856 27.2374 164.137 24.7812 169.276C44.2344 150.564 38.0141 104.91 42.8412 82.351C48.8268 54.4096 64.5649 37.0978 92.5321 30.106C106.206 26.7004 120.628 23.6559 131.309 15.0645C126.975 21.9789 121.428 28.0678 114.694 32.944C107.341 38.233 98.6982 41.329 91.4484 46.7986C78.987 56.1898 72.0469 70.483 67.7641 85.1632C62.5525 103.094 61.5721 122.031 55.5865 139.756C53.5328 145.829 50.5657 151.949 46.817 157.488C49.8717 155.231 52.8568 152.888 55.7542 150.435C56.0741 149.741 56.3889 149.044 56.6907 148.34C55.5555 145.287 55.6045 141.673 57.5679 137.888C61.0122 131.242 63.3342 124.173 65.197 116.926C65.6253 114.616 66.0406 112.323 66.4534 110.063C67.986 101.68 69.7016 93.3753 72.1346 85.4883C74.5108 75.8442 77.6248 66.4556 82.9705 57.8745C88.4375 49.0999 100.102 41.2747 110.755 39.4868C123.368 31.1044 133.172 21.6823 139.622 7.04076C141.351 7.99536 141.635 10.5753 143.157 15.3225C145.014 21.1791 146.82 27.0357 148.368 32.9697C151.645 45.6891 153.786 58.7439 153.27 71.9277C152.316 95.4315 143.415 118.239 129.638 137.15C111.394 162.225 81.8095 182.094 50.8779 186.01C48.7468 187.331 46.5926 188.613 44.4125 189.854C75.486 188.35 106.033 170.987 126.286 147.135C141.508 129.204 152.215 107.3 155.75 83.9506C160.079 55.3409 151.384 28.0704 142.251 1.31575Z" fill="#2F1E12"/>
<path d="M72.1329 85.4902C69.6974 93.3773 67.9817 101.682 66.4518 110.065C66.039 112.325 65.6236 114.621 65.1953 116.928C67.8476 106.592 69.5684 95.8954 72.1329 85.4902Z" fill="#F5DE97"/>
<path d="M148.366 32.9719C146.818 27.0379 145.013 21.1813 143.155 15.3247C141.633 10.5775 141.349 7.99757 139.62 7.04297C133.168 21.6845 123.366 31.1066 110.753 39.489C121.411 37.7011 131.055 41.9555 132.458 57.3504C133.33 66.9325 131.202 77.1802 127.822 87.1829C129.114 93.3336 129.858 99.5644 129.664 105.728C129.638 106.45 128.451 106.683 128.348 105.909C127.665 101.058 127.004 96.311 126.246 91.6128C122.75 100.927 118.371 109.905 114.514 117.789C113.632 119.59 112.701 121.358 111.751 123.115C112.355 128.122 112.584 133.22 112.378 138.391C112.326 140.042 109.772 140.042 109.85 138.391C110.017 134.469 109.945 130.604 109.674 126.791C95.5048 151.355 74.8855 171.139 50.876 186.01C81.8102 182.093 111.392 162.225 129.636 137.15C143.413 118.238 152.314 95.4312 153.268 71.9274C153.784 58.7461 151.643 45.6913 148.366 32.9719ZM141.375 81.6565C141.297 82.3531 140.214 82.4047 140.24 81.6565C140.523 72.0589 139.362 63.1064 135.234 54.3602C135.002 53.87 135.75 53.4313 136.008 53.9215C140.343 62.5129 142.639 72.0331 141.375 81.6565Z" fill="#F5DE97"/>
<path d="M136.008 53.9222C140.343 62.5136 142.639 72.0338 141.375 81.6572C141.298 82.3538 140.214 82.4054 140.24 81.6572C140.524 72.0596 139.363 63.1071 135.235 54.3609C135.002 53.8707 135.75 53.432 136.008 53.9222Z" fill="#2F1E12"/>
<path d="M133.712 7.12092C123.779 9.13332 114.388 13.1323 104.171 14.7061C93.1802 16.4347 82.0346 17.3377 71.1212 19.6081C59.4596 22.0127 48.1438 26.151 38.9874 32.6706C38.732 33.1428 38.4687 33.6123 38.2314 34.0922C41.6524 34.0148 45.2619 34.9256 48.1825 36.1459C48.7501 36.3781 48.5178 37.3327 47.8986 37.1005C45.5766 36.3007 43.203 35.7847 40.7262 35.6299C39.6375 35.5731 38.5591 35.6402 37.4832 35.7228C35.6256 39.905 34.4052 44.34 33.6183 48.8911C35.0244 49.2188 36.4202 49.5903 37.7825 50.0547C38.2727 50.2353 38.0663 50.9835 37.5503 50.8545C36.1648 50.4752 34.7948 50.2121 33.4274 50.0031C32.1529 58.1275 32.1813 66.5719 32.3283 74.5337C32.8108 100.514 36.8872 128.118 30.4424 153.482C35.574 140.398 36.0796 123.721 36.3634 111.177C36.7246 94.6139 38.7113 77.6633 45.5225 62.3897C51.8693 48.1739 62.1635 37.2089 76.6631 31.2491C95.9357 23.3543 120.575 24.0509 134.274 6.99707C134.099 7.04351 133.918 7.06932 133.712 7.12092Z" fill="#F5DE97"/>
<path d="M126.243 91.6154C127.002 96.311 127.662 101.058 128.346 105.911C128.449 106.685 129.636 106.453 129.662 105.731C129.853 99.5669 129.112 93.3363 127.82 87.1855C127.317 88.6665 126.795 90.1448 126.243 91.6154Z" fill="#2F1E12"/>
<path d="M92.5348 30.1087C64.5676 37.1005 48.8297 54.4123 42.8441 82.3537C38.0169 104.913 44.2373 150.564 24.7841 169.279C24.3274 170.236 23.8423 171.186 23.3418 172.133C31.5514 167.925 39.3894 162.984 46.8172 157.491C50.5685 151.952 53.533 145.832 55.5867 139.759C61.5723 122.034 62.5527 103.097 67.7643 85.166C72.0471 70.4858 78.9873 56.1926 91.4487 46.8013C98.6985 41.3318 107.341 38.2358 114.694 32.9468C121.428 28.0706 126.975 21.9818 131.31 15.0674C120.631 23.6588 106.209 26.7031 92.5348 30.1087Z" fill="#F0D39D"/>
<path d="M109.672 126.794C109.943 130.607 110.015 134.469 109.847 138.393C109.77 140.045 112.324 140.045 112.376 138.393C112.582 133.223 112.353 128.125 111.749 123.117C111.078 124.358 110.376 125.576 109.672 126.794Z" fill="#2F1E12"/>
</g>
<path d="M98.0948 70.4731C65.0037 83.8555 72.0626 129.687 59.111 156.666C58.3602 158.227 60.2669 159.932 61.6033 158.588C83.8352 136.284 69.9857 93.9201 101.485 78.5123C105.894 76.358 102.744 68.5948 98.0948 70.4731Z" fill="white"/>
<path d="M233.69 90.8963C227.108 118.389 219.879 146.085 200.921 167.951C185.454 185.794 164.695 198.583 142.247 205.601C98.343 219.318 43.1155 209.329 18.75 166.962C18.0095 165.67 19.2918 164.465 20.4683 164.63C18.879 163.474 20.5224 160.879 22.2433 161.968C24.524 163.379 26.748 164.45 28.9281 165.249C44.5164 165.218 52.3442 146.57 58.8664 134.516C64.8984 123.435 70.8737 112.346 76.929 101.278C84.1556 88.1126 92.0839 74.2296 104.61 65.9116C104.703 65.6665 104.901 65.5453 105.159 65.5272C108.062 63.6387 111.238 62.0468 114.71 60.8523C155.689 46.5978 192.657 85.548 232.046 88.5743C233.241 88.6595 233.968 89.7302 233.69 90.8963ZM205.253 156.464C212.738 145.597 217.905 133.42 221.935 120.92C223.798 115.076 225.403 109.163 226.964 103.218C228.215 98.3938 229.355 96.0616 228.403 94.3304C212.046 105.324 195.63 106.908 175.823 106.224C147.913 105.27 129.202 123.077 111.498 142.285C97.7779 157.174 82.8217 174.06 62.2539 178.877C50.226 181.679 37.8961 180.657 27.7929 174.574C55.711 210.456 109.821 215.069 150.418 198.954C172.167 190.337 191.883 175.82 205.253 156.464ZM223.917 91.433C223.736 91.3788 223.571 91.3065 223.367 91.2395C213.896 87.63 203.821 85.9892 194.347 81.8586C184.136 77.4442 174.231 72.2507 163.795 68.3342C151.842 63.827 139.143 61.167 127.198 62.3435C130.588 64.0308 133.534 67.1449 135.572 70.05C135.928 70.5505 135.221 71.2316 134.822 70.7053C133.286 68.7883 131.555 67.083 129.545 65.6279C127.923 64.4798 126.099 63.6928 124.414 62.6866C119.244 63.4761 114.22 65.0009 109.491 67.5035C113.281 69.7171 116.576 72.808 119.349 76.2419C119.667 76.6573 119.094 77.1785 118.725 76.794C115.497 73.2569 111.849 70.6743 107.85 68.3601C103.797 70.713 99.9787 73.76 96.4286 77.6816C93.2836 81.1569 90.3889 84.9133 87.6721 88.871C88.6061 89.6141 89.2923 90.7493 90.0225 91.6704C91.0286 92.9784 92.0039 94.3277 92.9817 95.6797C93.441 96.3066 92.5663 97.158 92.0142 96.5336C90.8739 95.2023 89.718 93.8892 88.6035 92.514C88.0049 91.7684 87.2929 91.0124 86.7717 90.1972C75.3346 107.171 67.0501 127.362 57.4267 144.751C52.4112 153.792 46.2373 163.165 37.4834 166.968C58.2498 167.677 74.7231 143.325 85.4765 127.14C94.6355 113.335 105.376 100.071 119.295 90.8035C132.257 82.1811 146.819 78.4169 162.26 81.131C182.771 84.7637 203.223 98.5228 223.917 91.433ZM193.493 102.901C201.791 102.38 209.734 100.2 217.093 96.673C203.473 98.2236 189.657 93.0894 176.28 88.6569C148.906 79.6166 126.351 85.8344 106.356 106.25C87.1226 125.894 63.6265 181.674 28.5875 168.732C27.313 168.719 25.9843 168.552 24.6556 168.289C42.7646 184.109 69.2999 175.461 86.444 161.578C100.977 149.798 111.929 134.318 125.918 121.949C137.383 111.833 150.89 103.461 166.442 102.186C175.493 101.436 184.45 103.44 193.493 102.901Z" fill="#2F1E12"/>
<path d="M221.935 120.92C217.905 133.42 212.737 145.597 205.253 156.464C191.883 175.817 172.169 190.334 150.415 198.954C109.816 215.069 55.7082 210.458 27.79 174.573C37.8933 180.657 50.2206 181.679 62.2512 178.877C82.8215 174.06 97.7751 157.171 111.496 142.284C129.2 123.076 147.912 105.269 175.82 106.224C195.627 106.908 212.046 105.323 228.401 94.3301C229.35 96.0613 228.212 98.3935 226.961 103.218C225.403 109.162 223.798 115.076 221.935 120.92ZM190.002 158.327C196.215 150.871 199.363 141.596 200.291 132.019C200.335 131.467 199.468 131.438 199.404 131.975C198.217 141.572 194.414 149.759 189.043 157.721C188.62 158.34 189.564 158.874 190.002 158.327ZM167.234 172.411C175.121 160.762 179.267 146.289 181.736 132.589C181.87 131.941 180.861 131.608 180.712 132.277C177.66 146.464 171.95 158.727 166.024 171.862C165.699 172.569 166.826 173.007 167.234 172.411ZM135.167 190.776C148.717 171.139 154.117 148.025 150.766 124.413C150.688 123.814 149.783 124.036 149.84 124.622C152.208 148.1 146.46 170.076 133.031 189.424C132.081 190.778 134.241 192.143 135.167 190.776ZM103.823 185.451C110.804 178.417 113.536 166.134 113.469 156.536C113.482 155.842 112.442 155.796 112.393 156.498C111.978 161.547 111.23 166.446 109.543 171.24C107.847 176.09 104.981 180.045 102.827 184.607C102.535 185.218 103.242 186.031 103.823 185.451Z" fill="#F5DE97"/>
<path d="M200.292 132.019C199.363 141.596 196.213 150.871 190.003 158.327C189.564 158.874 188.623 158.34 189.043 157.721C194.412 149.761 198.218 141.575 199.404 131.975C199.469 131.438 200.336 131.466 200.292 132.019Z" fill="#2F1E12"/>
<path d="M223.368 91.2372C223.569 91.3043 223.736 91.379 223.917 91.4306C203.223 98.5205 182.771 84.7613 162.263 81.1313C146.824 78.4171 132.263 82.1814 119.298 90.8037C105.376 100.071 94.6385 113.335 85.4795 127.14C74.7234 143.325 58.2527 167.677 37.4863 166.968C46.2428 163.165 52.4142 153.789 57.4297 144.752C67.0531 127.362 75.3374 107.174 86.7746 90.1974C87.2957 91.0153 88.0079 91.7712 88.6064 92.5143C89.721 93.8894 90.8768 95.2 92.0172 96.5339C92.5693 97.1582 93.4439 96.3068 92.9847 95.6799C92.0069 94.3306 91.029 92.9787 90.0254 91.6706C89.2953 90.7496 88.609 89.6143 87.675 88.8713C90.3917 84.9135 93.2865 81.1571 96.4315 77.6819C99.9816 73.7603 103.8 70.7107 107.853 68.3603C111.852 70.6772 115.5 73.2571 118.728 76.7943C119.094 77.1787 119.67 76.6576 119.352 76.2422C116.579 72.8082 113.284 69.7174 109.494 67.5038C114.223 64.9986 119.247 63.4764 124.417 62.6869C126.102 63.6905 127.923 64.4774 129.548 65.6281C131.558 67.0832 133.289 68.7886 134.825 70.7055C135.224 71.2318 135.931 70.5507 135.575 70.0502C133.537 67.1426 130.593 64.0285 127.201 62.3438C139.146 61.1699 151.845 63.8272 163.798 68.3345C174.234 72.2483 184.136 77.4445 194.35 81.8589C203.824 85.9894 213.899 87.6303 223.368 91.2372Z" fill="#F5DE97"/>
<path d="M181.739 132.587C179.27 146.289 175.121 160.76 167.237 172.409C166.829 173.005 165.702 172.566 166.027 171.857C171.953 158.722 177.663 146.459 180.715 132.272C180.862 131.606 181.873 131.939 181.739 132.587Z" fill="#2F1E12"/>
<path d="M217.092 96.6703C209.734 100.197 201.79 102.377 193.493 102.898C184.45 103.438 175.492 101.433 166.442 102.181C150.889 103.458 137.383 111.828 125.918 121.944C111.929 134.313 100.977 149.793 86.4437 161.573C69.297 175.456 42.7643 184.104 24.6553 168.283C25.9866 168.544 27.3127 168.714 28.5872 168.727C63.6288 181.671 87.1249 125.891 106.356 106.245C126.351 85.8292 148.906 79.6114 176.279 88.6517C189.657 93.0867 203.473 98.2235 217.092 96.6703Z" fill="#F0D39D"/>
<path d="M150.763 124.414C154.114 148.026 148.715 171.137 135.164 190.776C134.238 192.144 132.079 190.779 133.028 189.424C146.457 170.077 152.205 148.101 149.837 124.623C149.78 124.037 150.686 123.815 150.763 124.414Z" fill="#2F1E12"/>
<path d="M113.473 156.539C113.54 166.137 110.807 178.42 103.826 185.453C103.245 186.034 102.538 185.219 102.833 184.61C104.984 180.048 107.853 176.093 109.548 171.243C111.238 166.449 111.986 161.55 112.399 156.501C112.446 155.799 113.483 155.845 113.473 156.539Z" fill="#2F1E12"/>
<g opacity="0.6">
<path d="M129.546 65.6284C131.556 67.0835 133.287 68.7889 134.822 70.7058C135.222 71.2321 135.926 70.551 135.573 70.0505C133.754 67.4576 131.192 64.7563 128.261 62.9941C127.75 63.3063 127.255 63.6391 126.757 63.972C127.709 64.4802 128.656 65.0014 129.546 65.6284Z" fill="#2F1E12"/>
<path d="M27.7901 174.574C28.9098 175.25 30.0683 175.838 31.2396 176.39C31.7969 175.557 32.478 174.817 33.2494 174.166C27.189 173.545 22.6405 167.879 22.0471 161.893C20.401 161.106 18.9356 163.516 20.4655 164.631C19.2865 164.466 18.0068 165.67 18.7473 166.963C21.802 172.275 25.3443 177.079 29.2866 181.39C29.5059 180.129 29.8825 178.911 30.4321 177.786C29.5265 176.744 28.6467 175.676 27.7901 174.574Z" fill="#2F1E12"/>
<path d="M233.69 90.8967C233.968 89.7305 233.243 88.6598 232.044 88.5747C201.084 86.1959 171.617 61.6369 140.526 58.1514C137.208 58.8118 133.937 59.9186 130.745 61.5827C130.374 61.7762 130.02 61.993 129.656 62.1968C140.879 61.5802 152.655 64.1318 163.795 68.332C174.231 72.2459 184.133 77.442 194.347 81.8564C203.824 85.987 213.899 87.6279 223.367 91.2373C223.568 91.3044 223.736 91.3792 223.917 91.4308C203.222 98.5206 182.771 84.7614 162.262 81.1314C146.824 78.4172 132.262 82.1815 119.298 90.8039C105.376 100.071 94.638 113.335 85.479 127.141C78.5337 137.592 69.1915 151.413 57.8627 159.729C53.8302 163.544 49.4545 167.022 44.6299 170.056C71.0749 164.641 90.2185 122.731 106.356 106.245C126.351 85.8296 148.906 79.6118 176.28 88.6521C189.657 93.0845 203.473 98.2187 217.093 96.6682C209.734 100.195 201.791 102.375 193.493 102.896C184.453 103.435 175.493 101.433 166.442 102.179C150.89 103.454 137.383 111.826 125.918 121.942C111.929 134.31 100.977 149.79 86.4439 161.571C81.462 165.606 75.6828 169.192 69.5527 171.87C73.3401 171.594 77.1173 171.212 80.8737 170.686C81.5162 170.27 82.1534 169.852 82.7855 169.416C83.4563 166.23 85.4326 163.201 89.1143 161.049C95.5772 157.275 101.318 152.541 106.767 147.409C108.364 145.688 109.94 143.97 111.498 142.28C117.272 136.016 123.162 129.914 129.434 124.55C136.599 117.669 144.246 111.4 153.351 107.006C162.662 102.512 176.703 102.135 186.661 106.317C201.803 105.974 215.124 103.252 228.403 94.3281C229.353 96.0593 228.215 98.3917 226.964 103.216C225.403 109.158 223.798 115.074 221.935 120.918C217.905 133.418 212.737 145.595 205.253 156.462C191.883 175.817 172.167 190.333 150.415 198.952C121.594 210.392 85.9692 211.37 57.7337 198.145C55.2285 198.122 52.7208 198.054 50.213 197.938C77.2798 213.276 112.376 214.93 142.242 205.598C164.69 198.581 185.449 185.792 200.916 167.948C219.876 146.086 227.106 118.392 233.69 90.8967Z" fill="#2F1E12"/>
<path d="M129.434 124.556C123.162 129.919 117.272 136.021 111.498 142.285C109.94 143.975 108.364 145.694 106.767 147.414C114.532 140.1 121.705 131.978 129.434 124.556Z" fill="#F5DE97"/>
<path d="M221.935 120.921C223.798 115.077 225.402 109.163 226.963 103.219C228.215 98.3945 229.352 96.0622 228.403 94.3311C215.124 103.258 201.803 105.98 186.661 106.32C196.625 110.505 202.5 119.256 195.456 133.018C191.073 141.584 183.795 149.104 175.59 155.753C173.397 161.643 170.691 167.306 167.234 172.412C166.826 173.008 165.699 172.572 166.026 171.863C168.041 167.397 170.02 163.031 171.891 158.658C163.96 164.662 155.456 169.91 147.982 174.51C146.274 175.562 144.54 176.556 142.801 177.533C140.634 182.09 138.103 186.52 135.164 190.779C134.238 192.147 132.079 190.782 133.028 189.427C135.268 186.202 137.272 182.897 139.081 179.53C113.977 192.717 85.9741 198.416 57.7334 198.148C85.9689 211.373 121.594 210.397 150.415 198.955C172.167 190.335 191.88 175.82 205.253 156.465C212.735 145.601 217.905 133.421 221.935 120.921ZM190.002 158.328C189.564 158.875 188.622 158.341 189.042 157.722C194.411 149.762 198.217 141.576 199.404 131.978C199.471 131.439 200.338 131.47 200.291 132.022C199.363 141.597 196.215 150.872 190.002 158.328Z" fill="#F5DE97"/>
<path d="M200.292 132.02C199.363 141.596 196.213 150.872 190.003 158.328C189.564 158.875 188.623 158.341 189.043 157.722C194.412 149.762 198.218 141.576 199.404 131.976C199.469 131.439 200.336 131.467 200.292 132.02Z" fill="#2F1E12"/>
<path d="M223.367 91.2374C213.896 87.628 203.821 85.9897 194.348 81.8565C184.136 77.4421 174.231 72.2486 163.795 68.3321C152.655 64.1319 140.877 61.5803 129.657 62.1969C129.19 62.4601 128.715 62.7155 128.258 62.9941C131.192 64.7563 133.754 67.4576 135.57 70.0505C135.926 70.551 135.219 71.2321 134.819 70.7058C133.284 68.7888 131.553 67.0835 129.543 65.6284C128.656 64.9989 127.706 64.4802 126.754 63.9719C122.949 66.5132 119.546 69.6092 116.45 73.0355C117.464 74.0623 118.444 75.1253 119.35 76.245C119.667 76.6604 119.091 77.1816 118.725 76.7971C117.758 75.7368 116.739 74.7822 115.696 73.874C110.276 80.0583 105.786 87.2101 101.656 94.0187C88.1754 116.235 76.8672 141.741 57.8604 159.731C69.1917 151.416 78.5313 137.595 85.4767 127.143C94.6357 113.338 105.376 100.074 119.295 90.8065C132.26 82.1842 146.819 78.42 162.26 81.1341C182.769 84.7642 203.22 98.5233 223.914 91.4335C223.736 91.3793 223.571 91.3045 223.367 91.2374Z" fill="#F5DE97"/>
<path d="M171.891 158.655C170.02 163.031 168.042 167.394 166.027 171.859C165.699 172.569 166.826 173.008 167.234 172.409C170.691 167.303 173.395 161.64 175.591 155.75C174.373 156.738 173.142 157.708 171.891 158.655Z" fill="#2F1E12"/>
<path d="M176.28 88.6546C148.906 79.6143 126.351 85.8321 106.356 106.248C90.2185 122.731 71.0723 164.641 44.6299 170.059C43.732 170.624 42.8161 171.168 41.8848 171.702C51.0721 172.536 60.3369 172.548 69.5527 171.878C75.6828 169.2 81.462 165.613 86.4439 161.578C100.977 149.798 111.929 134.318 125.918 121.95C137.383 111.833 150.89 103.461 166.442 102.187C175.493 101.439 184.453 103.443 193.493 102.904C201.791 102.383 209.734 100.203 217.093 96.6759C203.473 98.2239 189.657 93.0871 176.28 88.6546Z" fill="#F0D39D"/>
<path d="M139.081 179.527C137.272 182.894 135.268 186.196 133.028 189.424C132.081 190.779 134.238 192.143 135.164 190.776C138.103 186.516 140.634 182.087 142.801 177.53C141.571 178.219 140.327 178.874 139.081 179.527Z" fill="#2F1E12"/>
</g>
<path d="M159.401 125.742C124.28 119.362 105.747 161.87 80.3809 177.747C78.9129 178.666 79.6121 181.124 81.4593 180.704C112.172 173.738 123.111 130.53 157.969 134.346C162.848 134.883 164.337 126.637 159.401 125.742Z" fill="white"/>
</svg>
