<svg width="42" height="43" viewBox="0 0 42 43" fill="none" xmlns="http://www.w3.org/2000/svg">
<path d="M20.7548 0C9.29102 0 0 9.43251 0 21.0709C0 32.7093 9.29102 42.1418 20.7548 42.1418C32.2186 42.1418 41.5096 32.7093 41.5096 21.0709C41.5096 9.43251 32.2186 0 20.7548 0ZM25.3355 17.4987L25.1004 20.6511H21.9142V31.5981H17.8929V20.6511H15.7445V17.4987H17.8929V15.3834C17.8929 14.4533 17.9172 13.0129 18.582 12.1158C19.2874 11.1692 20.2522 10.5272 21.9142 10.5272C24.622 10.5272 25.7571 10.9223 25.7571 10.9223L25.222 14.1488C25.222 14.1488 24.3302 13.8854 23.4951 13.8854C22.66 13.8854 21.9142 14.1899 21.9142 15.0377V17.4987H25.3355Z" fill="white"/>
</svg>
