<svg width="265" height="156" viewBox="0 0 265 156" fill="none" xmlns="http://www.w3.org/2000/svg">
<path d="M130.009 11.17C126.352 15.495 126.027 23.5817 129.235 28.3459C132.453 33.1101 144.502 37.0914 149.829 30.3604C155.166 23.6294 152.789 15.5427 145.953 13.2704C139.107 11.0077 136.195 14.1392 134.152 16.4497C132.109 18.7698 132.376 26.1022 138.353 27.4962C144.33 28.8997 146.488 23.9922 146.65 23.5626C146.812 23.133 147.08 16.8794 141.857 17.309C136.625 17.7386 136.74 21.7295 137.761 24.0973C137.761 24.0973 135.441 23.4767 135.537 20.0873C135.699 14.5498 141.532 14.7025 141.532 14.7025C146.297 14.3684 153.285 20.3547 147.633 27.2288C141.981 34.0935 132.224 29.1097 130.677 22.6842C129.13 16.2588 134.773 8.50621 143.747 9.94788C152.732 11.3896 156.493 18.4738 155.835 28.0117C155.166 37.5401 149.295 46.0756 149.295 46.0756C152.178 46.1806 157.715 41.7601 158.05 38.7622C158.384 35.7643 162.594 31.0001 162.594 31.0001L162.04 27.8972C160.818 19.0276 154.727 13.385 150.736 9.94788C146.745 6.51079 146.344 2.12849 145.972 2.10939C145.6 2.09985 145.39 5.81383 140.434 6.39622C136.081 6.91179 132.825 7.67559 130.009 11.17Z" fill="#422A1A"/>
<path d="M117.424 26.2837C117.797 31.8212 119.048 34.6377 119.048 34.6377C119.048 34.6377 122.895 37.2919 126.074 38.8482C129.244 40.4044 132.576 44.0993 132.72 44.9777C132.72 44.9777 138.333 47.3454 145.274 46.9731C145.274 46.9731 150.306 42.4667 152.664 31.1624C152.664 31.1624 146.983 37.0055 141.436 36.4136C135.899 35.8216 125.177 33.387 124.518 21.7868C124.089 14.3207 127.507 9.89062 127.507 9.89062C127.507 9.89062 116.68 15.0845 117.424 26.2837Z" fill="#422A1A"/>
<path d="M115.868 32.7956C115.868 32.7956 113.281 22.5989 117.128 16.8418C117.128 16.8418 122.59 6.20587 134.705 4.72601C146.821 3.24615 142.544 0.515565 142.907 0H142.544C142.544 0 143.203 2.14819 140.253 2.36778C137.293 2.58737 129.321 2.58737 125.845 2.95972C125.845 2.95972 114.913 3.99085 107.963 10.7887L108.412 20.3171C108.412 20.3075 108.335 26.0647 115.868 32.7956Z" fill="#422A1A"/>
<path d="M108.641 54.4019C110.408 44.4916 121.015 44.3102 121.015 44.3102C125.245 43.5751 128.729 44.2911 128.863 44.1288C128.997 43.976 128.567 43.7469 128.567 43.7469C128.567 43.7469 127.097 41.4173 118.781 37.7224C108.307 33.0633 105.854 20.6133 105.854 20.6133L105.204 10.0252C105.204 10.0252 105.157 9.84375 104.985 9.84375C104.813 9.84375 104.813 9.96787 104.813 9.96787C104.813 9.96787 104.612 10.5216 104.641 11.7723C104.803 18.7516 97.2035 17.6822 97.1176 35.2974C97.0412 50.812 107.925 59.653 107.925 59.653C109.042 60.5409 108.594 59.3762 108.594 59.3762C108.135 57.3425 108.641 54.4019 108.641 54.4019Z" fill="#422A1A"/>
<path d="M158.346 42.7628C152.14 52.6635 137.656 49.1882 134.706 48.3767C134.706 48.3767 128.796 46.2285 122.743 46.7536C105.768 48.2048 112.394 63.1562 112.394 63.1562C112.394 63.1562 117.712 67.5958 127.612 68.035C140.244 68.5983 148.302 61.9723 148.302 61.9723C160.408 53.2555 161.745 43.2115 163.807 37.378C165.879 31.5349 167.645 30.2842 167.645 30.2842C164.112 31.2389 164.552 32.862 158.346 42.7628Z" fill="#422A1A"/>
<path d="M0 113.634C1.63262 113.624 2.69239 113.328 3.18886 112.765C3.67578 112.202 3.92402 111.352 3.92402 110.216V89.8222C3.92402 88.6574 3.64714 87.8936 3.08384 87.5213C2.52054 87.1585 1.53715 86.9102 0.105021 86.8052V85.7168H10.9223L19.3719 105.585H19.7251L28.1174 85.7168H38.9347V86.8052C37.4835 86.9198 36.4905 87.1871 35.9559 87.6072C35.4212 88.0273 35.1634 89.068 35.1634 90.7197V109.7C35.1634 111.275 35.4307 112.316 35.9559 112.803C36.4905 113.29 37.4739 113.567 38.9347 113.624V114.713H24.6803V113.624C25.9501 113.586 26.9048 113.366 27.5541 112.984C28.1937 112.603 28.5184 111.762 28.5184 110.464V89.4881H28.2033L17.682 114.722H16.5267L5.90035 89.9941H5.7094V109.395C5.7094 110.827 5.97673 111.877 6.50184 112.536C7.0365 113.194 8.21084 113.557 10.0249 113.634V114.722H0V113.634Z" fill="#422A1A"/>
<path d="M43.7943 106.112C45.656 104.975 48.568 103.839 52.5302 102.694V99.5716C52.5302 98.3017 52.2629 97.3565 51.7187 96.755C51.184 96.144 50.2293 95.848 48.8544 95.848C48.0906 95.848 47.451 95.9912 46.9545 96.2777C46.458 96.5641 46.2098 96.9269 46.2098 97.3565C46.2098 97.5284 46.2384 97.6621 46.2957 97.7766C46.353 97.8912 46.4389 98.0058 46.5439 98.1299L46.7922 98.4258C46.9831 98.6645 47.1454 98.9223 47.26 99.2087C47.3746 99.4952 47.4414 99.8007 47.4414 100.116C47.4414 100.927 47.1741 101.548 46.6299 101.987C46.0952 102.426 45.4651 102.646 44.7586 102.646C43.9375 102.646 43.231 102.398 42.6486 101.911C42.0662 101.424 41.7797 100.717 41.7797 99.8007C41.7797 98.1585 42.5531 96.8505 44.1093 95.8958C45.656 94.9315 47.5655 94.4541 49.8283 94.4541C52.2629 94.4541 54.287 94.9219 55.9291 95.8576C57.5522 96.8123 58.3637 98.55 58.3637 101.099V111.496C58.3637 111.802 58.4401 112.069 58.6024 112.279C58.7647 112.499 58.9366 112.604 59.1371 112.604C59.3089 112.604 59.4522 112.575 59.5858 112.508C59.7195 112.442 59.92 112.27 60.2064 111.993L60.8556 112.89C60.0155 113.864 59.0893 114.552 58.0678 114.943C57.4281 115.191 56.7502 115.315 56.0342 115.315C54.7643 115.315 53.8382 114.943 53.2463 114.198C52.9121 113.778 52.6639 113.158 52.5111 112.327C51.3272 113.52 49.981 114.361 48.4916 114.848C47.5846 115.153 46.6872 115.306 45.8088 115.306C44.6344 115.306 43.5365 114.933 42.5149 114.179C41.4933 113.435 40.9873 112.27 40.9873 110.685C41.0064 108.785 41.9325 107.248 43.7943 106.112ZM51.27 111.64C51.6041 111.391 52.0051 111 52.4634 110.465V104.183C51.3177 104.46 50.3152 104.909 49.4464 105.51C47.9761 106.532 47.2505 107.84 47.2505 109.415C47.2505 110.351 47.4605 111.067 47.8901 111.544C48.3198 112.031 48.7972 112.27 49.3223 112.27C50.0288 112.27 50.678 112.06 51.27 111.64Z" fill="#422A1A"/>
<path d="M64.885 97.4031C66.4986 95.4364 68.4367 94.4625 70.6994 94.4625C71.8356 94.4625 72.8381 94.7394 73.7165 95.3027C74.2607 95.6369 74.9481 96.2383 75.7692 97.1072V89.2496C75.7692 88.1612 75.5591 87.4928 75.139 87.2351C74.7189 86.9773 73.8501 86.815 72.5421 86.7577V85.7266H81.7841V110.435C81.7841 111.323 81.9559 111.934 82.2901 112.278C82.6243 112.622 83.283 112.832 84.2569 112.908V113.892C81.8509 114.13 80.3042 114.312 79.6073 114.426C78.9103 114.541 77.6787 114.846 75.9219 115.333V112.507C75.1104 113.347 74.3752 113.968 73.6974 114.369C72.6376 115.009 71.4919 115.333 70.2603 115.333C68.1694 115.333 66.3458 114.445 64.7895 112.67C63.2429 110.894 62.46 108.488 62.46 105.442C62.4695 102.043 63.2715 99.3699 64.885 97.4031ZM74.6712 111.658C75.4064 110.836 75.7787 110.254 75.7787 109.92V99.4845C75.7787 99.1312 75.4636 98.6157 74.8335 97.9378C74.2034 97.2504 73.3727 96.9067 72.3321 96.9067C70.8045 96.9067 69.7638 97.9664 69.2196 100.067C68.9236 101.203 68.7804 102.797 68.7804 104.869C68.7804 107.075 68.9236 108.736 69.2005 109.853C69.7161 111.877 70.7185 112.889 72.1889 112.889C73.1054 112.899 73.936 112.488 74.6712 111.658Z" fill="#422A1A"/>
<path d="M88.8197 97.1935C90.5764 95.3699 92.6864 94.4629 95.1688 94.4629C96.5818 94.4629 97.9089 94.8352 99.1596 95.5704C100.401 96.3151 101.365 97.3367 102.033 98.6542C102.539 99.6472 102.883 100.936 103.084 102.511C103.179 103.256 103.227 103.819 103.227 104.211H92.2663C92.3618 105.929 92.6482 107.419 93.1065 108.67C93.9467 111.028 95.4265 112.212 97.5365 112.212C98.5486 112.212 99.4938 111.897 100.391 111.266C100.935 110.885 101.613 110.254 102.425 109.357L103.408 109.968C102.081 112.145 100.544 113.663 98.7968 114.513C97.6607 115.057 96.3622 115.334 94.8919 115.334C92.7819 115.334 90.796 114.503 88.9533 112.842C87.1107 111.181 86.1846 108.526 86.1846 104.879C86.1846 101.576 87.0629 99.017 88.8197 97.1935ZM97.9375 102.607C97.9089 100.077 97.7084 98.3105 97.3456 97.308C96.9828 96.3056 96.2476 95.7995 95.1592 95.7995C94.0422 95.7995 93.2688 96.3819 92.8583 97.5372C92.4477 98.6924 92.209 100.392 92.1518 102.607H97.9375Z" fill="#422A1A"/>
<path d="M115.706 113.692C116.46 113.568 116.976 113.377 117.253 113.128C117.673 112.756 117.883 112.078 117.883 111.095V98.4826C117.883 97.6138 117.74 97.0123 117.444 96.6972C117.148 96.3821 116.575 96.1435 115.706 95.9907V94.9596H123.946V111.267C123.946 112.202 124.089 112.804 124.366 113.071C124.643 113.338 125.168 113.549 125.941 113.701V114.732H115.716V113.692H115.706ZM118.57 86.0422C119.22 85.393 120.002 85.0684 120.929 85.0684C121.836 85.0684 122.618 85.393 123.268 86.0422C123.917 86.6914 124.242 87.4743 124.242 88.4004C124.242 89.3265 123.917 90.1094 123.268 90.7587C122.618 91.4079 121.836 91.7325 120.929 91.7325C120.002 91.7325 119.22 91.4079 118.57 90.7587C117.921 90.1094 117.596 89.3265 117.596 88.4004C117.596 87.4839 117.921 86.6914 118.57 86.0422Z" fill="#422A1A"/>
<path d="M127.631 113.692C128.414 113.596 128.987 113.376 129.359 113.052C129.731 112.727 129.913 112.068 129.913 111.095V98.4824C129.913 97.6136 129.76 97.0025 129.464 96.6684C129.158 96.3342 128.557 96.1051 127.631 95.9905V94.9594H135.765V98.0432C136.453 97.0121 137.322 96.1528 138.372 95.4749C139.422 94.7971 140.596 94.4629 141.885 94.4629C143.728 94.4629 145.16 94.9403 146.172 95.8855C147.184 96.8402 147.69 98.5015 147.69 100.898V111.266C147.69 112.231 147.852 112.851 148.187 113.128C148.511 113.405 149.065 113.596 149.829 113.692V114.723H139.747V113.692C140.51 113.539 141.036 113.329 141.322 113.061C141.599 112.794 141.742 112.193 141.742 111.257V100.86C141.742 99.8859 141.647 99.1507 141.446 98.6542C141.112 97.7759 140.444 97.3367 139.46 97.3367C138.715 97.3367 138.038 97.604 137.417 98.1482C136.796 98.6829 136.319 99.2271 135.985 99.7713V111.257C135.985 112.193 136.128 112.794 136.405 113.061C136.682 113.329 137.207 113.539 137.98 113.692V114.723H127.631V113.692Z" fill="#422A1A"/>
<path d="M162.231 113.634C163.444 113.605 164.322 113.462 164.847 113.195C165.716 112.746 166.146 111.887 166.146 110.617V89.832C166.146 88.5717 165.735 87.722 164.914 87.2924C164.408 87.025 163.52 86.8723 162.231 86.815V85.7266H177.23V86.815C175.894 86.8723 174.968 87.025 174.462 87.2733C173.621 87.7029 173.201 88.5526 173.201 89.832V110.617C173.201 111.82 173.535 112.622 174.204 113.023C174.872 113.424 175.884 113.634 177.221 113.634V114.722H162.222V113.634H162.231Z" fill="#422A1A"/>
<path d="M178.929 96.8506V95.6572C179.311 95.3039 179.769 94.8934 180.332 94.416C181.077 93.7286 181.774 93.0221 182.433 92.2964C183.731 90.8739 184.915 89.3367 185.975 87.7041H187.063V94.9506H191.15V96.8411H187.063V109.749C187.063 110.351 187.149 110.857 187.34 111.258C187.617 111.888 188.085 112.203 188.724 112.203C189.288 112.203 189.756 112.002 190.128 111.601C190.51 111.2 190.882 110.656 191.264 109.959L192.295 110.465C191.789 111.64 191.197 112.594 190.491 113.339C189.259 114.638 187.76 115.287 185.994 115.287C184.991 115.287 184.113 115.096 183.359 114.724C181.908 113.998 181.182 112.68 181.172 110.761V96.8506H178.929Z" fill="#422A1A"/>
<path d="M196.411 106.112C198.272 104.975 201.184 103.839 205.147 102.694V99.5716C205.147 98.3017 204.879 97.3565 204.345 96.755C203.81 96.144 202.855 95.848 201.48 95.848C200.717 95.848 200.077 95.9912 199.58 96.2777C199.084 96.5641 198.836 96.9269 198.836 97.3565C198.836 97.5284 198.864 97.6621 198.922 97.7766C198.979 97.8912 199.065 98.0058 199.17 98.1299L199.418 98.4258C199.609 98.6645 199.771 98.9223 199.886 99.2087C200.001 99.4952 200.067 99.8007 200.067 100.116C200.067 100.927 199.8 101.548 199.256 101.987C198.721 102.426 198.091 102.646 197.385 102.646C196.563 102.646 195.857 102.398 195.275 101.911C194.692 101.424 194.406 100.717 194.406 99.8007C194.406 98.1585 195.179 96.8505 196.735 95.8958C198.282 94.9315 200.192 94.4541 202.454 94.4541C204.889 94.4541 206.913 94.9219 208.555 95.8576C210.178 96.8123 210.99 98.55 210.99 101.099V111.496C210.99 111.802 211.066 112.069 211.228 112.279C211.391 112.499 211.563 112.604 211.763 112.604C211.935 112.604 212.078 112.575 212.212 112.508C212.345 112.442 212.546 112.27 212.832 111.993L213.482 112.89C212.641 113.864 211.715 114.552 210.694 114.943C210.054 115.191 209.376 115.315 208.66 115.315C207.39 115.315 206.464 114.943 205.872 114.198C205.538 113.778 205.29 113.158 205.137 112.327C203.953 113.52 202.607 114.361 201.118 114.848C200.211 115.153 199.313 115.306 198.435 115.306C197.26 115.306 196.162 114.933 195.141 114.179C194.119 113.435 193.613 112.27 193.613 110.685C193.623 108.785 194.549 107.248 196.411 106.112ZM203.886 111.64C204.221 111.391 204.622 111 205.08 110.465V104.183C203.934 104.46 202.932 104.909 202.063 105.51C200.593 106.532 199.867 107.84 199.867 109.415C199.867 110.351 200.077 111.067 200.507 111.544C200.936 112.031 201.414 112.27 201.939 112.27C202.636 112.27 203.285 112.06 203.886 111.64Z" fill="#422A1A"/>
<path d="M214.676 113.691C215.43 113.51 215.965 113.271 216.28 112.965C216.595 112.669 216.748 112.039 216.748 111.094V89.2398C216.748 88.3233 216.604 87.7218 216.308 87.4449C216.012 87.1585 215.468 86.9293 214.676 86.7479V85.7168H222.81V111.094C222.81 112.049 222.963 112.669 223.269 112.956C223.574 113.252 224.118 113.49 224.901 113.691V114.722H214.676V113.691Z" fill="#422A1A"/>
<path d="M226.81 118.093C227.412 117.635 228.128 117.406 228.958 117.406C229.684 117.406 230.285 117.606 230.753 118.017C231.221 118.418 231.46 118.905 231.46 119.458L231.355 120.404C231.355 120.585 231.431 120.757 231.574 120.91C231.718 121.062 231.908 121.139 232.128 121.139C232.873 121.139 233.57 120.556 234.209 119.392C234.61 118.675 235.193 117.262 235.957 115.172L230.868 102.607C230.505 101.71 230.152 100.869 229.808 100.087C229.464 99.3036 229.102 98.5398 228.729 97.7951C228.338 97.0409 228.032 96.5635 227.803 96.363C227.583 96.1625 227.173 96.0384 226.591 95.9811V94.95H237.322V95.9811C236.654 95.9907 236.1 96.0766 235.68 96.2102C235.25 96.3535 235.04 96.6494 235.04 97.1077C235.04 97.2032 235.069 97.3369 235.116 97.5087C235.164 97.6806 235.269 97.9765 235.441 98.4062L238.859 106.846H239.069L241.895 99.3036C242.038 98.8835 242.153 98.5207 242.239 98.2057C242.325 97.8906 242.373 97.6137 242.373 97.375C242.373 96.7736 242.172 96.3917 241.771 96.2293C241.37 96.067 240.778 95.9811 239.995 95.9716V94.9404H246.497V95.9716C245.934 96.0098 245.485 96.1625 245.122 96.4203C244.759 96.6781 244.397 97.3082 244.024 98.2916L237.608 115.41C236.358 118.57 235.288 120.709 234.391 121.845C233.493 122.981 232.09 123.545 230.171 123.545C228.777 123.545 227.717 123.201 226.982 122.504C226.256 121.817 225.894 121.053 225.894 120.232C225.913 119.277 226.209 118.561 226.81 118.093Z" fill="#422A1A"/>
<path d="M17.367 153.486C18.5795 153.458 19.4579 153.314 19.983 153.047C20.8518 152.598 21.2814 151.739 21.2814 150.469V129.675C21.2814 128.414 20.8709 127.565 20.0403 127.135C19.5342 126.868 18.6463 126.715 17.3574 126.658V125.569H32.3565V126.658C31.0199 126.715 30.0938 126.868 29.5878 127.116C28.7476 127.546 28.3275 128.395 28.3275 129.675V150.46C28.3275 151.663 28.6617 152.465 29.33 152.866C29.9983 153.267 31.0103 153.477 32.347 153.477V154.565H17.367V153.486Z" fill="#422A1A"/>
<path d="M34.0752 136.7V135.507C34.4571 135.154 34.9154 134.743 35.4787 134.275C36.2234 133.588 36.9204 132.881 37.5696 132.156C38.868 130.733 40.0519 129.196 41.1117 127.563H42.2001V134.81H46.2864V136.7H42.2001V149.609C42.2001 150.21 42.286 150.716 42.4674 151.117C42.7443 151.747 43.2121 152.062 43.8518 152.062C44.4151 152.062 44.883 151.862 45.2553 151.461C45.6277 151.06 46.0096 150.516 46.3915 149.819L47.4226 150.325C46.9166 151.499 46.3246 152.454 45.6181 153.199C44.3865 154.497 42.8875 155.146 41.1212 155.146C40.1188 155.146 39.2404 154.955 38.4861 154.583C37.0349 153.857 36.3093 152.54 36.2998 150.621V136.71H34.0752V136.7Z" fill="#422A1A"/>
<path d="M51.5462 145.962C53.408 144.826 56.32 143.69 60.2822 142.544V139.422C60.2822 138.152 60.0148 137.207 59.4706 136.606C58.936 135.995 57.9812 135.699 56.6064 135.699C55.8426 135.699 55.2029 135.842 54.7064 136.128C54.21 136.415 53.9617 136.777 53.9617 137.207C53.9617 137.379 53.9904 137.513 54.0477 137.627C54.1049 137.742 54.1909 137.856 54.2959 137.98L54.5441 138.276C54.7351 138.515 54.8974 138.773 55.012 139.059C55.1265 139.346 55.1934 139.651 55.1934 139.966C55.1934 140.778 54.926 141.398 54.3818 141.838C53.8472 142.277 53.217 142.496 52.5105 142.496C51.6894 142.496 50.9829 142.248 50.4005 141.761C49.8181 141.274 49.5317 140.568 49.5317 139.651C49.5317 138.009 50.305 136.701 51.8613 135.746C53.408 134.782 55.3175 134.305 57.5802 134.305C60.0148 134.305 62.0389 134.773 63.6811 135.708C65.3042 136.663 66.1157 138.401 66.1157 140.95V151.347C66.1157 151.652 66.1921 151.92 66.3544 152.13C66.5167 152.349 66.6885 152.454 66.889 152.454C67.0609 152.454 67.2041 152.426 67.3378 152.359C67.4714 152.292 67.6719 152.12 67.9584 151.843L68.6076 152.741C67.7674 153.715 66.8413 154.402 65.8197 154.794C65.18 155.042 64.5022 155.166 63.7861 155.166C62.5163 155.166 61.5902 154.794 60.9982 154.049C60.6641 153.629 60.4158 153.008 60.2631 152.178C59.0792 153.371 57.733 154.211 56.2436 154.698C55.3366 155.004 54.4391 155.156 53.5607 155.156C52.3864 155.156 51.2884 154.784 50.2669 154.03C49.2453 153.285 48.7393 152.12 48.7393 150.535C48.7584 148.635 49.6845 147.098 51.5462 145.962ZM59.0315 151.49C59.3656 151.242 59.7666 150.85 60.2249 150.316V144.034C59.0792 144.31 58.0767 144.759 57.2079 145.361C55.7376 146.382 55.012 147.69 55.012 149.266C55.012 150.201 55.222 150.917 55.6516 151.395C56.0813 151.882 56.5587 152.12 57.0838 152.12C57.7807 152.12 58.43 151.91 59.0315 151.49Z" fill="#422A1A"/>
<path d="M69.8203 153.543C70.5746 153.362 71.1092 153.123 71.4243 152.818C71.7394 152.522 71.8921 151.892 71.8921 150.947V129.092C71.8921 128.176 71.7489 127.574 71.4529 127.297C71.157 127.011 70.6128 126.782 69.8203 126.6V125.569H77.9548V150.947C77.9548 151.901 78.1075 152.522 78.4131 152.808C78.7186 153.104 79.2628 153.343 80.0457 153.543V154.575H69.8203V153.543Z" fill="#422A1A"/>
<path d="M81.7461 153.542C82.5003 153.418 83.0159 153.227 83.2928 152.979C83.7129 152.607 83.9229 151.929 83.9229 150.945V138.333C83.9229 137.464 83.7797 136.863 83.4837 136.548C83.1878 136.233 82.6149 135.994 81.7461 135.841V134.81H89.9856V151.117C89.9856 152.053 90.1288 152.654 90.4057 152.922C90.6825 153.189 91.2077 153.399 91.981 153.552V154.583H81.7556V153.542H81.7461ZM84.6008 125.893C85.25 125.244 86.0329 124.919 86.959 124.919C87.866 124.919 88.6489 125.244 89.2982 125.893C89.9474 126.542 90.272 127.325 90.272 128.251C90.272 129.177 89.9474 129.96 89.2982 130.609C88.6489 131.258 87.866 131.583 86.959 131.583C86.0329 131.583 85.25 131.258 84.6008 130.609C83.9516 129.96 83.627 129.177 83.627 128.251C83.627 127.334 83.9516 126.542 84.6008 125.893Z" fill="#422A1A"/>
<path d="M96.8499 145.962C98.7117 144.826 101.624 143.69 105.586 142.544V139.422C105.586 138.152 105.319 137.207 104.774 136.606C104.24 135.995 103.285 135.699 101.91 135.699C101.146 135.699 100.507 135.842 100.01 136.128C99.5137 136.415 99.2654 136.777 99.2654 137.207C99.2654 137.379 99.2941 137.513 99.3514 137.627C99.4087 137.742 99.4946 137.856 99.5996 137.98L99.8478 138.276C100.039 138.515 100.201 138.773 100.316 139.059C100.43 139.346 100.497 139.651 100.497 139.966C100.497 140.778 100.23 141.398 99.6855 141.838C99.1509 142.277 98.5207 142.496 97.8142 142.496C96.9931 142.496 96.2866 142.248 95.7042 141.761C95.1218 141.274 94.8354 140.568 94.8354 139.651C94.8354 138.009 95.6087 136.701 97.165 135.746C98.7117 134.782 100.621 134.305 102.884 134.305C105.319 134.305 107.343 134.773 108.985 135.708C110.608 136.663 111.419 138.401 111.419 140.95V151.347C111.419 151.652 111.496 151.92 111.658 152.13C111.82 152.349 111.992 152.454 112.193 152.454C112.365 152.454 112.508 152.426 112.641 152.359C112.775 152.292 112.976 152.12 113.262 151.843L113.911 152.741C113.071 153.715 112.145 154.402 111.123 154.794C110.484 155.042 109.806 155.166 109.09 155.166C107.82 155.166 106.894 154.794 106.302 154.049C105.968 153.629 105.72 153.008 105.567 152.178C104.383 153.371 103.037 154.211 101.547 154.698C100.64 155.004 99.7428 155.156 98.8645 155.156C97.6901 155.156 96.5921 154.784 95.5706 154.03C94.549 153.285 94.043 152.12 94.043 150.535C94.0621 148.635 94.9977 147.098 96.8499 145.962ZM104.335 151.49C104.669 151.242 105.07 150.85 105.529 150.316V144.034C104.383 144.31 103.38 144.759 102.512 145.361C101.041 146.382 100.316 147.69 100.316 149.266C100.316 150.201 100.526 150.917 100.955 151.395C101.385 151.882 101.862 152.12 102.387 152.12C103.084 152.12 103.734 151.91 104.335 151.49Z" fill="#422A1A"/>
<path d="M115.123 153.543C115.906 153.448 116.479 153.228 116.851 152.903C117.223 152.579 117.405 151.92 117.405 150.946V138.334C117.405 137.465 117.252 136.854 116.956 136.52C116.651 136.186 116.049 135.957 115.123 135.842V134.811H123.258V137.895C123.945 136.864 124.814 136.004 125.864 135.326C126.914 134.649 128.089 134.314 129.377 134.314C131.22 134.314 132.652 134.792 133.664 135.737C134.676 136.692 135.182 138.353 135.182 140.749V151.118C135.182 152.082 135.345 152.703 135.679 152.98C136.003 153.257 136.557 153.448 137.321 153.543V154.574H127.239V153.543C128.003 153.39 128.528 153.18 128.814 152.913C129.091 152.646 129.234 152.044 129.234 151.108V140.711C129.234 139.737 129.139 139.002 128.938 138.506C128.604 137.627 127.936 137.188 126.952 137.188C126.208 137.188 125.53 137.456 124.909 138C124.289 138.534 123.811 139.079 123.477 139.623V151.108C123.477 152.044 123.62 152.646 123.897 152.913C124.174 153.18 124.699 153.39 125.473 153.543V154.574H115.123V153.543Z" fill="#422A1A"/>
<path d="M149.619 153.542C150.497 153.476 151.127 153.275 151.519 152.96C151.901 152.635 152.092 151.967 152.092 150.946V136.987H149.619V135.097H152.092V133.502C152.092 131.507 152.407 129.865 153.037 128.576C154.221 126.17 156.417 124.967 159.615 124.967C161.324 124.967 162.766 125.358 163.94 126.132C165.124 126.905 165.706 127.927 165.706 129.206C165.706 129.998 165.458 130.648 164.962 131.134C164.465 131.621 163.806 131.87 162.985 131.87C162.298 131.87 161.716 131.65 161.229 131.201C160.742 130.753 160.494 130.218 160.494 129.588C160.494 129.11 160.646 128.614 160.961 128.089C161.276 127.564 161.429 127.249 161.429 127.134C161.429 126.781 161.305 126.561 161.057 126.466C160.809 126.37 160.532 126.323 160.236 126.323C159.539 126.323 159.004 126.523 158.622 126.934C158.25 127.335 158.059 128.213 158.059 129.55V135.106H161.792V136.997H158.059V150.182C158.059 151.662 158.269 152.569 158.699 152.903C159.128 153.237 160.073 153.457 161.534 153.552V154.583H149.609V153.542H149.619Z" fill="#422A1A"/>
<path d="M167.014 137.265C168.847 135.269 171.158 134.267 173.936 134.267C176.772 134.267 179.092 135.288 180.906 137.322C182.71 139.365 183.617 141.838 183.617 144.74C183.617 147.604 182.72 150.068 180.934 152.13C179.149 154.192 176.81 155.223 173.936 155.223C171.139 155.223 168.828 154.221 167.005 152.216C165.171 150.211 164.255 147.719 164.255 144.75C164.264 141.752 165.181 139.26 167.014 137.265ZM171.034 151.051C171.521 152.913 172.494 153.839 173.946 153.839C175.33 153.839 176.237 153.123 176.667 151.7C177.096 150.278 177.316 147.958 177.316 144.74C177.316 141.542 177.087 139.222 176.638 137.79C176.18 136.358 175.292 135.641 173.965 135.641C172.513 135.641 171.54 136.568 171.053 138.429C170.728 139.67 170.575 141.771 170.575 144.74C170.566 147.748 170.719 149.848 171.034 151.051Z" fill="#422A1A"/>
<path d="M188.478 137.265C190.311 135.269 192.622 134.267 195.4 134.267C198.236 134.267 200.556 135.288 202.37 137.322C204.174 139.365 205.081 141.838 205.081 144.74C205.081 147.604 204.184 150.068 202.398 152.13C200.613 154.192 198.274 155.223 195.4 155.223C192.602 155.223 190.292 154.221 188.468 152.216C186.635 150.211 185.719 147.719 185.719 144.75C185.719 141.752 186.635 139.26 188.478 137.265ZM192.488 151.051C192.975 152.913 193.949 153.839 195.4 153.839C196.784 153.839 197.691 153.123 198.121 151.7C198.551 150.278 198.77 147.958 198.77 144.74C198.77 141.542 198.541 139.222 198.092 137.79C197.634 136.358 196.746 135.641 195.419 135.641C193.968 135.641 192.994 136.568 192.507 138.429C192.182 139.67 192.03 141.771 192.03 144.74C192.03 147.748 192.182 149.848 192.488 151.051Z" fill="#422A1A"/>
<path d="M209.748 137.255C211.362 135.288 213.3 134.314 215.563 134.314C216.689 134.314 217.701 134.591 218.58 135.154C219.124 135.488 219.811 136.09 220.632 136.959V129.101C220.632 128.013 220.422 127.344 220.002 127.087C219.582 126.829 218.713 126.667 217.405 126.609V125.578H226.647V150.287C226.647 151.175 226.819 151.786 227.153 152.13C227.488 152.473 228.146 152.683 229.12 152.76V153.743C226.714 153.982 225.168 154.163 224.471 154.278C223.774 154.392 222.542 154.698 220.785 155.185V152.359C219.974 153.199 219.239 153.82 218.561 154.221C217.501 154.86 216.355 155.185 215.124 155.185C213.033 155.185 211.209 154.297 209.653 152.521C208.097 150.745 207.323 148.339 207.323 145.294C207.323 141.895 208.135 139.212 209.748 137.255ZM219.525 151.509C220.26 150.688 220.632 150.106 220.632 149.771V139.336C220.632 138.983 220.317 138.467 219.687 137.789C219.057 137.102 218.226 136.758 217.186 136.758C215.658 136.758 214.618 137.818 214.073 139.918C213.777 141.055 213.634 142.649 213.634 144.721C213.634 146.926 213.777 148.588 214.054 149.705C214.57 151.729 215.572 152.741 217.043 152.741C217.959 152.75 218.79 152.34 219.525 151.509Z" fill="#422A1A"/>
<path d="M262.566 78.1844C264.189 79.7216 265 81.6215 265 83.9034C265 86.1279 264.218 88.0088 262.642 89.5459C261.105 91.0544 259.262 91.7991 257.114 91.7991C254.89 91.7991 252.999 91.0258 251.462 89.4791C249.934 87.942 249.161 86.0897 249.161 83.9034C249.161 81.6884 249.954 79.8075 251.538 78.2703C253.095 76.7618 254.947 75.998 257.114 75.998C259.205 76.0076 261.019 76.7332 262.566 78.1844ZM252.321 88.7344C253.648 90.0233 255.252 90.663 257.114 90.663C258.957 90.663 260.532 90.0329 261.859 88.7726C263.234 87.4741 263.922 85.8511 263.922 83.9034C263.922 82.0321 263.263 80.4472 261.936 79.1296C260.609 77.8025 258.995 77.1437 257.114 77.1437C255.214 77.1437 253.601 77.8216 252.264 79.1774C250.947 80.5045 250.288 82.0798 250.288 83.9129C250.288 85.8129 250.966 87.4168 252.321 88.7344ZM259.807 83.426C259.377 83.6265 258.871 83.7602 258.308 83.827V83.9034L258.413 83.9225C259.482 83.932 260.169 84.7436 260.465 86.3666C260.599 86.7867 260.742 86.9967 260.914 86.9967C261.048 86.9967 261.153 86.9299 261.21 86.8058C261.267 86.6721 261.315 86.443 261.353 86.1184H261.993C261.955 86.6817 261.783 87.1877 261.477 87.6173C261.172 88.0565 260.723 88.2761 260.141 88.2761C259.616 88.2761 259.224 88.1138 258.947 87.7796C258.785 87.5887 258.651 87.3023 258.546 86.9204C258.489 86.634 258.451 86.4048 258.432 86.252C258.413 86.0993 258.394 85.9465 258.374 85.8033C258.241 85.0777 257.926 84.6099 257.41 84.3903C257.114 84.2662 256.637 84.2184 255.978 84.2375V85.7556C255.978 86.3475 256.035 86.739 256.159 86.9299C256.284 87.1209 256.618 87.2164 257.171 87.2164V88.0374H252.913V87.2164C253.486 87.2164 253.82 87.0827 253.925 86.8249C254.03 86.5671 254.078 85.7842 254.078 84.4953V83.0632C254.078 82.4808 254.078 82.0034 254.069 81.6311C254.059 81.2014 253.983 80.9054 253.849 80.7336C253.706 80.5617 253.391 80.4758 252.913 80.4758V79.6547C253.553 79.6547 254.546 79.6547 255.883 79.6643C257.219 79.6643 257.973 79.6738 258.155 79.6834C258.795 79.7311 259.32 79.8457 259.749 80.0175C260.599 80.3803 261.019 80.9627 261.019 81.7647C261.01 82.4999 260.609 83.0536 259.807 83.426ZM258.05 83.1682C258.651 82.9582 258.947 82.5094 258.947 81.8316C258.947 81.3065 258.69 80.9341 258.174 80.705C257.83 80.5522 257.439 80.4758 256.981 80.4758C256.484 80.4758 256.188 80.6095 256.093 80.8673C256.007 81.1346 255.959 81.9652 255.959 83.3592C256.99 83.3687 257.677 83.3019 258.05 83.1682Z" fill="#422A1A"/>
</svg>
