<svg width="42" height="42" viewBox="0 0 42 42" fill="none" xmlns="http://www.w3.org/2000/svg">
<path d="M20.7555 24.7748C22.7661 24.7748 24.4119 23.1122 24.4119 21.0627C24.4119 20.2561 24.1524 19.5071 23.7228 18.898C23.058 17.9679 21.9797 17.3506 20.7636 17.3506C19.5475 17.3506 18.4692 17.9597 17.8044 18.898C17.3747 19.5071 17.1153 20.2561 17.1153 21.0627C17.1072 23.1122 18.7448 24.7748 20.7555 24.7748Z" fill="white"/>
<path d="M28.7334 16.5351V13.4238V12.9629H28.2794L25.2148 12.9711L25.2311 16.5433L28.7334 16.5351Z" fill="white"/>
<path d="M26.43 21.071C26.43 24.248 23.8843 26.8325 20.7549 26.8325C17.6254 26.8325 15.0797 24.248 15.0797 21.071C15.0797 20.3055 15.2338 19.5729 15.5013 18.9062H12.4043V27.5321C12.4043 28.6433 13.2961 29.5487 14.3906 29.5487H27.1191C28.2136 29.5487 29.1054 28.6433 29.1054 27.5321V18.9062H26.0084C26.2841 19.5729 26.43 20.3055 26.43 21.071Z" fill="white"/>
<path d="M21 0C9.40078 0 0 9.40078 0 21C0 32.5992 9.40078 42 21 42C32.5992 42 42 32.5992 42 21C42 9.40078 32.5992 0 21 0ZM31.5 18.8426V27.4395C31.5 29.6789 29.6789 31.5 27.4395 31.5H14.5605C12.3211 31.5 10.5 29.6789 10.5 27.4395V18.8426V14.5523C10.5 12.3129 12.3211 10.4918 14.5605 10.4918H27.4395C29.6789 10.4918 31.5 12.3129 31.5 14.5523V18.8426Z" fill="white"/>
</svg>
