<svg width="168" height="181" viewBox="0 0 168 181" fill="none" xmlns="http://www.w3.org/2000/svg">
<path d="M88.145 31.6999C87.724 31.8592 87.4656 31.2194 87.8828 31.0508C91.5766 29.5155 95.3117 28.0822 99.0317 26.6117C99.3785 26.4824 99.5883 27.0017 99.2452 27.1403C95.5514 28.6756 91.8688 30.2387 88.145 31.6999Z" fill="#1D1D1B"/>
<path d="M87.0021 28.8719C86.6368 29.0087 86.4158 28.4616 86.7736 28.3063C92.2249 25.8885 97.8565 23.5703 103.519 21.7033C103.709 21.6377 103.817 21.9066 103.639 22C98.2657 24.5806 92.6041 26.8246 87.0021 28.8719Z" fill="#1D1D1B"/>
<path d="M39.777 143.97C39.5571 143.746 39.6298 143.285 39.8855 143.117C43.9432 140.453 48.2252 138.238 52.844 136.75C52.7619 136.653 52.6947 136.54 52.6663 136.39C48.9608 119.261 41.8384 103.232 36.5059 86.5875C32.3691 73.6771 27.239 57.0266 31.726 43.5984C35.8638 31.228 49.2077 25.7081 60.6101 22.0834C76.6442 16.9758 93.7137 12.1619 110.506 10.5336C110.662 10.3845 110.875 10.2983 111.137 10.3865C113.725 11.2393 116.421 12.8141 117.844 15.2159C118.261 14.8858 119.095 15.0018 119.263 15.7106C121.505 25.2124 123.83 34.9721 124.585 44.7186C124.593 44.7372 124.584 44.7409 124.582 44.7632C124.698 44.9968 124.593 45.3518 124.256 45.4235C112.87 47.8876 101.472 50.1085 90.2103 53.1478C80.0027 55.9123 66.6949 57.837 64.663 70.2411C62.935 80.8075 69.3845 93.4091 73.1201 103.03C75.9791 110.428 79.1311 117.697 82.4554 124.885C85.4707 124.206 88.3998 123.314 91.3455 122.383C91.5384 122.326 91.6891 122.406 91.7694 122.524C91.9544 122.342 92.2438 122.257 92.5156 122.449C94.9319 124.213 97.4483 125.903 99.7094 127.869C99.8863 128.014 99.8482 128.266 99.7335 128.41C99.7862 128.593 99.7924 128.796 99.7263 129.006C97.2131 137.495 94.4713 145.926 91.4506 154.253C90.0524 158.108 88.6991 162.019 87.0834 165.789C86.6081 166.908 86.2229 168.304 84.8927 168.669C82.7871 169.25 79.8537 167.275 78.0537 166.557C74.8461 165.264 71.6826 163.867 68.5541 162.37C61.713 159.105 55.1358 155.345 48.7727 151.207C48.5848 151.089 48.4483 150.831 48.4271 150.592C45.1844 148.839 42.3135 146.644 39.777 143.97ZM42.6697 142.747C41.6165 143.744 41.4287 143.68 42.404 144.893C42.915 145.517 43.6873 146.014 44.3297 146.509C45.728 147.594 47.2352 148.495 48.7978 149.32C49.1334 148.602 49.613 148.214 50.5913 147.593C53.7951 145.565 57.8128 144.244 61.3228 142.707C58.1861 142.098 55.6103 139.86 54.0505 137.147C52.1627 137.92 50.2862 138.721 48.4434 139.606C46.6136 140.496 44.1542 141.349 42.6697 142.747ZM51.5461 149.849C51.2321 151.982 59.0543 155.434 60.7864 156.384C66.8496 159.726 73.1233 162.682 79.5589 165.237C81.5021 166.016 83.1873 167.384 85.0989 165.976C86.0807 165.256 86.7613 161.734 87.1643 160.676C88.5245 157.129 89.8327 153.559 91.0962 149.985C93.4134 143.387 95.5652 136.726 97.572 130.027C93.6377 131.314 89.7635 132.75 85.9061 134.254C85.5167 134.412 85.2262 134.173 85.1472 133.871C84.9185 133.812 84.7101 133.67 84.5867 133.418C83.4086 131.035 82.2622 128.651 81.1398 126.247C80.9 126.16 80.7876 125.882 80.8405 125.612C76.3752 116.027 72.3475 106.244 68.75 96.297C65.4845 87.3056 60.6535 76.6817 63.6677 66.9762C66.9059 56.5438 78.5616 54.8012 87.7748 52.2981C99.5704 49.0862 111.592 46.1928 123.72 44.6046C121.398 35.2534 119.856 25.6953 117.699 16.299C101.853 19.7346 86.0664 23.4802 70.5489 28.1849C63.7298 30.2601 56.375 32.0772 49.9551 35.2206C42.3395 38.955 39.766 46.1205 39.4034 54.1401C38.7144 69.3343 44.6144 84.1532 49.2125 98.3655C53.8725 112.758 58.5362 127.159 63.1907 141.565C63.3726 142.095 63.0603 142.523 62.6691 142.703C63.0493 143.11 63.0723 143.888 62.4067 144.189C60.5174 145.039 51.8527 147.752 51.5461 149.849ZM54.1675 136.075C54.4402 135.975 54.7895 136.039 54.9651 136.367C56.408 139.085 58.681 140.733 61.4315 141.909C56.109 125.476 50.7828 109.034 45.4696 92.5976C41.0554 78.9472 35.6711 63.9632 38.0911 49.3964C39.0137 43.8576 41.3617 38.6705 46.0951 35.4102C52.357 31.1011 60.8448 29.3656 68.0237 27.1666C84.0975 22.2372 100.419 18.1351 117.005 15.3822C115.046 13.7362 113.179 12.2904 110.656 11.5191C110.53 11.4731 110.446 11.3991 110.385 11.3269C94.4961 15.0598 78.6067 17.9626 62.9991 22.8979C49.7119 27.0898 34.511 33.1119 32.1724 48.6812C29.8843 63.8419 35.8966 80.5136 40.8655 94.5761C45.7052 108.292 51.1254 121.816 54.1675 136.075ZM82.9418 125.928C84.0062 128.216 85.0892 130.497 86.1814 132.773C86.1945 132.779 86.1889 132.792 86.1964 132.81C90.145 130.838 94.2026 129.242 98.4115 127.887C96.1412 126.485 93.9798 124.899 91.8094 123.371C91.6772 123.284 91.6193 123.167 91.5966 123.058C88.8323 124.358 85.9125 125.246 82.9418 125.928Z" fill="#1D1D1B"/>
<path d="M42.4032 144.893C41.4279 143.68 41.6157 143.744 42.6689 142.747C44.1534 141.35 46.6128 140.496 48.4426 139.606C50.2854 138.721 52.1619 137.92 54.0497 137.147C55.6095 139.86 58.1853 142.098 61.322 142.708C57.812 144.244 53.7943 145.565 50.5905 147.593C49.6122 148.215 49.1326 148.603 48.797 149.321C47.2344 148.496 45.7272 147.595 44.3289 146.509C43.6865 146.014 42.9142 145.517 42.4032 144.893Z" fill="#473019"/>
<path d="M60.7862 156.384C59.0541 155.434 51.2319 151.983 51.5459 149.85C51.8526 147.752 60.5172 145.039 62.4065 144.19C63.0722 143.889 63.0491 143.111 62.6689 142.703C63.0601 142.524 63.3724 142.096 63.1905 141.565C58.5361 127.16 53.8723 112.758 49.2123 98.3659C44.6142 84.1536 38.7142 69.3347 39.4033 54.1406C39.7658 46.1209 42.3393 38.9554 49.9549 35.2211C56.3749 32.0776 63.7296 30.2605 70.5488 28.1853C86.0662 23.4806 101.852 19.735 117.699 16.2994C119.856 25.6957 121.398 35.2538 123.72 44.605C111.592 46.1932 99.5702 49.0866 87.7746 52.2986C78.5614 54.8016 66.9057 56.5443 63.6675 66.9766C60.6533 76.6821 65.4843 87.306 68.7498 96.2974C72.3473 106.244 76.375 116.028 80.8403 125.613C80.7874 125.882 80.8998 126.16 81.1396 126.247C82.262 128.652 83.4084 131.036 84.5865 133.418C84.7099 133.67 84.9184 133.812 85.147 133.871C85.226 134.173 85.5165 134.412 85.9059 134.255C89.7633 132.75 93.6376 131.315 97.5718 130.027C95.565 136.727 93.4133 143.388 91.096 149.986C89.8325 153.559 88.5243 157.129 87.1642 160.677C86.7611 161.735 86.0805 165.256 85.0987 165.976C83.1872 167.385 81.5019 166.016 79.5588 165.237C73.1231 162.682 66.8495 159.727 60.7862 156.384ZM69.2482 113.363C70.6722 117.102 72.1519 120.818 73.6594 124.523C73.7568 124.764 74.1277 124.614 74.0303 124.373C72.5506 120.657 71.0339 116.956 69.4614 113.277C69.4053 113.138 69.192 113.224 69.2482 113.363ZM68.6588 103.895C70.4759 108.553 72.2412 113.243 74.203 117.833C74.3059 118.061 74.6489 117.922 74.5553 117.69C72.779 113.026 70.7912 108.426 68.872 103.808C68.8103 103.682 68.6063 103.765 68.6588 103.895ZM87.8831 31.0512C87.4659 31.2197 87.7243 31.8595 88.1453 31.7002C91.8691 30.2391 95.5517 28.6759 99.2455 27.1406C99.5886 27.002 99.3788 26.4828 99.032 26.6121C95.312 28.0825 91.5769 29.5158 87.8831 31.0512ZM86.7744 28.3067C86.4166 28.462 86.6375 29.009 87.0029 28.8722C92.6039 26.8253 98.2656 24.5813 103.64 22.0004C103.818 21.9069 103.709 21.638 103.52 21.7037C97.8582 23.5703 92.2266 25.8885 86.7744 28.3067Z" fill="#EFCA8B"/>
<path d="M54.9652 136.367C54.7895 136.039 54.4401 135.975 54.1675 136.075C51.1254 121.816 45.7052 108.292 40.8655 94.5763C35.8965 80.5137 29.8843 63.842 32.1723 48.6814C34.511 33.112 49.7119 27.09 62.999 22.898C78.6067 17.9628 94.4961 15.0599 110.385 11.327C110.446 11.3992 110.53 11.4732 110.656 11.5192C113.179 12.2905 115.046 13.7363 117.005 15.3823C100.419 18.1353 84.0975 22.2373 68.0237 27.1667C60.8447 29.3657 52.3569 31.1013 46.0951 35.4104C41.3617 38.6707 39.0136 43.8578 38.0911 49.3965C35.6711 63.9634 41.0554 78.9474 45.4696 92.5977C50.7828 109.034 56.109 125.476 61.4314 141.909C58.6819 140.733 56.4089 139.084 54.9652 136.367Z" fill="#473019"/>
<path d="M73.6588 124.523C72.1513 120.817 70.6716 117.101 69.2475 113.362C69.1913 113.223 69.4046 113.137 69.4608 113.276C71.0332 116.955 72.55 120.656 74.0296 124.373C74.127 124.614 73.7562 124.764 73.6588 124.523Z" fill="#1D1D1B"/>
<path d="M74.2018 117.833C72.24 113.243 70.4747 108.553 68.6576 103.895C68.6051 103.765 68.8091 103.682 68.8708 103.808C70.79 108.426 72.7778 113.026 74.5541 117.69C74.6487 117.922 74.3056 118.06 74.2018 117.833Z" fill="#1D1D1B"/>
<path d="M86.1821 132.773C85.0899 130.497 84.0069 128.216 82.9425 125.928C85.9131 125.246 88.833 124.358 91.5973 123.058C91.6199 123.167 91.6779 123.284 91.81 123.371C93.9805 124.899 96.1418 126.485 98.4121 127.887C94.2033 129.242 90.1457 130.838 86.1971 132.81C86.1896 132.792 86.1951 132.779 86.1821 132.773Z" fill="#473019"/>
<path d="M52.4141 83.6041C49.8388 74.4633 45.3458 63.6748 47.5627 54.0541C50.5124 41.2523 63.9881 37.6874 74.8314 34.1364C75.3571 33.964 75.1373 33.0994 74.5907 33.1907C63.3233 35.0698 49.4457 39.1779 45.0946 51.1027C41.0661 62.1444 45.7991 74.3868 48.6984 85.1041C49.3674 87.5797 53.1101 86.0721 52.4141 83.6041Z" fill="white"/>
<path d="M55.5279 93.8467C55.6504 93.795 55.7739 93.743 55.8965 93.6913C56.9458 93.248 57.5965 91.9379 57.1013 90.8535C56.6029 89.7638 55.4039 89.2095 54.2634 89.6487C54.1393 89.6967 54.0144 89.745 53.8903 89.793C52.8228 90.2048 52.1969 91.5761 52.6822 92.6386C53.1688 93.7017 54.3995 94.3241 55.5279 93.8467Z" fill="white"/>
</svg>
