<svg width="426" height="466" viewBox="0 0 426 466" fill="none" xmlns="http://www.w3.org/2000/svg">
<path d="M145.527 186.386C158.334 217.181 144.98 261.367 109.186 269.686C107.672 270.032 106.632 267.788 108.128 267.059C108.183 267.04 108.238 267.022 108.293 267.004C107.855 266.858 107.49 266.53 107.417 266.019C106.505 259.451 107.07 252.464 107.253 245.75C100.576 248.852 93.6614 251.351 86.3823 252.683C84.6674 253.011 83.9377 250.676 85.3971 249.983C84.7404 249.873 84.1019 249.381 84.1019 248.578C84.0836 240.35 86.2363 232.542 89.3924 225.044C81.9309 226.339 74.4694 227.635 67.0078 228.93C65.6396 229.167 64.7092 228.127 64.8916 226.814C65.822 219.754 67.4274 213.077 69.6896 206.4C62.1186 208.279 54.5294 210.103 46.9219 211.945C45.6449 212.237 44.3313 211.07 44.7145 209.738C46.63 203.225 48.5273 196.694 50.4246 190.163C43.5651 192.316 36.6326 194.249 29.6272 195.928C28.7698 196.128 27.6387 195.618 27.4745 194.687C26.4529 188.922 26.1244 183.34 27.1643 177.557C28.3684 170.77 28.7332 171.828 21.5271 171.92C16.6926 172.011 11.7305 172.886 6.89599 173.27C5.41829 173.397 5.08988 170.88 6.5676 170.679C6.75004 170.642 6.93245 170.643 7.11488 170.606C15.142 169.475 23.2238 168.545 31.2691 167.578C32.309 167.45 33.2394 168.745 32.911 169.694C31.2691 174.291 26.088 188.63 32.7468 191.568C36.0124 193.009 49.4577 186.788 52.6321 185.73C53.9273 185.31 55.2044 186.697 54.8395 187.937C52.924 194.523 51.0084 201.109 49.0746 207.713C56.7186 205.87 64.3443 204.01 71.97 202.222C73.1376 201.93 74.6336 203.061 74.1227 204.374C71.5504 211.179 69.7991 218.002 68.668 225.117C76.4032 223.767 84.1383 222.417 91.8735 221.067C93.4059 220.775 94.5006 222.198 93.8438 223.621C89.9945 231.995 88.4255 239.986 86.966 248.961C86.9296 249.217 86.8384 249.381 86.7107 249.545C94.0992 247.447 101.269 244.984 108.183 241.536C109.314 240.989 110.755 241.7 110.737 243.032C110.719 250.567 111.43 258.612 110.172 266.037C129.728 256.076 143.958 240.022 146.494 217.273C147.862 204.922 144.396 194.961 139.708 183.814C137.081 177.502 134.216 170.551 135.512 163.564C139.197 143.752 162.676 144.646 177.909 145.613C205.749 147.437 226.126 134.612 240.192 111.133C240.119 111.169 240.101 111.224 240.028 111.26C234.226 114.033 228.407 116.788 222.587 119.543C221.073 120.254 219.34 118.74 220.216 117.171C223.664 110.877 226.473 104.456 228.772 97.7421L212.006 107.429C211.185 107.922 210.054 107.593 209.598 106.772C206.497 101.409 207.5 96.7204 209.379 91.0467C210.382 88.0731 214.396 79.3163 212.061 78.5136C208.832 77.4372 198.269 84.0595 194.711 85.5007C193.708 85.8838 192.413 84.844 192.504 83.8041C193.033 78.4588 197.046 68.8263 195.934 64.1013C195.003 60.179 195.149 61.8938 190.479 62.9155C185.736 63.9371 180.974 65.7797 176.267 67.0203C175.081 67.3304 174.479 66.108 174.917 65.2689C174.79 64.9587 174.735 64.6121 174.863 64.1925C176.103 60.3249 180.518 48.9411 174.844 46.7701C172.436 45.858 160.87 52.6445 158.243 53.7391C157.221 54.1769 155.762 53.6661 155.853 52.3343C156.054 49.0323 159.046 34.547 156.054 32.8322C155.616 32.5768 153.481 33.2518 150.891 34.1639L150.07 32.6133C152.971 31.318 156.017 29.366 158.133 28.2714C159.119 27.7606 160.542 28.3808 160.469 29.6214C160.286 32.5403 157.732 46.6971 160.067 48.485C162.202 50.1451 174.315 43.4681 177.38 42.1546C178.256 41.7897 179.606 42.0086 179.788 43.1762C180.883 50.2911 180.518 56.7857 178.548 63.6088C185.334 61.1277 192.175 58.8837 199.035 56.658C200.221 56.2749 201.48 57.5337 201.115 58.7377C199.819 62.879 195.058 73.7703 197.43 78.0393C197.265 81.4143 198.78 81.6514 201.99 78.8054C203.34 78.2581 204.709 77.6926 206.059 77.1453C208.795 76.0507 211.513 74.9379 214.25 73.8433C215.363 73.3872 216.403 74.5365 216.457 75.5399C216.768 81.5054 214.651 86.3947 212.809 91.9224C211.86 94.7319 210.236 100.333 214.414 101.956C216.403 102.741 228.863 93.6008 231.034 92.342C232.329 91.594 234.062 92.8528 233.643 94.3305C231.508 101.318 228.881 107.849 225.652 114.252C229.884 112.282 234.117 110.275 238.349 108.305C239.955 107.575 241.323 109.308 240.758 110.531C241.578 110.075 242.819 110.731 242.472 111.808C236.452 129.759 219.741 143.223 201.79 148.258C190.023 151.56 178.712 149.407 166.763 149.389C154.831 149.353 141.568 153.056 139.635 166.957C138.741 173.361 143.156 180.658 145.527 186.386Z" fill="#2F1E12"/>
<path d="M146.494 217.273C143.958 240.022 129.728 256.076 110.171 266.037C111.43 258.612 110.719 250.567 110.737 243.032C110.755 241.7 109.314 240.989 108.183 241.536C101.269 244.984 94.099 247.447 86.7105 249.545C86.8382 249.381 86.9294 249.217 86.9659 248.961C88.4253 239.986 89.9943 231.995 93.8436 223.621C94.5004 222.198 93.4058 220.775 91.8733 221.067C84.1381 222.417 76.403 223.767 68.6678 225.117C69.7989 218.002 71.5502 211.179 74.1226 204.375C74.6334 203.061 73.1374 201.93 71.9699 202.222C64.3441 204.01 56.7184 205.87 49.0744 207.713C51.0082 201.109 52.9238 194.523 54.8393 187.937C55.2042 186.697 53.9272 185.31 52.6319 185.73C49.4575 186.788 36.0122 193.009 32.7466 191.568C26.0878 188.631 31.2689 174.291 32.9108 169.694C33.2392 168.745 32.3088 167.45 31.2689 167.578C23.2236 168.545 15.1418 169.475 7.11469 170.606L7.06 170.259C7.24242 170.186 7.40659 170.059 7.51605 169.84C18.0972 147.656 39.8615 133.408 64.0705 130.471C77.1327 128.865 100.594 134.667 106.851 118.448C109.46 111.753 106.906 104.894 104.735 98.4536C101.013 87.4347 98.97 76.817 101.031 65.1595C104.826 44.0702 118.545 27.3593 137.445 18.2376C139.069 24.3856 139.488 29.9498 138.412 36.3897C138.23 37.4843 139.087 38.5242 140.255 38.2323C141.057 38.0499 146.567 35.7147 150.891 34.164C153.481 33.2519 155.616 32.5769 156.053 32.8323C159.045 34.5471 156.053 49.0324 155.853 52.3344C155.762 53.6662 157.221 54.177 158.243 53.7392C160.87 52.6446 172.436 45.858 174.844 46.7702C180.518 48.9412 176.103 60.325 174.862 64.1926C174.735 64.6122 174.789 64.9588 174.917 65.269C174.479 66.1081 175.081 67.3305 176.267 67.0203C180.974 65.7798 185.735 63.9372 190.479 62.9156C195.149 61.8939 195.003 60.1791 195.933 64.1014C197.046 68.8264 193.033 78.4589 192.504 83.8042C192.412 84.8441 193.708 85.8839 194.711 85.5008C198.269 84.0596 208.831 77.4373 212.061 78.5137C214.396 79.3164 210.382 88.0732 209.379 91.0468C207.5 96.7205 206.496 101.409 209.598 106.773C210.054 107.594 211.185 107.922 212.006 107.429L228.771 97.7422C226.473 104.456 223.663 110.877 220.215 117.171C219.34 118.74 221.073 120.254 222.587 119.543C228.407 116.788 234.226 114.033 240.028 111.26C240.101 111.224 240.119 111.169 240.192 111.133C226.126 134.612 205.748 147.437 177.909 145.613C162.676 144.646 139.197 143.752 135.511 163.564C134.216 170.551 137.08 177.502 139.707 183.814C144.396 194.961 147.862 204.922 146.494 217.273ZM134.216 224.26C134.052 225.081 135.311 225.719 135.676 224.844C139.799 215.503 137.518 205.962 133.742 196.822C131.206 190.674 127.74 184.945 125.131 178.834C121.884 171.135 122.212 163.984 120.588 156.048C118.655 146.561 111.85 145.12 102.911 144.974C87.2395 144.701 71.8239 147.163 56.7184 151.177C56.4083 151.268 56.536 151.688 56.8461 151.633C68.3577 149.097 80.0334 147.492 91.8369 147.072C101.068 146.78 114.24 145.029 117.907 158C118.801 161.156 118.071 165.316 118.636 168.581C122.139 188.612 138.905 202.423 134.216 224.26ZM189.968 131.73C191.427 130.708 190.132 128.355 188.6 129.303C180.755 134.229 165.212 126.786 156.09 127.552C144.67 128.5 133.815 137.458 127.995 122.626C119.275 100.406 115.462 77.2914 123.252 54.25C123.434 53.6662 122.54 53.2831 122.285 53.8304C116.411 66.4548 115.462 80.1738 117.359 93.8563C119.019 105.915 122.212 121.659 128.999 132.058C134.745 140.833 142.991 132.806 151 131.182C160.669 129.212 168.696 131.875 178.055 133.572C182.652 134.411 186.009 134.448 189.968 131.73Z" fill="#F5DE97"/>
<path d="M135.676 224.843C135.311 225.719 134.052 225.08 134.216 224.26C138.905 202.422 122.139 188.612 118.637 168.581C118.071 165.315 118.801 161.156 117.907 158C114.24 145.029 101.068 146.78 91.8371 147.072C80.0337 147.491 68.3579 149.097 56.8464 151.633C56.5362 151.687 56.4085 151.268 56.7187 151.177C71.8242 147.163 87.2398 144.7 102.911 144.974C111.85 145.12 118.655 146.561 120.589 156.048C122.212 163.983 121.884 171.135 125.131 178.834C127.74 184.945 131.206 190.673 133.742 196.821C137.518 205.961 139.799 215.503 135.676 224.843Z" fill="#2F1E12"/>
<path d="M188.599 129.303C190.132 128.355 191.427 130.708 189.968 131.73C186.009 134.448 182.652 134.411 178.055 133.572C168.696 131.876 160.669 129.212 151 131.182C142.991 132.806 134.745 140.833 128.998 132.058C122.212 121.659 119.019 105.915 117.359 93.8565C115.462 80.174 116.41 66.4549 122.285 53.8305C122.54 53.2832 123.434 53.6664 123.252 54.2502C115.462 77.2915 119.274 100.406 127.995 122.626C133.814 137.458 144.669 128.501 156.09 127.552C165.211 126.786 180.755 134.229 188.599 129.303Z" fill="#2F1E12"/>
<path d="M106.851 118.448C100.594 134.666 77.1328 128.865 64.0705 130.47C39.8616 133.407 18.0972 147.656 7.51609 169.839C7.40664 170.058 7.24247 170.186 7.06004 170.259C6.43977 170.441 5.58232 169.876 5.85597 169.164C12.679 150.921 26.9271 138.06 45.0245 131.127C53.982 127.716 63.4867 125.946 73.0645 125.782C79.249 125.691 86.9842 126.931 92.9497 124.87C107.271 119.962 104.023 109.417 100.648 99.5113C89.2281 65.8706 103.148 25.3521 139.124 13.5669C141.021 12.9466 142.316 16.0662 140.455 16.8689C140.255 16.9601 140.054 17.0514 139.853 17.1426C141.24 21.9588 140.547 27.2494 142.061 31.6095C143.155 34.8204 146.494 34.2184 150.07 32.613L150.891 34.1636C146.567 35.7143 141.058 38.0494 140.255 38.2319C139.087 38.5238 138.23 37.4839 138.412 36.3893C139.489 29.9494 139.069 24.3852 137.445 18.2372C118.545 27.3589 104.826 44.0697 101.032 65.1591C98.9701 76.8166 101.013 87.4342 104.735 98.4532C106.906 104.893 109.46 111.753 106.851 118.448Z" fill="#2F1E12"/>
<g opacity="0.6">
<path d="M28.7217 167.884C21.5174 168.743 14.2948 169.595 7.11425 170.606C6.93181 170.642 6.7494 170.642 6.56697 170.679C5.08926 170.879 5.41765 173.397 6.89536 173.269C11.5274 172.902 16.2706 172.1 20.9135 171.952C23.4347 170.595 26.0417 169.232 28.7217 167.884Z" fill="#2F1E12"/>
<path d="M145.527 186.386C143.155 180.658 138.74 173.36 139.634 166.957C141.568 153.055 154.831 149.352 166.762 149.389C178.712 149.407 190.022 151.56 201.789 148.257C219.741 143.222 236.452 129.759 242.472 111.807C242.819 110.731 241.578 110.074 240.757 110.53C241.323 109.308 239.954 107.575 238.349 108.305C234.117 110.275 229.884 112.282 225.652 114.252C226.54 112.491 227.372 110.718 228.171 108.93C226.349 110.246 224.471 111.499 222.545 112.688C221.801 114.192 221.029 115.686 220.215 117.171C219.339 118.74 221.073 120.254 222.587 119.542C228.406 116.788 234.226 114.033 240.027 111.26C240.1 111.223 240.119 111.169 240.192 111.132C226.126 134.611 205.748 147.437 177.909 145.612C162.676 144.645 139.196 143.751 135.511 163.564C134.216 170.551 137.08 177.502 139.707 183.814C144.396 194.96 147.862 204.921 146.494 217.272C144.23 237.579 132.636 252.536 116.265 262.603C113.864 265.154 111.271 267.505 108.529 269.66C108.735 269.716 108.951 269.742 109.188 269.687C144.98 261.366 158.334 217.181 145.527 186.386Z" fill="#2F1E12"/>
<path d="M146.494 217.272C147.862 204.921 144.396 194.96 139.707 183.814C137.08 177.501 134.216 170.551 135.511 163.564C139.196 143.751 162.676 144.645 177.909 145.612C205.748 147.436 226.126 134.611 240.192 111.132C240.119 111.169 240.1 111.223 240.027 111.26C234.226 114.033 228.406 116.788 222.587 119.542C221.073 120.254 219.339 118.74 220.215 117.171C221.029 115.686 221.801 114.192 222.545 112.688C214.005 117.959 204.623 122.054 195.853 125.435C190.845 127.363 185.25 129.328 179.414 130.924C182.94 131.174 186.146 130.844 188.599 129.303C190.132 128.354 191.427 130.707 189.968 131.729C186.009 134.447 182.652 134.411 178.055 133.571C176.254 133.245 174.514 132.884 172.792 132.526C163.582 134.467 154.081 135.139 145.468 133.039C139.33 135.613 133.422 138.813 128.998 132.057C124.642 125.384 121.772 116.505 119.831 107.814C118.673 103.919 117.943 99.752 117.58 95.4009C117.503 94.8828 117.427 94.361 117.357 93.8539C115.52 80.611 116.394 67.3426 121.776 55.0576C125.018 41.7344 129.464 29.3782 133.266 20.4426C116.54 29.9182 104.538 45.6604 101.03 65.1571C98.968 76.8146 101.011 87.4322 104.733 98.4512C106.904 104.891 109.458 111.751 106.849 118.446C100.592 134.664 77.1308 128.863 64.0685 130.468C39.8596 133.405 18.0952 147.654 7.51409 169.837C7.40462 170.056 7.24046 170.184 7.05804 170.257L7.11273 170.604C14.2933 169.593 21.5158 168.741 28.7202 167.882C54.9213 154.714 87.9709 143.25 114.411 157.536C116.066 158.432 117.357 159.552 118.331 160.818C118.271 159.827 118.153 158.873 117.905 157.997C114.238 145.026 101.066 146.778 91.8349 147.07C80.0314 147.489 68.3557 149.095 56.8441 151.631C56.534 151.685 56.4063 151.266 56.7164 151.174C71.8219 147.161 87.2375 144.698 102.909 144.972C111.848 145.118 118.653 146.559 120.586 156.045C121.34 159.725 121.677 163.233 122.143 166.709C124.366 169.082 126.433 171.791 128.303 174.894C134.647 185.423 137.509 197.363 137.445 209.373C138.197 214.306 137.919 219.268 135.909 224.183C133.012 238.493 126.151 252.089 116.263 262.601C132.634 252.538 144.23 237.579 146.494 217.272Z" fill="#F5DE97"/>
<path d="M139.494 131.03C138.947 130.793 138.387 130.587 137.85 130.32C134.023 128.423 130.858 125.966 128.214 123.103C131.02 129.846 134.935 131.386 139.494 131.03Z" fill="#F5DE97"/>
<path d="M135.91 224.184C137.921 219.269 138.198 214.303 137.446 209.374C137.421 214.333 136.899 219.298 135.91 224.184Z" fill="#2F1E12"/>
<path d="M56.8454 151.633C68.357 149.097 80.0327 147.491 91.8361 147.072C101.067 146.78 114.239 145.029 117.906 158C118.154 158.875 118.271 159.831 118.333 160.82C119.269 162.041 119.913 163.396 120.285 164.823C120.918 165.423 121.534 166.061 122.144 166.711C121.679 163.236 121.341 159.727 120.588 156.048C118.654 146.561 111.849 145.12 102.91 144.974C87.2388 144.7 71.8232 147.163 56.7177 151.177C56.4075 151.268 56.5353 151.687 56.8454 151.633Z" fill="#2F1E12"/>
<path d="M139.494 131.03C134.935 131.386 131.018 129.848 128.214 123.103C124.282 118.847 121.568 113.648 119.833 107.815C121.774 116.507 124.642 125.384 129 132.059C133.424 138.815 139.331 135.615 145.47 133.041C143.418 132.539 141.426 131.864 139.494 131.03Z" fill="#2F1E12"/>
<path d="M121.777 55.0596C116.396 67.3446 115.524 80.6149 117.359 93.8559C117.428 94.3631 117.505 94.8848 117.581 95.403C116.516 82.6545 118.534 68.3882 121.777 55.0596Z" fill="#2F1E12"/>
<path d="M188.599 129.303C186.147 130.843 182.94 131.175 179.413 130.925C177.235 131.519 175.024 132.056 172.791 132.526C174.513 132.884 176.254 133.245 178.054 133.572C182.651 134.411 186.008 134.447 189.967 131.729C191.427 130.708 190.131 128.354 188.599 129.303Z" fill="#2F1E12"/>
<path d="M104.735 98.4525C101.013 87.4336 98.97 76.8159 101.032 65.1584C104.542 45.6599 116.542 29.9195 133.268 20.4439C133.548 19.7799 133.833 19.1122 134.107 18.4883C134.878 16.7351 135.865 15.376 136.984 14.3343C102.611 27.0043 89.4579 66.5486 100.648 99.5107C104.023 109.417 107.271 119.961 92.9497 124.869C86.9841 126.93 79.249 125.69 73.0645 125.781C63.4867 125.945 53.9819 127.715 45.0244 131.126C26.927 138.059 12.679 150.92 5.85593 169.164C5.58229 169.875 6.43973 170.441 7.06001 170.258C7.24244 170.185 7.4066 170.058 7.51606 169.839C18.0972 147.655 39.8616 133.407 64.0705 130.47C77.1327 128.864 100.594 134.666 106.851 118.447C109.46 111.752 106.906 104.892 104.735 98.4525Z" fill="#2F1E12"/>
</g>
<path d="M91.975 158.664C87.0767 154.313 77.9222 156.308 72.0278 157.627C64.4221 159.333 58.1719 162.726 52.1315 167.548C51.1263 168.349 52.4052 169.595 53.383 169.194C60.051 166.448 67.5855 164.47 74.7679 163.721C80.0329 163.17 86.803 164.89 91.4788 162.312C92.7394 161.617 93.0988 159.66 91.975 158.664Z" fill="white"/>
<path d="M138.157 114.658C135.07 105.142 133.65 95.0752 133.957 85.0705C134.11 80.039 134.838 75.064 136.115 70.193C137.246 65.8803 139.448 61.9014 139.103 57.4081C138.892 54.646 136.057 53.6828 133.995 55.2919C126.559 61.0896 125.642 76.3793 125.459 85.0705C125.222 96.312 128.097 106.733 133.326 116.624C134.699 119.224 139.085 117.52 138.157 114.658Z" fill="white"/>
<path d="M340.567 411.874C340.366 413.024 338.87 413.936 337.739 412.878C332.321 407.824 327.997 402.187 324.421 395.802C321.703 400.6 318.985 405.434 316.267 410.269C315.774 411.163 314.424 411.418 313.694 410.616C310.155 406.748 307.145 402.643 304.554 398.192C303.277 402.716 301.617 407.04 299.428 411.272C299.428 411.783 299.136 412.294 298.717 412.568C298.005 413.534 296.655 412.914 296.509 411.856C291.383 408.08 286.84 403.537 282.407 398.995C278.923 404.96 275.438 410.926 271.954 416.891C271.406 417.84 270.293 417.858 269.527 417.238C263.89 412.622 258.253 408.043 252.616 403.428C250.061 408.572 247.526 413.735 244.534 418.661C244.278 419.099 243.749 419.19 243.33 419.026C242.837 419.299 242.199 419.318 241.67 418.825C228.771 407.277 223.846 389.946 227.276 373.089C229.1 364.004 233.186 355.539 238.714 348.114C246.668 337.387 258.563 328.63 257.596 313.871C255.918 288.367 221.474 281.617 206.296 266.292C194.547 254.398 190.077 237.669 193.726 221.505C193.854 220.939 194.602 220.885 194.93 221.213C195.04 221.322 195.094 221.487 195.076 221.687C193.708 235.789 196.572 250.038 205.894 261.148C213.392 270.105 224.138 275.086 233.953 280.996C245.19 287.747 257.122 296.613 260.387 310.095C263.926 324.653 253.728 334.997 245.099 345.304C227.421 366.375 222.733 395.474 243.421 416.38C245.647 410.98 248.274 405.726 250.864 400.436C251.302 399.524 252.47 399.597 253.163 400.144C258.818 404.705 264.51 409.266 270.166 413.826C273.668 407.733 277.189 401.658 280.692 395.565C281.203 394.653 282.48 394.47 283.228 395.218C287.825 399.925 292.824 404.23 297.512 408.846C299.574 403.829 301.252 398.794 302.456 393.467C302.767 392.135 304.773 391.843 305.412 393.102C307.929 398.028 310.958 402.479 314.57 406.638C317.379 401.603 320.171 396.586 322.962 391.569C323.564 390.493 325.297 390.438 325.881 391.569C329.402 398.484 333.853 404.468 339.417 409.849C360.963 361.669 282.626 351.343 275.712 309.876C272.227 289.17 290.689 281.325 299.373 265.307C309.973 245.769 307.856 223.22 297.093 204.648C295.451 209.647 293.371 214.536 291.492 219.443C291.036 220.629 289.23 221.231 288.555 219.826C286.037 214.609 282.717 210.231 278.576 206.381C277.536 211.289 276.368 216.178 274.654 220.885C275.256 221.852 274.672 223.202 273.705 223.475C273.668 223.585 273.632 223.694 273.577 223.785C273.121 224.898 271.589 224.059 271.753 223.056C271.771 222.964 271.789 222.873 271.808 222.782C267.374 219.772 263.489 216.433 259.274 213.095C254.714 209.446 256.72 209.592 253.418 211.654C250.262 213.642 249.569 222.873 249.095 226.631C248.967 227.781 247.799 228.766 246.632 228.072C243.038 225.902 230.377 215.722 226.254 216.452C224.521 216.762 221.273 230.335 219.96 233.473C219.632 234.275 218.5 234.458 217.825 234.075C210.51 230.043 203.176 226.029 195.952 221.833C195.623 221.651 195.441 221.395 195.35 221.158C195.021 220.173 196.061 218.914 197.247 219.553C200.804 221.359 213.1 230.444 217.023 229.222C220.872 228 222.204 216.451 223.007 212.438C223.226 211.416 224.521 210.924 225.396 211.435L246.176 223.931C247.289 217.163 249.532 211.27 253.345 205.268C253.893 204.393 255.206 204.101 255.991 204.922C261.044 210.303 266.462 214.956 272.501 219.17C273.632 213.77 275.055 208.443 276.131 203.024C276.368 201.766 277.864 201.656 278.704 202.313C283.246 206.016 286.804 210.267 289.65 215.193C291.328 210.559 293.025 205.87 295.104 201.419C294.904 201.109 294.721 200.78 294.521 200.47C293.991 199.686 295.214 198.792 295.798 199.485C295.962 199.649 296.089 199.814 296.217 199.978C297.148 199.704 298.37 200.562 298.042 201.693C298.023 201.82 297.969 201.948 297.914 202.076C308.148 215.594 311.377 233.454 308.039 250.037C306.269 258.886 302.584 267.314 297.056 274.447C287.059 287.4 274.27 295.701 279.926 314.053C288.464 341.783 320.663 348.588 336.9 370.152C345.511 381.572 351.002 399.359 341.023 411.564C340.895 411.728 340.731 411.82 340.567 411.874Z" fill="#2F1E12"/>
<path d="M339.417 409.849C333.853 404.467 329.402 398.483 325.881 391.569C325.297 390.438 323.564 390.493 322.962 391.569C320.171 396.586 317.379 401.603 314.57 406.638C310.958 402.478 307.929 398.027 305.412 393.101C304.773 391.843 302.767 392.134 302.456 393.466C301.252 398.793 299.574 403.829 297.512 408.845C292.824 404.23 287.825 399.924 283.228 395.218C282.48 394.47 281.203 394.652 280.692 395.564C277.189 401.658 273.668 407.733 270.166 413.826C264.51 409.265 258.818 404.704 253.163 400.143C252.47 399.596 251.302 399.523 250.864 400.435C248.274 405.726 245.647 410.98 243.421 416.38C222.733 395.473 227.421 366.375 245.099 345.304C253.728 334.996 263.926 324.652 260.387 310.094C257.122 296.612 245.19 287.746 233.953 280.996C224.138 275.085 213.392 270.105 205.894 261.147C196.572 250.037 193.708 235.789 195.076 221.687C195.094 221.486 195.04 221.322 194.93 221.213L195.35 221.158C195.441 221.395 195.623 221.65 195.952 221.833C203.176 226.029 210.51 230.042 217.825 234.074C218.5 234.457 219.632 234.275 219.96 233.472C221.273 230.334 224.521 216.761 226.254 216.451C230.377 215.721 243.038 225.901 246.632 228.072C247.799 228.765 248.967 227.78 249.095 226.631C249.569 222.873 250.262 213.642 253.418 211.653C256.72 209.592 254.714 209.446 259.274 213.094C263.489 216.433 267.374 219.771 271.808 222.781C271.789 222.873 271.771 222.964 271.753 223.055C271.589 224.059 273.121 224.898 273.577 223.785C273.632 223.694 273.668 223.584 273.705 223.475C274.672 223.201 275.256 221.851 274.654 220.884C276.368 216.177 277.536 211.288 278.576 206.381C282.717 210.23 286.037 214.608 288.555 219.826C289.23 221.231 291.036 220.629 291.492 219.443C293.371 214.535 295.451 209.646 297.093 204.648C307.856 223.219 309.973 245.768 299.373 265.307C290.689 281.324 272.227 289.169 275.712 309.875C282.626 351.342 360.963 361.668 339.417 409.849ZM299.373 354.298C300.906 355.064 302.237 352.747 300.705 351.981C289.084 346.234 278.284 332.698 264.2 340.104C254.403 345.267 242.673 360.136 244.68 371.702C244.753 372.14 245.501 372.049 245.464 371.611C244.351 360.209 258.125 343.005 269.016 340.798C281.312 338.317 289.266 349.19 299.373 354.298ZM263.963 285.539C274.289 286.232 282.006 276.946 286.42 268.663C287.15 267.277 285.216 266.255 284.341 267.496C277.518 276.836 269.746 287.418 256.72 280.996C248.219 276.8 240.63 270.05 233.077 264.395C232.676 264.066 232.165 264.759 232.53 265.124C240.538 272.622 252.287 284.772 263.963 285.539Z" fill="#F5DE97"/>
<path d="M300.705 351.982C302.237 352.748 300.906 355.065 299.373 354.299C289.266 349.191 281.312 338.318 269.016 340.799C258.125 343.006 244.351 360.21 245.464 371.612C245.5 372.05 244.752 372.141 244.68 371.703C242.673 360.137 254.403 345.268 264.2 340.105C278.284 332.699 289.084 346.235 300.705 351.982Z" fill="#2F1E12"/>
<path d="M286.421 268.664C282.006 276.947 274.289 286.233 263.963 285.539C252.287 284.773 240.539 272.623 232.53 265.125C232.165 264.76 232.676 264.067 233.077 264.395C240.63 270.051 248.219 276.801 256.72 280.997C269.746 287.418 277.518 276.837 284.341 267.497C285.217 266.256 287.15 267.278 286.421 268.664Z" fill="#2F1E12"/>
<g opacity="0.6">
<path d="M195.349 221.159C195.441 221.396 195.623 221.652 195.951 221.834C198.31 223.204 200.695 224.534 203.074 225.873C203.061 225.857 203.05 225.838 203.037 225.822C202.107 224.508 201.563 223.217 201.198 221.943C199.524 220.882 198.121 219.997 197.247 219.554C196.061 218.915 195.021 220.174 195.349 221.159Z" fill="#2F1E12"/>
<path d="M246.991 414.387C246.717 412.92 246.482 411.448 246.29 409.968C245.3 412.093 244.311 414.221 243.421 416.381C222.733 395.474 227.421 366.376 245.099 345.304C253.728 334.997 263.926 324.653 260.387 310.095C257.122 296.613 245.19 287.747 233.952 280.997C224.138 275.086 213.392 270.105 205.894 261.148C196.572 250.038 193.708 235.79 195.076 221.687C195.094 221.487 195.039 221.323 194.93 221.213C194.602 220.885 193.854 220.94 193.726 221.505C190.077 237.669 194.547 254.398 206.296 266.292C221.474 281.617 255.917 288.367 257.596 313.871C258.563 328.63 246.668 337.387 238.714 348.114C233.186 355.539 229.1 364.004 227.275 373.089C223.846 389.946 228.771 407.277 241.669 418.825C242.198 419.318 242.837 419.3 243.33 419.026C243.749 419.19 244.278 419.099 244.534 418.661C245.389 417.254 246.199 415.824 246.991 414.387Z" fill="#2F1E12"/>
<path d="M340.567 411.875C340.731 411.82 340.895 411.729 341.023 411.565C351.002 399.36 345.511 381.573 336.9 370.152C320.663 348.589 288.464 341.784 279.926 314.054C274.27 295.701 287.059 287.401 297.056 274.448C302.584 267.315 306.269 258.886 308.039 250.038C310.616 237.233 309.259 223.671 303.801 211.93C304.065 215.037 304.157 218.189 304.069 221.352C308 235.843 306.948 251.341 299.373 265.308C290.689 281.326 272.227 289.17 275.711 309.876C282.626 351.344 360.963 361.669 339.417 409.85C335.736 406.289 332.585 402.43 329.825 398.247C330.567 400.832 331.149 403.483 331.542 406.207C333.446 408.531 335.477 410.77 337.739 412.878C338.87 413.937 340.366 413.024 340.567 411.875Z" fill="#2F1E12"/>
<path d="M240.378 270.047C245.59 274.114 250.942 278.145 256.722 280.999C268.861 286.983 276.432 278.204 282.93 269.421C280.628 271.184 278.13 272.729 275.427 274.013C262.405 280.187 250.711 277.213 240.378 270.047Z" fill="#F5DE97"/>
<path d="M257.039 347.996C250.181 354.595 244.75 364.291 245.463 371.612C245.5 372.05 244.752 372.141 244.679 371.703C242.962 361.814 251.292 349.529 259.867 342.943C260.956 341.806 262.298 340.945 263.78 340.35C263.918 340.274 264.061 340.179 264.199 340.106C278.283 332.699 289.083 346.236 300.704 351.982C302.237 352.749 300.905 355.065 299.373 354.299C290.982 350.058 284.065 341.866 274.923 340.62C275.109 340.712 275.302 340.792 275.481 340.89C298.38 353.54 322.414 372.466 329.824 398.247C332.585 402.431 335.735 406.289 339.417 409.85C360.962 361.67 282.625 351.344 275.711 309.877C272.226 289.17 290.689 281.326 299.373 265.308C306.949 251.343 308 235.843 304.068 221.353C303.59 238.589 297.798 256.057 285.774 267.023C286.389 267.233 286.832 267.88 286.42 268.665C282.005 276.947 274.288 286.233 263.962 285.54C252.286 284.774 240.538 272.624 232.529 265.126C232.164 264.761 232.675 264.068 233.076 264.396C233.687 264.854 234.3 265.328 234.913 265.799C221.851 254.488 211.204 237.339 203.071 225.871C200.692 224.532 198.31 223.204 195.949 221.832C195.621 221.65 195.438 221.395 195.347 221.157L194.928 221.212C195.037 221.322 195.092 221.486 195.074 221.686C193.705 235.789 196.569 250.037 205.892 261.147C213.39 270.104 224.135 275.085 233.95 280.996C245.188 287.746 257.119 296.612 260.385 310.094C263.924 324.652 253.726 334.996 245.097 345.303C227.419 366.375 222.73 395.473 243.418 416.38C244.309 414.22 245.297 412.092 246.288 409.967C243.583 389.073 248.984 367.186 257.039 347.996Z" fill="#F5DE97"/>
<path d="M274.925 340.622C284.066 341.868 290.982 350.058 299.374 354.301C300.907 355.067 302.239 352.75 300.706 351.984C289.085 346.237 278.285 332.701 264.201 340.108C264.063 340.181 263.92 340.276 263.782 340.352C267.334 338.924 271.634 339.039 274.925 340.622Z" fill="#2F1E12"/>
<path d="M257.039 347.995C257.358 347.235 257.672 346.465 257.999 345.711C258.46 344.651 259.106 343.735 259.867 342.942C251.292 349.528 242.962 361.813 244.679 371.703C244.752 372.14 245.5 372.049 245.464 371.611C244.748 364.292 250.181 354.594 257.039 347.995Z" fill="#2F1E12"/>
<path d="M286.42 268.664C286.833 267.883 286.389 267.232 285.775 267.022C284.861 267.856 283.918 268.661 282.929 269.416C276.43 278.198 268.858 286.979 256.72 280.993C250.943 278.142 245.588 274.108 240.376 270.042C238.512 268.75 236.689 267.332 234.914 265.794C234.301 265.324 233.688 264.849 233.077 264.392C232.676 264.063 232.165 264.756 232.53 265.121C240.538 272.619 252.287 284.769 263.963 285.536C274.289 286.233 282.006 276.947 286.42 268.664Z" fill="#2F1E12"/>
</g>
<path d="M252.366 258.274C247.686 256.065 244.331 252.783 241.89 248.226C239.825 244.369 239.833 239.75 237.538 236.094C236.54 234.505 234.356 234.514 233.356 236.094C230.228 241.04 233.143 248.009 236.208 252.354C239.712 257.322 244.921 260.691 250.704 262.359C253.07 263.039 254.681 259.367 252.366 258.274Z" fill="white"/>
<path d="M260.652 374.579C262.338 370.631 264.315 366.848 266.787 363.332C269.227 359.861 272.339 356.861 274.42 353.156C275.614 351.033 273.193 348.656 271.08 349.816C263.097 354.201 258.56 364.325 255.57 372.511C254.508 375.419 259.419 377.473 260.652 374.579Z" fill="white"/>
</svg>
