<svg width="198" height="197" viewBox="0 0 198 197" fill="none" xmlns="http://www.w3.org/2000/svg">
<path d="M141.758 109.466C154.017 119.572 165.501 139.704 150.805 153.252C140.397 162.856 128.673 156.685 118.689 149.118C124.066 156.446 129.904 165.242 124.195 173.526C119.043 180.997 108.198 181.367 100.266 179.101C88.6728 175.784 79.4211 167.096 72.9985 157.152C67.3331 148.38 61.3842 136.372 64.4029 125.756C64.4905 125.473 64.7519 125.307 65.0113 125.307C65.3506 125.297 65.686 125.488 65.6483 125.911C63.9731 143.425 76.0618 163.179 90.6125 172.481C98.4309 177.48 110.501 181.292 119.036 175.75C130.664 168.195 121.767 156.061 116.187 147.171C114.151 145.546 112.214 143.941 110.387 142.435C112.589 146.174 113.701 150.458 114.286 154.756C114.367 155.395 113.563 155.733 113.087 155.462C103.836 150.313 95.7758 141.842 93.1728 131.372C85.6427 127.946 77.5368 125.822 69.2103 125.22C67.8112 125.108 66.4142 125.089 65.0072 125.119C55.9887 125.309 46.8977 127.735 38.0039 126.31C18.1665 123.124 17.7804 99.8398 22.2849 84.3481C22.3207 84.2204 22.4045 84.1385 22.5082 84.0866C23.7095 80.715 26.5855 77.8174 29.8274 76.129C36.044 72.8959 43.9666 72.1924 51.3072 72.7685C51.5646 72.6745 51.8221 72.7103 52.0397 72.8159C53.323 72.9368 54.6043 73.0937 55.8338 73.2765C55.7778 73.1149 55.7139 72.9672 55.6499 72.8196C50.8106 60.8144 52.9958 48.0564 63.9473 40.2262C74.8689 32.416 88.8038 33.7722 100.625 38.4427C108.497 41.5629 115.963 45.8789 124.245 47.8254C132.598 49.7759 138.374 47.2177 146.334 46.0911C150.866 45.4535 153.507 46.4417 155.328 50.6854C158.132 57.2316 157.711 66.8652 158.687 73.8875C158.768 74.3964 158.217 74.8418 157.756 74.8381C152.499 74.8953 147.419 75.5531 142.318 76.8296C141.734 76.9777 141.3 76.6008 141.18 76.1618C141.062 75.6869 141.222 75.1479 141.82 75.0079C144.48 74.3396 147.114 73.7492 149.828 73.4082C155.068 72.7303 155.837 73.558 155.988 68.0677C156.073 64.8007 155.363 59.4865 154.352 56.3898C150.544 44.6215 147.796 47.8144 140.487 49.6831C132.234 51.8098 124.39 50.1683 116.776 47.3432C114.233 46.4109 111.698 45.3348 109.201 44.2248C102.863 41.4049 95.5923 38.6275 88.3651 37.4306C77.1559 35.5179 66.0569 37.373 58.8416 48.6873C53.7796 56.6176 54.8509 65.4539 58.4684 73.7238C58.5902 73.7377 58.7259 73.7596 58.8397 73.7875C59.6101 73.9307 59.5867 74.7509 59.1459 75.1663C62.5632 82.3587 67.8102 89.039 72.4635 94.195C81.7701 104.507 93.3039 114.811 105.384 121.723C112.895 126.027 122.171 128.763 130.061 123.669C133.713 121.326 136.254 117.847 137.997 113.915C138.031 113.693 138.121 113.504 138.258 113.36C140.064 109.092 140.951 104.355 141.307 99.9646C142.543 84.5529 138.526 67.0151 126.854 56.2058C113.312 43.6434 89.866 43.826 82.1723 62.407C82.8138 63.7178 83.4991 65.0166 84.2024 66.2515C84.9956 67.6859 85.8147 69.0424 86.6178 70.2972C96.8949 62.675 113.306 62.5169 123.381 70.637C121.939 66.3132 119.911 62.4328 117.581 59.7321C107.229 47.8423 90.2255 50.6631 85.6771 66.037C85.482 66.7037 84.5061 66.7582 84.2324 66.2315C84.1664 66.1198 84.1444 65.996 84.1523 65.8523C85.5589 49.5564 104.536 45.8423 115.969 54.8297C126.795 63.3225 133.251 87.4945 123.784 98.9879C111.221 114.253 91.7127 82.5038 86.1474 74.271C81.5629 67.4685 75.3568 58.9627 76.9198 50.1846C77.9538 44.3465 81.9984 39.9852 87.8553 39.2331C87.9352 39.2231 88.007 39.227 88.0569 39.237C88.7415 39.3683 88.8321 40.6055 88.0539 40.7358C76.3244 42.7868 77.5618 52.2737 81.5968 61.2079C86.214 50.486 97.8491 44.25 109.535 45.7493C112.04 46.067 114.427 46.6881 116.693 47.5548C127.5 51.6651 135.633 61.4369 139.623 72.2352C140.089 73.4643 140.505 74.8131 140.887 76.2538C143.41 85.5662 144.314 98.6236 141.661 109.41C141.689 109.426 141.725 109.428 141.758 109.466ZM135.054 155.176C147.381 157.338 156.231 146.567 155.236 134.773C154.417 125.266 147.879 117.7 141.049 111.618C140.81 112.426 140.522 113.225 140.227 114.001C148.166 120.087 154.393 131.087 147.264 140.302C144.969 143.253 140.477 146.062 136.644 144.338C134.352 143.29 133.143 140.896 131.974 138.821C129.998 135.304 128.104 131.741 126.401 128.102C123.767 128.822 120.778 129.061 117.391 128.666C103.851 127.072 91.7377 115.511 81.9632 106.896C77.6879 103.122 73.5124 99.1098 69.6998 94.7855C64.4752 88.8775 59.9169 82.3863 56.6712 75.2178C55.0027 75.0253 53.3462 74.8766 51.6657 74.7699C48.1134 78.0412 45.4176 81.8567 43.8939 86.5077C42.6211 90.3942 43.2783 94.5668 42.0274 98.3176C51.0508 99.4833 59.9006 97.6416 68.9455 95.0035C69.1071 94.9475 69.2329 95.0193 69.3208 95.125C69.4347 95.2826 69.4288 95.5201 69.2273 95.6459C61.3654 100.626 51.2958 101.846 42.2045 100.605C36.117 99.7802 26.0534 97.8727 22.9142 91.6541C22.6044 90.9957 22.3665 90.3412 22.2005 89.6907C21.0361 97.7701 21.0458 106.649 24.1518 113.997C29.0487 125.609 41.7771 125.184 52.3656 123.964C66.6379 122.326 80.3113 123.459 93.5885 129.312C100.576 132.391 106.767 136.572 112.596 141.454C119.313 147.084 126.074 153.609 135.054 155.176ZM142.743 141.798C144.74 140.863 146.18 138.664 147.077 136.768C150.925 128.627 145.747 120.819 139.541 115.722C137.046 121.393 133.149 125.82 127.451 127.756C129.447 130.784 131.279 133.904 133.081 137.044C134.943 140.274 136.616 144.712 142.743 141.798ZM112.425 153.213C111.616 148.917 110.011 145.204 108.173 141.153C108.083 140.954 108.107 140.782 108.172 140.635C107.771 140.331 107.372 139.992 106.984 139.697C103.023 136.64 98.7485 134.035 94.2687 131.886C98.5532 140.74 103.846 148.021 112.425 153.213ZM122.752 95.3424C125.639 90.8023 126.13 84.2281 125.124 77.7447C121.909 80.393 118.797 83.1192 116.079 86.2921C113.193 89.6288 111.194 93.4898 108.534 96.9181C113.711 100.539 118.91 101.394 122.752 95.3424ZM124.94 76.6391C124.671 75.2263 124.345 73.8176 123.959 72.4488C111.928 65.2878 99.7022 64.7029 87.5727 71.8054C88.4916 73.1818 89.3386 74.4246 90.0338 75.4141C92.8343 79.4017 99.9959 90.3237 107.412 96.0926C110.217 88.1898 117.949 80.9683 124.94 76.6391ZM41.8558 98.2937C39.6761 94.6789 41.0675 89.0261 42.3903 85.2793C43.8087 81.2351 46.1234 77.6653 49.1191 74.6877C44.477 74.5769 39.8372 74.9491 35.3337 76.2512C30.3473 77.6853 23.6577 80.8707 24.077 87.4084C24.4075 92.5432 29.0569 94.6218 33.1251 96.1279C36.0635 97.2117 38.9657 97.9044 41.8558 98.2937Z" fill="#2F1E12"/>
<path d="M155.236 134.773C156.231 146.567 147.381 157.337 135.054 155.176C126.074 153.609 119.313 147.083 112.596 141.454C106.767 136.572 100.576 132.391 93.5887 129.312C80.3115 123.459 66.6381 122.326 52.3658 123.964C41.7773 125.184 29.0489 125.609 24.152 113.997C21.0459 106.649 21.0363 97.7699 22.2006 89.6905C22.3667 90.341 22.6046 90.9955 22.9144 91.6539C26.0536 97.8725 36.1172 99.78 42.2047 100.604C51.296 101.846 61.3656 100.626 69.2275 95.6457C69.429 95.5199 69.4348 95.2824 69.321 95.1248L69.6999 94.7853C73.5125 99.1096 77.6881 103.122 81.9633 106.895C91.7379 115.511 103.851 127.072 117.391 128.666C120.778 129.061 123.768 128.822 126.402 128.102C128.104 131.741 129.998 135.304 131.974 138.821C133.143 140.896 134.352 143.29 136.644 144.338C140.477 146.062 144.969 143.253 147.265 140.302C154.393 131.087 148.166 120.087 140.227 114.001C140.522 113.224 140.811 112.426 141.05 111.618C147.879 117.7 154.418 125.266 155.236 134.773Z" fill="#F5D9B4"/>
<path d="M147.077 136.768C146.18 138.665 144.74 140.863 142.743 141.798C136.616 144.712 134.943 140.275 133.081 137.045C131.279 133.905 129.447 130.784 127.451 127.756C133.15 125.821 137.047 121.394 139.542 115.722C145.747 120.819 150.925 128.627 147.077 136.768Z" fill="#F5D9B4"/>
<path d="M116.187 147.172C121.767 156.061 130.664 168.195 119.036 175.751C110.501 181.292 98.4309 177.48 90.6125 172.482C76.0618 163.179 63.9731 143.425 65.6483 125.912C65.686 125.488 65.3506 125.297 65.0113 125.307L65.0072 125.12C66.4142 125.089 67.8112 125.108 69.2102 125.221C77.5368 125.822 85.6427 127.946 93.1727 131.372C95.7758 141.842 103.836 150.313 113.087 155.462C113.563 155.733 114.367 155.395 114.286 154.757C113.701 150.458 112.589 146.174 110.387 142.436C112.214 143.941 114.151 145.546 116.187 147.172Z" fill="#F5D9B4"/>
<path d="M137.997 113.915C136.253 117.847 133.713 121.326 130.06 123.669C122.171 128.763 112.895 126.027 105.384 121.723C93.3036 114.811 81.7698 104.507 72.4632 94.1949C67.8099 89.0389 62.5629 82.3586 59.1456 75.1663C59.5864 74.7509 59.6098 73.9306 58.8394 73.7874C58.7256 73.7595 58.5899 73.7377 58.4681 73.7238C54.8506 65.4538 53.7793 56.6175 58.8414 48.6873C66.0566 37.373 77.1556 35.5178 88.3648 37.4306L88.0566 39.2369C88.0067 39.227 87.9349 39.223 87.8551 39.233C81.9981 39.9852 77.9536 44.3464 76.9195 50.1845C75.3565 58.9627 81.5626 67.4685 86.1471 74.2709C91.7124 82.5037 111.221 114.253 123.784 98.9878C133.25 87.4945 126.795 63.3225 115.969 54.8296C104.535 45.8422 85.5586 49.5563 84.152 65.8523C84.1441 65.996 84.1661 66.1197 84.2321 66.2314L84.2021 66.2514C83.4989 65.0165 82.8135 63.7177 82.172 62.4069C89.8657 43.8259 113.311 43.6433 126.854 56.2057C138.526 67.0151 142.543 84.5529 141.307 99.9646C140.951 104.355 140.064 109.092 138.258 113.36C138.121 113.504 138.031 113.693 137.997 113.915Z" fill="#F5D9B4"/>
<path d="M155.987 68.0681C155.837 73.5584 155.068 72.7307 149.828 73.4086C147.114 73.7496 144.48 74.34 141.82 75.0082C141.222 75.1483 141.062 75.6873 141.18 76.1622L140.887 76.2542C140.505 74.8135 140.089 73.4647 139.623 72.2356C135.633 61.4373 127.5 51.6655 116.693 47.5552L116.776 47.3436C124.39 50.1687 132.234 51.8102 140.487 49.6835C147.796 47.8148 150.544 44.6219 154.351 56.3902C155.363 59.4869 156.073 64.801 155.987 68.0681Z" fill="#F5D9B4"/>
<path d="M108.173 141.154C110.012 145.204 111.617 148.917 112.426 153.213C103.847 148.022 98.5535 140.741 94.269 131.886C98.7488 134.035 103.023 136.641 106.985 139.698C107.372 139.993 107.771 140.332 108.173 140.635C108.107 140.782 108.083 140.954 108.173 141.154Z" fill="#F5D9B4"/>
<path d="M123.959 72.4489C124.345 73.8177 124.671 75.2264 124.939 76.6392C117.949 80.9684 110.216 88.1898 107.411 96.0927C99.9955 90.3238 92.8339 79.4018 90.0334 75.4142C89.3383 74.4247 88.4913 73.1819 87.5724 71.8055C99.7018 64.703 111.928 65.2879 123.959 72.4489Z" fill="#F5D9B4"/>
<path d="M123.381 70.6367C113.306 62.5165 96.8952 62.6747 86.6181 70.2969C85.8151 69.0421 84.996 67.6855 84.2027 66.2511L84.2327 66.2311C84.5064 66.7578 85.4823 66.7033 85.6774 66.0366C90.2259 50.6627 107.23 47.8419 117.581 59.7318C119.912 62.4325 121.94 66.3129 123.381 70.6367Z" fill="#F5D9B4"/>
<path d="M116.777 47.3431L116.693 47.5547C114.427 46.688 112.04 46.0669 109.535 45.7491C97.8494 44.2498 86.2143 50.4859 81.5971 61.2078C77.562 52.2736 76.3246 42.7867 88.0541 40.7356C88.8324 40.6054 88.7418 39.3681 88.0572 39.2368L88.3654 37.4305C95.5926 38.6273 102.863 41.4047 109.201 44.2246C111.698 45.3347 114.234 46.4107 116.777 47.3431Z" fill="#F5D9B4"/>
<path d="M69.6996 94.7853L69.3206 95.1248C69.2327 95.0191 69.1069 94.9473 68.9453 95.0033C59.9004 97.6414 51.0506 99.4831 42.0272 98.3174C43.2781 94.5667 42.6209 90.394 43.8937 86.5075C45.4174 81.8566 48.1132 78.041 51.6655 74.7698C53.346 74.8765 55.0025 75.0251 56.671 75.2176C59.9167 82.3862 64.475 88.8773 69.6996 94.7853Z" fill="#F5D9B4"/>
<path d="M42.3906 85.279C41.0679 89.0258 39.6765 94.6786 41.8561 98.2934C38.9661 97.9041 36.0638 97.2115 33.1255 96.1277C29.0572 94.6215 24.4079 92.5429 24.0773 87.4082C23.658 80.8705 30.3476 77.685 35.334 76.2509C39.8375 74.9488 44.4773 74.5767 49.1194 74.6875C46.1238 77.665 43.809 81.2348 42.3906 85.279Z" fill="#F5D9B4"/>
<g opacity="0.6">
<path d="M68.9456 95.0034C59.9007 97.6415 51.0509 99.4832 42.0275 98.3175C43.2785 94.5667 42.6212 90.3941 43.894 86.5076C45.4178 81.8566 48.1135 78.0411 51.6658 74.7698C53.3463 74.8765 55.0028 75.0251 56.6714 75.2177C59.917 82.3862 64.4753 88.8774 69.6999 94.7854C70.1171 95.2587 70.5489 95.7162 70.9782 96.178C67.8079 91.6403 65.0775 86.7961 62.8593 81.7717C61.494 79.6385 60.2236 77.4335 59.146 75.1662C59.5868 74.7508 59.6102 73.9306 58.8398 73.7874C58.726 73.7595 58.5903 73.7376 58.4686 73.7237C55.6373 67.251 54.3816 60.4325 56.3888 53.9732C56.3447 52.0734 56.3888 50.1812 56.5217 48.2989C52.3373 55.5221 52.2371 64.3532 55.65 72.8195C55.714 72.9671 55.7779 73.1148 55.8339 73.2764C54.6044 73.0936 53.3231 72.9367 52.0398 72.8158C51.8222 72.7102 51.5647 72.6744 51.3073 72.7684C43.9667 72.1923 36.0442 72.8958 29.8276 76.1289C26.5856 77.8173 23.7096 80.7149 22.5083 84.0865C22.4046 84.1384 22.3208 84.2203 22.285 84.348C21.6567 86.5108 21.1266 88.8295 20.7293 91.2205C21.159 91.1396 21.5942 91.0878 22.0318 91.0708C22.0902 90.6113 22.1366 90.1469 22.202 89.6914C22.3188 90.149 22.4852 90.6107 22.6731 91.0736C23.7677 91.1128 24.8582 91.3607 25.8833 91.866C24.8781 90.696 24.1978 89.2519 24.0785 87.4091C23.6592 80.8714 30.3488 77.686 35.3352 76.2519C39.8387 74.9498 44.4785 74.5776 49.1206 74.6884C46.125 77.666 43.8102 81.2358 42.3918 85.28C41.0691 89.0268 39.6777 94.6796 41.8573 98.2944C38.9672 97.9051 36.065 97.2124 33.1266 96.1286C31.6123 95.5684 30.0182 94.9274 28.5953 94.0803C28.7505 94.2726 28.904 94.4677 29.0495 94.6803C30.1651 96.3191 31.425 97.6012 32.795 98.6125C36.0822 99.6693 39.5293 100.241 42.2068 100.604C45.1817 101.01 48.26 101.121 51.3319 100.955C55.9143 100.119 60.5972 98.8039 64.9942 97.8412C66.4532 97.2028 67.8835 96.4981 69.2297 95.6452C69.4311 95.5194 69.437 95.2819 69.3231 95.1243C69.2331 95.0191 69.1073 94.9474 68.9456 95.0034Z" fill="#2F1E12"/>
<path d="M128.554 48.4716C127.182 48.3783 125.758 48.1768 124.245 47.8249C115.964 45.8784 108.497 41.5624 100.626 38.4421C92.9961 35.4281 84.4903 33.813 76.48 35.1315C76.125 35.8348 75.8097 36.5496 75.5022 37.2671C79.6241 36.5235 83.9846 36.6829 88.3655 37.4301C95.5928 38.627 102.863 41.4044 109.201 44.2243C111.698 45.3343 114.234 46.4104 116.777 47.3427C120.273 48.6409 123.821 49.6631 127.431 50.2116C127.719 49.5738 128.092 48.986 128.554 48.4716Z" fill="#2F1E12"/>
<path d="M158.688 73.8872C157.939 68.5046 158.007 61.5908 156.819 55.7056C156.069 56.1725 155.31 56.6216 154.544 57.0552C155.45 60.2044 156.067 65.0155 155.988 68.0674C155.837 73.5577 155.069 72.73 149.828 73.4079C147.114 73.7489 144.48 74.3393 141.82 75.0076C141.222 75.1477 141.063 75.6866 141.181 76.1615C141.301 76.6005 141.734 76.9774 142.319 76.8293C147.419 75.5528 152.499 74.895 157.756 74.8378C158.217 74.8415 158.768 74.3961 158.688 73.8872Z" fill="#2F1E12"/>
<path d="M69.2107 125.22C70.7618 125.332 72.3012 125.514 73.8345 125.729C75.7721 125.379 77.7632 125.669 79.3393 126.731C84.101 127.801 88.7396 129.353 93.174 131.37C95.7771 141.84 103.837 150.31 113.089 155.459C113.564 155.731 114.368 155.393 114.288 154.754C113.702 150.456 112.59 146.172 110.388 142.433C112.215 143.939 114.152 145.544 116.189 147.169C121.764 156.053 130.652 168.176 119.059 175.733C119.705 176.096 120.354 176.453 121.007 176.805C122.211 175.909 123.295 174.83 124.196 173.524C129.905 165.24 124.068 156.444 118.691 149.115C128.674 156.683 140.399 162.854 150.806 153.25C165.502 139.702 154.018 119.57 141.76 109.464C141.726 109.426 141.69 109.424 141.662 109.408C144.315 98.6215 143.411 85.5641 140.888 76.2517C140.506 74.811 140.09 73.4622 139.625 72.2331C138.355 68.7987 136.665 65.4723 134.605 62.3944C134.559 62.3905 134.515 62.3931 134.468 62.3905C133.467 62.3139 132.564 62.0878 131.756 61.7486C139.632 72.4598 142.349 86.9607 141.307 99.9617C140.951 104.353 140.064 109.089 138.258 113.357C138.121 113.501 138.031 113.69 137.997 113.912C136.253 117.845 133.713 121.323 130.06 123.666C125.831 126.397 121.203 126.865 116.661 126.059C115.386 126.482 113.92 126.568 112.291 126.17C108.229 125.179 104.28 123.73 100.477 121.902C105.788 125.346 111.452 127.962 117.39 128.661C120.777 129.056 123.767 128.817 126.401 128.097C128.103 131.736 129.997 135.299 131.973 138.816C133.142 140.891 134.351 143.285 136.643 144.333C140.476 146.057 144.968 143.248 147.264 140.297C154.392 131.082 148.165 120.082 140.226 113.996C140.521 113.22 140.81 112.421 141.049 111.613C147.878 117.695 154.417 125.261 155.235 134.768C156.23 146.562 147.38 157.332 135.053 155.171C126.074 153.604 119.312 147.078 112.595 141.449C106.766 136.567 100.575 132.386 93.5878 129.307C80.3105 123.454 66.6372 122.321 52.3648 123.959C41.7763 125.179 29.0479 125.604 24.151 113.992C23.7912 113.142 23.484 112.269 23.2034 111.38C22.4115 110.762 21.6413 110.102 20.8965 109.401C22.8191 117.8 27.8687 124.677 38.0032 126.305C46.897 127.73 55.9879 125.304 65.0064 125.114C66.4146 125.088 67.8116 125.107 69.2107 125.22ZM139.542 115.721C145.748 120.818 150.925 128.626 147.077 136.767C146.18 138.664 144.741 140.862 142.743 141.797C136.616 144.711 134.943 140.273 133.081 137.044C131.279 133.903 129.447 130.783 127.451 127.755C133.15 125.82 137.047 121.393 139.542 115.721ZM106.985 139.697C107.372 139.992 107.772 140.331 108.173 140.634C108.107 140.782 108.083 140.953 108.173 141.153C110.012 145.203 111.617 148.916 112.426 153.212C103.847 148.021 98.5536 140.74 94.2692 131.885C98.7489 134.034 103.023 136.64 106.985 139.697Z" fill="#2F1E12"/>
<path d="M65.5079 129.296C65.5054 128.161 65.5416 127.029 65.6484 125.91C65.6861 125.487 65.3507 125.296 65.0114 125.306C64.752 125.306 64.4906 125.472 64.403 125.755C63.9241 127.442 63.6925 129.166 63.6274 130.904C64.1658 130.259 64.8021 129.721 65.5079 129.296Z" fill="#2F1E12"/>
<path d="M86.1479 74.2704C91.7133 82.5032 111.222 114.253 123.785 98.9873C133.251 87.494 126.796 63.3219 115.97 54.8291C104.536 45.8417 85.5594 49.5558 84.1529 65.8517C84.145 65.9954 84.167 66.1192 84.2329 66.2309C84.5067 66.7576 85.4825 66.7031 85.6777 66.0364C90.2261 50.6625 107.23 47.8417 117.581 59.7315C119.912 62.4323 121.94 66.3126 123.382 70.6364C113.306 62.5163 96.8955 62.6744 86.6184 70.2966C85.8153 69.0418 84.9962 67.6853 84.203 66.2509C83.4997 65.016 82.8144 63.7172 82.1729 62.4064C89.8665 43.8254 113.312 43.6428 126.855 56.2052C126.951 56.2933 127.036 56.3917 127.131 56.4812C126.836 55.5203 126.698 54.5189 126.716 53.534C123.719 51.0129 120.365 48.9507 116.693 47.5542C114.428 46.6876 112.04 46.0664 109.536 45.7487C97.8497 44.2494 86.2146 50.4854 81.5974 61.2074C77.5623 52.2731 76.3249 42.7863 88.0544 40.7352C88.8327 40.605 88.7421 39.3677 88.0575 39.2364C88.0076 39.2264 87.9357 39.2225 87.8559 39.2325C81.999 39.9846 77.9544 44.3459 76.9204 50.184C75.3573 58.9622 81.5634 67.4679 86.1479 74.2704ZM122.753 95.3418C118.911 101.393 113.712 100.538 108.534 96.9175C111.194 93.4892 113.194 89.6282 116.079 86.2915C118.798 83.1186 121.909 80.3924 125.125 77.7441C126.13 84.2275 125.64 90.8017 122.753 95.3418ZM123.96 72.4482C124.346 73.817 124.672 75.2258 124.94 76.6386C117.95 80.9677 110.217 88.1892 107.412 96.092C99.9965 90.3231 92.8349 79.4011 90.0343 75.4135C89.3392 74.424 88.4922 73.1812 87.5733 71.8048C99.7028 64.7023 111.929 65.2872 123.96 72.4482Z" fill="#2F1E12"/>
<path d="M64.9918 97.8416C67.2151 97.3541 69.367 96.9591 71.3911 96.7654C71.2527 96.5698 71.1143 96.3741 70.9772 96.1792C70.5479 95.7174 70.1169 95.2585 69.6989 94.7866L69.3199 95.1261C69.4338 95.2837 69.428 95.5212 69.2265 95.647C67.8811 96.4985 66.4516 97.2019 64.9918 97.8416Z" fill="#F5D9B4"/>
<path d="M51.3294 100.955C48.2575 101.121 45.1792 101.01 42.2044 100.604C39.5269 100.241 36.0805 99.6678 32.7925 98.6123C37.8598 102.358 44.4751 102.205 51.3294 100.955Z" fill="#F5D9B4"/>
<path d="M155.236 134.772C154.417 125.265 147.878 117.7 141.049 111.617C140.81 112.426 140.521 113.224 140.227 114.001C148.165 120.086 154.393 131.087 147.264 140.302C144.969 143.253 140.476 146.062 136.644 144.338C134.352 143.289 133.143 140.895 131.974 138.821C129.998 135.303 128.104 131.74 126.401 128.101C123.767 128.821 120.778 129.061 117.391 128.666C111.452 127.967 105.79 125.349 100.477 121.907C93.0186 118.323 86.1327 113.259 80.1297 107.183C79.2032 110.066 76.8308 112.468 72.96 112.654C62.6838 113.149 52.976 117.543 42.625 117.746C35.024 117.896 28.5818 115.593 23.2046 111.387C23.4838 112.274 23.7925 113.149 24.1522 113.999C29.0491 125.611 41.7776 125.186 52.366 123.965C66.6384 122.328 80.3117 123.461 93.589 129.314C100.576 132.393 106.767 136.574 112.596 141.455C119.313 147.085 126.075 153.611 135.054 155.178C147.381 157.337 156.231 146.566 155.236 134.772Z" fill="#F5D9B4"/>
<path d="M147.077 136.767C146.18 138.664 144.74 140.862 142.743 141.797C136.616 144.711 134.943 140.274 133.081 137.044C131.279 133.904 129.447 130.783 127.451 127.755C133.15 125.82 137.047 121.393 139.542 115.721C145.747 120.818 150.925 128.626 147.077 136.767Z" fill="#F5D9B4"/>
<path d="M113.088 155.461C103.836 150.312 95.776 141.842 93.1729 131.372C88.7385 129.355 84.1007 127.801 79.3382 126.733C80.7149 127.661 81.7746 129.177 82.2002 131.372C86.2409 152.225 101.491 165.886 119.058 175.737C130.652 168.18 121.764 156.057 116.188 147.173C114.152 145.548 112.215 143.943 110.388 142.437C112.589 146.176 113.702 150.46 114.287 154.758C114.367 155.395 113.563 155.732 113.088 155.461Z" fill="#F5D9B4"/>
<path d="M69.1142 128.109C70.4224 126.871 72.1039 126.041 73.834 125.73C72.3015 125.513 70.7607 125.33 69.2102 125.22C67.8111 125.107 66.4141 125.088 65.0071 125.119L65.0112 125.307C65.3505 125.296 65.6859 125.488 65.6483 125.911C65.5406 127.031 65.5044 128.163 65.5077 129.297C66.596 128.639 67.84 128.241 69.1142 128.109Z" fill="#F5D9B4"/>
<path d="M62.8593 81.7715C58.9165 72.838 56.6062 63.3354 56.3896 53.9717C54.3817 60.4323 55.6381 67.2495 58.4694 73.7222C58.5911 73.736 58.7269 73.7579 58.8406 73.7858C59.6111 73.929 59.5877 74.7492 59.1469 75.1646C60.2222 77.4325 61.4941 79.6383 62.8593 81.7715Z" fill="#F5D9B4"/>
<path d="M137.997 113.914C138.031 113.692 138.121 113.503 138.258 113.359C140.064 109.091 140.951 104.355 141.307 99.9638C142.35 86.9614 139.632 72.4619 131.756 61.7507C129.363 60.7488 127.821 58.7349 127.13 56.4809C127.035 56.3914 126.95 56.2931 126.854 56.2049C113.311 43.6425 89.8659 43.8251 82.1722 62.4061C82.8137 63.7169 83.4991 65.0157 84.2023 66.2506L84.2323 66.2306C84.1663 66.1189 84.1443 65.9952 84.1522 65.8515C85.5588 49.5555 104.536 45.8414 115.969 54.8288C126.795 63.3217 133.251 87.4937 123.784 98.9871C111.221 114.252 91.7126 82.5029 86.1473 74.2701C81.5628 67.4677 75.3567 58.9619 76.9197 50.1837C77.9538 44.3456 81.9983 39.9844 87.8552 39.2322C87.9351 39.2222 88.0069 39.2262 88.0568 39.2361L88.365 37.4298C83.9841 36.6826 79.6236 36.5231 75.5017 37.2667C63.5948 65.0793 87.2594 103.596 116.24 110.673C124.635 112.723 123.199 123.895 116.661 126.061C121.202 126.866 125.83 126.398 130.061 123.668C133.713 121.325 136.254 117.847 137.997 113.914Z" fill="#F5D9B4"/>
<path d="M127.431 50.2116C123.82 49.6631 120.273 48.6396 116.776 47.3428L116.693 47.5544C120.364 48.9508 123.719 51.0131 126.715 53.5341C126.736 52.3678 126.97 51.2269 127.431 50.2116Z" fill="#F5D9B4"/>
<path d="M155.988 68.0669C156.067 65.0164 155.451 60.2039 154.545 57.0547C148.395 60.5465 141.74 62.9015 134.604 62.3957C136.663 65.4728 138.355 68.8 139.624 72.2344C140.09 73.4635 140.506 74.8123 140.888 76.253L141.181 76.161C141.063 75.6861 141.222 75.1471 141.821 75.0071C144.481 74.3388 147.115 73.7484 149.829 73.4074C155.069 72.7295 155.838 73.5572 155.988 68.0669Z" fill="#F5D9B4"/>
<path d="M108.173 141.153C110.012 145.203 111.617 148.916 112.426 153.212C103.847 148.021 98.5535 140.74 94.269 131.885C98.7488 134.034 103.023 136.64 106.985 139.697C107.372 139.992 107.771 140.331 108.173 140.634C108.107 140.782 108.083 140.953 108.173 141.153Z" fill="#F5D9B4"/>
<path d="M123.96 72.4479C124.346 73.8167 124.672 75.2255 124.94 76.6383C117.95 80.9674 110.217 88.1889 107.412 96.0917C99.9965 90.3228 92.8349 79.4008 90.0344 75.4132C89.3392 74.4237 88.4923 73.1809 87.5733 71.8045C99.7028 64.702 111.929 65.2869 123.96 72.4479Z" fill="#F5D9B4"/>
<path d="M123.381 70.6367C113.306 62.5165 96.8952 62.6747 86.6181 70.2969C85.8151 69.0421 84.996 67.6855 84.2027 66.2511L84.2327 66.2311C84.5064 66.7578 85.4823 66.7033 85.6774 66.0366C90.2259 50.6627 107.23 47.8419 117.581 59.7318C119.912 62.4325 121.94 66.3129 123.381 70.6367Z" fill="#F5D9B4"/>
<path d="M116.777 47.3431L116.693 47.5547C114.427 46.688 112.04 46.0669 109.535 45.7491C97.8494 44.2498 86.2143 50.4859 81.5971 61.2078C77.562 52.2736 76.3246 42.7867 88.0541 40.7356C88.8324 40.6054 88.7418 39.3681 88.0572 39.2368L88.3654 37.4305C95.5926 38.6273 102.863 41.4047 109.201 44.2246C111.698 45.3347 114.234 46.4107 116.777 47.3431Z" fill="#F5D9B4"/>
<path d="M69.6996 94.7853L69.3206 95.1248C69.2327 95.0191 69.1069 94.9473 68.9453 95.0033C59.9004 97.6414 51.0506 99.4831 42.0272 98.3174C43.2781 94.5667 42.6209 90.394 43.8937 86.5075C45.4174 81.8566 48.1132 78.041 51.6655 74.7698C53.346 74.8765 55.0025 75.0251 56.671 75.2176C59.9167 82.3862 64.475 88.8773 69.6996 94.7853Z" fill="#F5D9B4"/>
<path d="M25.8823 91.8645C26.8722 92.3534 27.7949 93.0837 28.595 94.0774C30.0179 94.9245 31.6121 95.5655 33.1264 96.1257C36.0648 97.2095 38.967 97.9022 41.8571 98.2915C39.6774 94.6766 41.0688 89.0239 42.3916 85.2771C43.81 81.2329 46.1247 77.663 49.1204 74.6855C44.4783 74.5747 39.8385 74.9469 35.335 76.249C30.3486 77.6831 23.659 80.8685 24.0783 87.4062C24.1968 89.2504 24.8771 90.6944 25.8823 91.8645Z" fill="#F5D9B4"/>
</g>
<path d="M82.5124 94.0528C77.3799 88.3308 72.5635 82.1555 69.724 74.9538C68.2458 71.2038 67.281 67.304 66.9386 63.2776C66.6661 60.0767 67.1836 56.9782 66.2666 53.8874C65.8566 52.5086 63.8786 52.1766 63.1562 53.4946C59.6056 59.9642 62.6755 70.4763 65.2694 76.8098C68.5453 84.8052 73.7226 91.455 81.4906 95.389C82.3503 95.8239 83.1589 94.7737 82.5124 94.0528Z" fill="white"/>
<path d="M55.537 104.536C47.3828 103.961 39.7282 103.617 31.9503 100.808C30.547 100.299 29.621 102.594 30.9636 103.251C38.7022 107.039 47.4041 109.596 56.0483 108.205C58.2681 107.847 57.5119 104.676 55.537 104.536Z" fill="white"/>
</svg>
