<svg width="164" height="118" viewBox="0 0 164 118" fill="none" xmlns="http://www.w3.org/2000/svg">
<path d="M161.314 83.6464C161.254 83.9367 161.178 84.2239 161.087 84.508C160.703 85.7521 160.208 86.9088 159.489 88.0031C159.236 88.3808 158.981 88.7586 158.729 89.1363C157.247 93.9145 152.549 98.5225 149.316 101.983C142.465 109.303 136.179 115.192 125.566 115.565C115.675 115.913 105.487 114.382 95.6276 113.652C79.128 112.426 62.6456 111.124 46.1445 109.979C49.2915 108.015 51.7329 104.454 53.8839 101.838C58.7338 95.8751 63.5229 89.5953 66.3936 82.4101C68.0108 78.3609 68.9192 71.2647 66.3093 67.6963C83.3848 69.6787 100.526 71.1164 117.592 73.1441C127.158 74.2914 136.711 75.5012 146.245 76.8015C148.573 77.1074 151.67 76.9342 153.779 77.8317C154.324 77.8161 154.82 77.8879 155.251 78.0393C156.623 77.877 157.853 78.4811 158.935 79.2631C159.38 79.5785 159.77 79.9297 160.155 80.2965C160.605 80.7398 161.079 81.2206 161.254 81.8466C161.42 82.4413 161.437 83.0501 161.314 83.6464Z" fill="#F5DE97"/>
<path d="M160.965 77.6132C165.998 82.4944 160.552 91.7292 157.536 96.064C152.908 102.726 146.261 110.359 139.166 114.537C131.812 118.882 123.313 118.132 115.13 117.54C90.0048 115.712 64.8512 113.942 39.7428 111.877C39.2901 111.831 39.0201 111.519 38.9061 111.146C31.6944 108.939 34.8772 95.2351 36.7629 89.8872C40.6373 78.9244 49.0306 69.4696 59.9747 65.3392C60.3025 65.2159 60.5928 65.3549 60.7879 65.5703C62.1273 65.4173 63.2215 65.5952 64.1284 65.9902C87.7039 67.0672 111.286 69.9644 134.677 72.8522C140.71 73.589 146.757 74.3274 152.78 75.1906C155.425 75.5761 158.878 75.6042 160.965 77.6132ZM161.087 84.5081C161.178 84.224 161.253 83.9368 161.313 83.6464C161.437 83.0501 161.42 82.4413 161.254 81.8497C161.081 81.2238 160.606 80.743 160.155 80.2997C159.768 79.9328 159.379 79.5816 158.935 79.2663C157.853 78.4842 156.623 77.8801 155.251 78.0425C154.82 77.8895 154.325 77.8193 153.779 77.8349C151.67 76.9373 148.573 77.1106 146.245 76.8046C136.711 75.5043 127.158 74.2946 117.592 73.1473C100.526 71.1195 83.3847 69.6819 66.3091 67.6994C68.9191 71.2678 68.0106 78.3641 66.3934 82.4132C63.5212 89.5984 58.7337 95.8767 53.8837 101.841C51.7327 104.457 49.2929 108.018 46.1444 109.982C62.6439 111.127 79.1279 112.429 95.6274 113.655C105.487 114.385 115.674 115.917 125.565 115.568C136.179 115.195 142.465 109.306 149.316 101.986C152.549 98.5257 157.247 93.9177 158.728 89.1395C158.981 88.7617 159.236 88.384 159.489 88.0062C160.208 86.9089 160.703 85.7522 161.087 84.5081ZM64.5343 81.4548C67.7405 76.124 66.139 71.3771 59.7717 67.2405C47.9582 73.8856 39.0076 84.341 37.0923 98.1635C36.8082 99.9227 36.6958 101.701 36.7254 103.491C41.3272 109.064 45.1578 109.585 48.2173 105.037C50.5573 102.587 52.6474 99.7994 54.7126 97.1333C57.4225 93.6601 60.0386 90.1042 62.1569 86.2548C63.0357 84.6985 63.8303 83.0938 64.5343 81.4548Z" fill="#2F1E12"/>
<path d="M59.7728 67.2402C66.1384 71.3768 67.74 76.1238 64.5353 81.4545C63.8298 83.0935 63.0367 84.6998 62.1564 86.2545C60.0381 90.1039 57.4219 93.6598 54.7121 97.133C52.6469 99.7992 50.5567 102.587 48.2168 105.036C45.1573 109.585 41.3282 109.064 36.7249 103.491C36.6968 101.7 36.8092 99.9225 37.0917 98.1632C39.0086 84.3408 47.9593 73.8853 59.7728 67.2402Z" fill="#F0D39D"/>
<g opacity="0.6">
<path d="M161.254 81.8483C161.081 81.2223 160.606 80.7415 160.155 80.2982C159.768 79.9314 159.38 79.5802 158.935 79.2648C157.853 78.4844 156.623 77.8787 155.251 78.041C154.82 77.8881 154.325 77.8178 153.78 77.8319C153.122 77.5509 152.361 77.3823 151.564 77.2637C142.969 114.44 93.8169 120.932 63.3856 106.073C59.2677 104.063 58.5699 99.5045 60.0107 95.6317C60.6335 93.9583 61.3641 92.2928 62.1399 90.6288C59.6751 94.5625 56.7951 98.2589 53.8839 101.838C51.7329 104.454 49.293 108.013 46.1445 109.977C62.6441 111.123 79.128 112.425 95.6276 113.65C105.487 114.381 115.674 115.912 125.566 115.564C136.179 115.191 142.465 109.301 149.316 101.982C152.549 98.5226 157.247 93.9131 158.729 89.1349C158.981 88.7572 159.236 88.3794 159.489 88.0001C160.208 86.9058 160.703 85.7476 161.087 84.5051C161.178 84.221 161.253 83.9337 161.314 83.6434C161.437 83.0502 161.42 82.4414 161.254 81.8483Z" fill="#F5DE97"/>
<path d="M67.2733 79.5779C68.7718 75.8737 69.8708 72.0774 69.9504 68.0969C68.7375 67.9611 67.5215 67.8393 66.3086 67.6973C68.3816 70.5304 68.2317 75.5865 67.2733 79.5779Z" fill="#F5DE97"/>
<path d="M160.965 77.613C158.878 75.604 155.425 75.5759 152.78 75.1888C152.531 75.1529 152.283 75.1233 152.035 75.0889C151.899 75.832 151.729 76.5469 151.564 77.2665C152.361 77.3851 153.121 77.5537 153.78 77.8347C154.325 77.8206 154.821 77.8909 155.251 78.0439C156.623 77.8815 157.853 78.4856 158.935 79.2677C159.379 79.583 159.77 79.9342 160.155 80.301C160.605 80.7444 161.079 81.2251 161.254 81.8511C161.418 82.4427 161.437 83.053 161.313 83.6493C161.254 83.9397 161.178 84.2269 161.087 84.511C160.703 85.7535 160.208 86.9118 159.489 88.006C159.236 88.3838 158.981 88.7615 158.728 89.1409C157.247 93.919 152.549 98.527 149.316 101.988C142.463 109.307 136.179 115.197 125.565 115.57C115.675 115.918 105.487 114.387 95.6274 113.656C79.1279 112.431 62.6455 111.129 46.1444 109.983C49.2913 108.019 51.7327 104.459 53.8837 101.844C56.7949 98.2648 59.6749 94.5684 62.1397 90.6347C63.8428 86.982 65.7612 83.3278 67.2754 79.5814C68.2338 75.5916 68.3836 70.5355 66.3107 67.7024C67.5235 67.8429 68.7396 67.9646 69.9524 68.102C69.954 68.0708 69.9571 68.0411 69.9571 68.0083C69.9665 67.4105 70.0492 66.8579 70.1631 66.324C68.1526 66.207 66.1405 66.0836 64.1284 65.9931C63.2215 65.5982 62.1273 65.4202 60.7879 65.5732C60.5928 65.3578 60.3025 65.2189 59.9747 65.3422C49.0322 69.4725 40.6388 78.9274 36.7629 89.8901C34.8772 95.2381 31.6944 108.943 38.9061 111.151C39.0201 111.525 39.2901 111.836 39.7428 111.881C64.8512 113.945 90.0048 115.715 115.13 117.544C123.313 118.135 131.812 118.887 139.166 114.541C146.262 110.364 152.908 102.732 157.536 96.0685C160.552 91.729 165.998 82.4942 160.965 77.613ZM36.7254 103.491C36.6973 101.701 36.8097 99.9226 37.0923 98.1633C39.0076 84.3409 47.9582 73.8854 59.7717 67.2403C66.1374 71.3769 67.739 76.1239 64.5327 81.4546C63.8271 83.0936 63.0342 84.6999 62.1538 86.2546C60.0355 90.104 57.4193 93.6599 54.7095 97.1331C52.6443 99.7992 50.5541 102.587 48.2158 105.036C45.1578 109.585 41.3287 109.064 36.7254 103.491Z" fill="#2F1E12"/>
<path d="M59.7728 67.2402C66.1384 71.3768 67.74 76.1238 64.5353 81.4545C63.8298 83.0935 63.0367 84.6998 62.1564 86.2545C60.0381 90.1039 57.4219 93.6598 54.7121 97.133C52.6469 99.7992 50.5567 102.587 48.2168 105.036C45.1573 109.585 41.3282 109.064 36.7249 103.491C36.6968 101.7 36.8092 99.9225 37.0917 98.1632C39.0086 84.3408 47.9593 73.8853 59.7728 67.2402Z" fill="#F0D39D"/>
</g>
<path d="M119.684 83.417C113.152 81.3159 105.871 81.2707 99.1371 79.6769C92.3765 78.0753 85.9297 75.5263 79.2581 73.6359C77.8345 73.2332 77.4333 75.1969 78.4636 75.8931C88.9096 82.9503 106.823 89.1411 119.45 86.7809C121.353 86.425 121.567 84.0211 119.684 83.417Z" fill="white"/>
<path d="M91.1425 16.0594C90.515 35.6794 72.7651 46.9153 59.0862 58.1154C44.1086 70.355 28.9858 85.6869 11.2547 94.2817C10.2837 94.8936 9.30657 95.3775 8.33096 95.6226C7.54267 95.9691 6.75281 96.3172 5.95515 96.6294C5.38383 96.8464 4.93738 96.005 5.3885 95.6678C4.96391 95.5648 4.5565 95.4477 4.15065 95.2526C-4.01796 91.4282 2.02305 75.1597 4.19438 69.6619C7.90326 60.2742 14.0613 51.4578 22.091 45.1467C26.0918 38.9762 31.9345 34.4603 37.9412 29.9162C47.0042 23.0854 56.2546 16.5012 65.672 10.1901C70.0771 7.22741 79.8036 -2.27115 85.9725 0.501148C90.9911 2.75052 91.3001 11.5185 91.1425 16.0594ZM82.4759 33.7001C85.4995 29.5588 87.674 24.6682 88.3889 19.5872C88.7448 17.0944 88.8463 14.5172 88.6511 11.99C88.6855 11.901 88.7198 11.8136 88.7386 11.7215C88.9399 10.7427 89.0461 9.69688 89.0118 8.70097C88.9883 8.12185 88.8666 7.55521 88.7292 6.98546C88.6762 6.70292 88.5731 6.42663 88.456 6.14877C88.2328 5.68828 88.0268 5.21531 87.6958 4.81258C87.2494 4.27404 86.8966 3.89784 86.3394 3.51228C85.5292 2.96281 84.6067 2.56476 83.6217 2.47267C82.9645 2.41647 82.3214 2.36339 81.6689 2.4352C80.9368 2.507 80.2016 2.67403 79.4773 2.85822C78.7686 3.0471 78.0537 3.72769 77.7321 4.36301L77.729 4.37862C74.9489 5.41355 71.3243 8.84147 69.1405 10.3025C65.5924 12.6612 62.0724 15.0417 58.5883 17.4784C48.3358 24.5886 35.3391 32.1047 26.5944 42.0295C27.6918 41.3473 28.7954 40.7151 29.949 40.1407C30.4688 39.8659 30.9527 40.2203 31.0417 40.6371C31.0963 40.6808 31.1666 40.726 31.2306 40.8041C38.3455 49.8781 29.8022 65.6143 25.5408 74.3605C24.1047 77.2998 20.8703 83.7716 16.8586 88.8401C26.6694 82.2434 35.595 74.3011 44.7158 66.7975C57.1412 56.5669 72.8728 46.778 82.4759 33.7001ZM24.6666 71.0247C28.1804 63.3509 35.3671 50.0919 30.038 41.8655C27.0596 44.0868 24.2108 46.3846 21.5462 48.8619C21.1529 49.53 20.761 50.1981 20.4129 50.8755C20.1741 51.336 19.6512 51.2439 19.4186 50.9083C16.0781 54.2675 13.0826 57.9671 10.5788 62.216C7.02287 68.2399 0.952213 79.8801 2.69271 87.1902C5.63203 99.6561 14.5156 87.5929 17.1802 84.0307C20.1788 80.0112 22.5796 75.5655 24.6666 71.0247Z" fill="#2F1E12"/>
<path d="M88.3893 19.5866C87.6743 24.6676 85.4999 29.5581 82.4763 33.6994C72.8716 46.7773 57.1416 56.5662 44.7147 66.7984C35.5923 74.302 26.6682 82.2443 16.8574 88.841C20.8691 83.7725 24.1035 77.2991 25.5396 74.3613C29.801 65.6152 38.3443 49.8774 31.2294 40.805C31.1654 40.7285 31.0951 40.6817 31.0405 40.638C30.9515 40.2212 30.4676 39.8653 29.9478 40.1416C28.7926 40.716 27.6906 41.3482 26.5933 42.0303C35.3379 32.1056 48.3361 24.5895 58.5871 17.4793C62.0712 15.0426 65.5912 12.6621 69.1393 10.3034C71.3215 8.8408 74.9477 5.41445 77.7278 4.37952L77.731 4.3639C78.0541 3.72859 78.7674 3.048 79.4761 2.85912C80.2004 2.67336 80.9356 2.5079 81.6677 2.43609C82.3202 2.36429 82.9633 2.41736 83.6205 2.47356C84.6055 2.56566 85.528 2.96371 86.3382 3.51317C86.8954 3.89874 87.2482 4.27493 87.6947 4.81347C88.0256 5.2162 88.2317 5.68918 88.4549 6.14967C88.5719 6.42908 88.675 6.70537 88.728 6.98635C88.8654 7.55611 88.9872 8.1243 89.0106 8.70186C89.0433 9.69777 88.9388 10.7436 88.7374 11.7224C88.7187 11.8145 88.6843 11.9034 88.65 11.9908C88.8467 14.5165 88.7452 17.0937 88.3893 19.5866Z" fill="#F5DE97"/>
<path d="M30.0378 41.8652C35.367 50.0916 28.1803 63.3506 24.6665 71.0243C22.581 75.5668 20.1803 80.0109 17.1816 84.0304C14.517 87.5926 5.63348 99.6558 2.69416 87.1898C0.952107 79.8798 7.02432 68.2395 10.5802 62.2157C13.084 57.9667 16.0796 54.2672 19.42 50.908C19.6542 51.2436 20.1771 51.3357 20.4144 50.8752C20.7625 50.1977 21.1543 49.5296 21.5477 48.8615C24.2107 46.3827 27.0595 44.0865 30.0378 41.8652Z" fill="#F0D39D"/>
<g opacity="0.6">
<path d="M91.143 16.0606C91.3006 11.5181 90.9916 2.75169 85.973 0.502316C85.9418 0.488268 85.909 0.485144 85.8778 0.472656C85.9012 0.959682 85.8996 1.45607 85.8419 1.96651C85.7982 2.35364 85.7357 2.73295 85.6858 3.11852C85.9105 3.23715 86.1275 3.36828 86.3383 3.51189C86.8955 3.89745 87.2483 4.27365 87.6948 4.81218C88.0257 5.21492 88.2302 5.68789 88.455 6.14838C88.572 6.4278 88.675 6.70409 88.7281 6.98662C88.8655 7.55638 88.9872 8.12458 89.0107 8.70214C89.0434 9.69804 88.9389 10.7439 88.7375 11.7226C88.7188 11.8147 88.6844 11.9021 88.6501 11.9911C88.8452 14.5183 88.7438 17.0955 88.3878 19.5884C87.6729 24.6678 85.4984 29.56 82.4748 33.6997C72.8701 46.7776 57.1402 56.5665 44.7132 66.7971C35.5908 74.3007 26.6667 82.243 16.8544 88.8397C20.8661 83.7712 24.1005 77.2978 25.5366 74.3585C27.43 70.4732 30.1618 65.208 31.9975 59.7618C31.3106 58.6269 30.9048 57.3267 30.847 55.9733C29.3126 61.5038 26.495 67.0219 24.664 71.0211C22.577 75.5636 20.1761 80.0092 17.1791 84.0272C14.5145 87.5894 5.63093 99.6526 2.69161 87.1866C0.949554 79.8766 7.02177 68.2363 10.5777 62.2125C13.0815 57.9635 16.077 54.264 19.4175 50.9048C19.6516 51.2404 20.1746 51.3325 20.4119 50.872C20.7584 50.1945 21.1518 49.5264 21.5451 48.8583C24.2097 46.3811 27.0585 44.0849 30.0353 41.862C31.2841 43.7914 31.8273 46.0017 31.9085 48.3463C32.1551 46.2047 32.2363 44.0771 32.0084 42.0025C31.7617 41.5967 31.5276 41.1846 31.2263 40.8021C31.1623 40.7256 31.0921 40.6788 31.0374 40.6351C30.9485 40.2183 30.4646 39.864 29.9448 40.1387C28.7896 40.7132 27.6876 41.3453 26.5902 42.0275C27.9498 40.4852 29.4218 39.0054 30.9594 37.5725C30.7596 37.0558 30.5254 36.5469 30.2663 36.0427C27.1615 38.7572 24.3299 41.6888 22.0883 45.1463C14.0587 51.4574 7.90059 60.2738 4.19171 69.6615C2.02038 75.1577 -4.01902 91.4278 4.14802 95.2522C4.55388 95.4473 4.95973 95.5644 5.38588 95.6674C4.93319 96.0046 5.38121 96.846 5.95252 96.629C6.75018 96.3152 7.54 95.9687 8.32829 95.6206C9.3039 95.3755 10.2795 94.8916 11.2505 94.2797C28.9816 85.6865 44.1044 70.353 59.082 58.1134C72.764 46.9149 90.5154 35.679 91.143 16.0606Z" fill="#2F1E12"/>
<path d="M29.9483 40.1405C30.4681 39.8657 30.952 40.2201 31.041 40.6369C31.0956 40.6806 31.1659 40.7258 31.2299 40.8039C31.5311 41.1863 31.7653 41.5984 32.0119 42.0043C31.8465 40.4948 31.5202 39.0119 30.9629 37.5742C29.4238 39.0088 27.9534 40.487 26.5938 42.0293C27.6911 41.3471 28.7931 40.7149 29.9483 40.1405Z" fill="#F5DE97"/>
<path d="M88.3893 19.5871C88.7452 17.0942 88.8466 14.517 88.6515 11.9898C88.6859 11.9008 88.7202 11.8118 88.7389 11.7213C88.9403 10.7426 89.0465 9.69672 89.0121 8.70081C88.9887 8.12169 88.867 7.55505 88.7296 6.9853C88.6765 6.70276 88.5735 6.42803 88.4564 6.14705C88.2332 5.68656 88.0271 5.21358 87.6962 4.81085C87.2498 4.27231 86.897 3.89612 86.3397 3.51056C86.129 3.36851 85.9105 3.23738 85.6872 3.11719C83.7969 17.4844 77.0035 30.375 67.661 41.3565C62.733 47.1493 57.1119 52.2943 51.2286 57.1005C46.8298 60.6924 43.0147 64.5948 36.9909 63.3507C34.8227 62.9027 33.0775 61.54 32.0005 59.762C30.1648 65.2083 27.433 70.4735 25.5396 74.3587C24.1035 77.2981 20.8691 83.7714 16.8574 88.84C26.6682 82.2432 35.5938 74.301 44.7162 66.7974C57.1432 56.5667 72.8732 46.7778 82.4779 33.6999C85.4999 29.5586 87.6744 24.6681 88.3893 19.5871Z" fill="#F5DE97"/>
<path d="M30.9634 54.1841C31.3381 52.2469 31.6893 50.2926 31.9125 48.3476C31.8298 46.003 31.2881 43.7927 30.0394 41.8633C27.0626 44.0861 24.2122 46.3823 21.5491 48.8596C21.1558 49.5277 20.7624 50.1958 20.4159 50.8733C20.1771 51.3337 19.6542 51.2416 19.4216 50.906C16.0811 54.2653 13.0855 57.9648 10.5817 62.2138C7.02579 68.2376 0.955184 79.8778 2.69568 87.1879C5.635 99.6539 14.5185 87.5906 17.1831 84.0285C20.1817 80.0089 22.5825 75.5648 24.668 71.0224C26.499 67.0232 29.3166 61.5051 30.851 55.9745C30.8245 55.3829 30.8463 54.7851 30.9634 54.1841Z" fill="#F0D39D"/>
</g>
<path d="M69.7342 18.333C64.5517 19.2368 59.8828 23.3062 55.4918 26.0926C49.9519 29.6079 44.4541 33.1904 38.936 36.74C37.8808 37.4191 38.9205 38.9254 39.9913 38.3447C45.4766 35.3726 50.9712 32.4192 56.4456 29.4284C61.091 26.8903 67.438 24.5909 70.755 20.4372C71.3685 19.6692 70.9065 18.1285 69.7342 18.333Z" fill="white"/>
</svg>
