<svg width="297" height="297" viewBox="0 0 297 297" fill="none" xmlns="http://www.w3.org/2000/svg">
<path d="M229.416 71.904C227.382 75.8033 221.813 79.1609 218.608 84.4296C220.065 83.8034 221.632 83.2623 223.329 82.8254C226.779 81.9376 230.671 81.232 234.699 80.8842C243.575 80.118 253.112 81.0925 260.05 85.6758C260.362 83.6874 257.323 79.963 249.148 72.5281C241.598 65.661 238.483 49.2157 233.03 36.129C228.504 25.2663 219.152 13.5362 208.927 7.59598C208.927 7.59598 206.675 8.90476 207.265 13.8253C218.114 26.0021 226.434 34.9366 230.245 51.4307C231.8 58.1638 232.738 65.5352 229.416 71.904Z" fill="#578A41"/>
<path d="M229.415 71.9049C227.381 75.8041 221.812 79.1617 218.607 84.4305C220.064 83.8042 221.631 83.2632 223.328 82.8262C226.778 81.9385 230.67 81.2329 234.698 80.8851C243.565 80.1196 253.092 81.0911 260.028 85.6621C260.094 85.2377 260.025 84.7441 259.769 84.1428C259.658 84.1001 259.548 84.0563 259.437 84.0138C255.268 82.4151 250.89 81.412 246.739 79.7834C243.058 78.3391 239.454 76.2576 237.281 72.9133C235.061 69.4985 235.238 65.3448 234.817 61.4467C233.61 50.2382 230.579 40.0545 224.239 30.599C219.351 23.3086 213.33 16.8522 207.345 10.4174C207.164 11.2917 207.093 12.404 207.264 13.826C218.113 26.0029 226.434 34.9373 230.244 51.4314C231.799 58.1647 232.737 65.536 229.415 71.9049Z" fill="#3A6F3C"/>
<path d="M234.699 80.8848C230.671 81.2326 226.779 81.938 223.329 82.8259C204.101 87.775 200.892 105.45 199.794 122.702C196.897 168.191 173.919 223.653 127.172 245.754C103.436 256.976 81.531 264.162 44.5868 270.891C37.6352 272.157 43.0785 278.007 44.106 278.65C57.3031 286.893 94.0646 285.057 108.681 283.819C140.877 281.092 174.071 272.972 201.385 255.339C237.709 231.89 261.059 183.971 266.295 144.146C267.986 131.283 273.917 104.707 266.593 92.4601C260.371 82.0626 246.907 79.8309 234.699 80.8848Z" fill="#E63515"/>
<path d="M264.873 152.87C264.901 152.728 264.93 152.585 264.957 152.442C265.182 151.253 265.389 150.069 265.583 148.889C265.621 148.662 265.664 148.432 265.7 148.205C265.918 146.844 266.119 145.489 266.296 144.145C267.987 131.283 273.919 104.706 266.595 92.4593C260.373 82.0617 246.909 79.83 234.701 80.8839C234.689 80.885 234.678 80.8866 234.667 80.8876C230.65 81.2365 226.771 81.9396 223.331 82.825C221.312 83.3446 219.48 84.0122 217.799 84.7965C221.383 83.1265 227.467 91.2539 228.618 93.8012C233.109 103.741 231.608 116.515 231.179 127.149C230.755 137.653 230.343 148.818 227.337 158.999C224.283 169.345 217.107 177.796 212.014 187.184C206.803 196.787 204.03 207.297 197.92 216.553C195.123 220.791 191.667 224.17 187.222 226.73C183.058 229.128 178.477 230.73 174.311 233.132C164.304 238.902 158.11 247.633 150.081 255.532C141.844 263.635 130.868 268.064 119.837 271.187C113.887 272.872 107.823 274.128 101.744 275.252C95.8443 276.342 89.8207 277.721 83.8395 278.224C72.254 279.198 61.7705 273.615 50.3297 273.924C47.2847 274.006 44.2763 274.347 41.2856 274.789C41.8411 276.566 43.5718 278.314 44.107 278.648C57.3041 286.892 94.0655 285.056 108.682 283.818C140.878 281.091 174.072 272.97 201.386 255.338C233.899 234.349 256.006 193.757 264.044 156.91C264.052 156.874 264.06 156.838 264.068 156.802C264.355 155.487 264.623 154.176 264.873 152.87Z" fill="#CD1D0F"/>
<path d="M266.596 92.4605C261.498 83.9402 251.536 80.9055 241.388 80.6665C241.257 92.6851 247.918 103.718 246.507 115.925C245.348 125.956 240.59 135.187 239.08 145.163C237.578 155.077 237.849 165.12 236.57 175.051C235.339 184.614 232.301 193.378 227.103 201.592C221.778 210.005 215.302 217.684 208.766 225.214C202.382 232.57 196.326 240.68 189.361 247.501C182.9 253.827 174.721 257.649 166.528 261.311C156.979 265.58 148.603 270.835 140.929 277.913C140.35 278.447 139.771 278.977 139.192 279.506C161.209 275.031 182.678 267.418 201.388 255.339C237.712 231.891 261.062 183.972 266.298 144.146C267.989 131.284 273.92 104.707 266.596 92.4605Z" fill="#B70E0C"/>
<path d="M213.167 102.068C206.107 107.371 206.317 119.001 206.284 126.754C206.235 138.158 206.287 148.629 202.416 159.645C201.073 163.467 199.146 167.186 197.682 170.994C196.341 174.48 193.491 183.975 195.089 187.778C199.208 197.587 211.173 169.487 212.147 167.071C214.378 161.537 216.533 155.76 217.781 149.927C219.901 140.022 218.648 123.37 219.887 113.452C220.723 106.762 221.483 98.3769 213.167 102.068Z" fill="#ED6C4F"/>
<path d="M194.379 198.242C194.087 203.501 181.679 218.387 179.299 212.55C180.099 206.703 184.436 197.352 189.634 194.057C189.634 194.057 194.787 190.904 194.379 198.242Z" fill="#ED6C4F"/>
</svg>
