<svg width="111" height="189" viewBox="0 0 111 189" fill="none" xmlns="http://www.w3.org/2000/svg">
<path d="M71.0533 24.9712C76.4152 21.1959 79.3103 14.4447 84.2776 11.0645C84.6643 10.8014 84.8736 10.2648 84.5989 9.83895C84.3508 9.45406 83.7876 9.23567 83.3733 9.51751C77.9922 13.1801 75.0517 19.9726 70.1489 23.4242C69.7666 23.6934 69.5502 24.2194 69.8275 24.6498C70.0723 25.0295 70.6435 25.2598 71.0533 24.9712Z" fill="#3A3C44"/>
<path d="M90.2193 34.266C91.0821 34.266 91.3781 33.1438 90.8527 32.7368C84.628 27.915 77.32 23.9537 69.3693 24.5366C68.903 24.5708 68.4508 24.9241 68.4735 25.4324C68.4939 25.8884 68.8687 26.3649 69.3693 26.3283C80.5968 25.505 89.1528 34.266 90.2193 34.266Z" fill="#3A3C44"/>
<path d="M67.7368 0.283921C68.9587 0.18934 70.1806 0.0947538 71.4025 0C69.163 6.70919 68.1224 14.155 69.3008 21.2489C69.9468 25.1374 71.2384 28.8375 71.8612 32.7316C71.9649 33.3801 72.0497 34.0507 71.9394 34.6977C71.817 35.4163 71.4646 36.0438 71.0947 36.6253C69.5123 39.1127 67.1879 41.7236 64.6914 42.7191C66.2006 36.6348 65.4615 28.9122 65.8414 22.503C65.9569 20.5574 66.9872 0.341845 67.7368 0.283921Z" fill="#4C7744"/>
<path d="M49.834 18.9678C50.4392 18.2495 50.9169 17.3748 51.2252 16.4193C53.9798 16.4011 56.7363 17.0871 59.2615 18.4192C62.1966 19.9676 64.762 22.3584 67.0145 25.0855C67.9274 26.1907 73.078 32.0623 72.2235 33.7739C71.1307 35.9626 67.3911 30.4278 66.7259 29.6684C64.4874 27.113 62.0295 24.8161 59.3451 22.9857C58.1649 22.1808 51.0086 17.574 49.834 18.9678Z" fill="#3B5B35"/>
<path d="M73.1072 3.96191C73.9206 4.45401 74.6409 5.16968 75.198 6.03941C71.9703 11.0328 69.0508 16.3907 67.1707 22.3078C65.8425 26.4886 65.0488 30.9638 65.0785 35.4544C65.0908 37.3042 66.0807 40.5153 65.6681 42.1958C65.1154 44.4474 63.5575 43.5802 62.9627 41.8861C61.7829 38.5263 63.0128 32.5352 63.5552 29.0826C64.2287 24.7948 65.3062 20.5995 66.7599 16.605C68.4067 12.0793 70.5376 7.80878 73.1072 3.96191Z" fill="#3B5B35"/>
<path d="M58.5459 6.89005C59.1936 6.14637 59.8412 5.40269 60.489 4.65918C66.1744 13.8219 74.2852 25.398 75.3379 37.2491C72.625 38.7166 72.1634 36.1885 71.6755 33.8031C70.9896 30.4492 69.7159 27.1845 68.4423 24.1031C67.8034 22.5573 59.2125 6.12476 58.5459 6.89005Z" fill="#4C7744"/>
<path d="M62.7604 24.4625C64.2467 19.8439 65.2399 15.0148 66.0735 10.1621C67.1815 10.2664 68.2836 10.4618 69.3697 10.7462C69.1904 11.1702 69.1266 11.6495 69.0597 12.1187C67.5414 22.7735 63.1856 32.809 56.7979 40.3701C56.677 40.5131 56.498 40.6645 56.3557 40.554C56.294 40.5061 56.2608 40.4202 56.2338 40.3377C55.5076 38.1117 57.1118 36.5801 58.0793 34.9904C59.3325 32.9312 60.4082 30.7187 61.3336 28.4209C61.8549 27.1265 62.3285 25.8043 62.7604 24.4625Z" fill="#58994B"/>
<path d="M63.8663 129.256C62.8522 145.114 70.9506 159.81 72.1208 175.653C72.4082 179.544 72.2935 183.592 73.5691 187.181C73.8175 187.88 74.1637 188.606 74.7497 188.883C76.074 189.508 77.1779 187.503 77.5365 185.838C79.5324 176.572 77.3912 166.823 77.2828 157.249C77.1381 144.464 80.6248 132.093 83.4961 119.788C86.3674 107.483 88.6581 94.4191 86.1196 82.0074C83.961 71.4533 78.2355 62.0351 70.5509 56.3987C67.5257 54.1796 64.1438 52.5096 60.6108 52.2846C57.0779 52.0597 53.3792 53.4195 50.9348 56.5138C48.0779 60.1305 47.3152 65.4381 47.0043 70.4267C46.691 75.4545 46.7091 80.5901 47.8578 85.4371C49.1662 90.9578 51.8727 95.8356 53.5651 101.201C56.8226 111.529 56.1854 123.156 59.2393 133.574L63.8663 129.256Z" fill="#A00B04"/>
<path d="M77.6187 112.095C79.7778 112.995 81.4049 115.526 81.5939 118.28C81.6746 119.457 81.5145 120.635 81.3893 121.807C81.0724 124.771 80.977 127.763 80.8819 130.749C81.8814 127.349 82.8613 123.941 83.8216 120.524C84.311 118.783 84.7965 117.034 85.0891 115.229C85.294 113.965 85.4025 112.655 85.1975 111.391C85.0151 110.266 84.5923 109.222 84.1692 108.196C83.7961 107.292 83.4082 106.371 82.8079 105.667C82.1081 104.848 81.1737 104.388 80.2381 104.061C78.8974 103.591 77.5017 103.353 76.1059 103.354C74.7472 103.356 73.2951 101.102 72.2532 102.157C71.2289 103.194 70.7607 107.377 70.6927 108.991C70.6199 110.72 70.5443 113.822 72.524 112.831C74.2387 111.973 75.7446 111.314 77.6187 112.095Z" fill="#7A0404"/>
<path d="M21.5562 122.61C17.8008 131.026 12.6909 139.26 5.28968 142.62C4.07206 143.173 2.75054 143.629 1.86664 144.784C0.982728 145.938 0.839887 148.092 1.95567 148.9C2.93623 149.61 4.17615 148.904 5.1619 148.204C12.2745 143.154 23.6643 144.239 28.2485 135.945C30.0619 132.664 34.5868 125.842 36.2975 122.481C38.652 117.856 45.4414 106.917 48.5166 102.96C55.157 94.413 50.9652 89.6996 57.8621 81.456C61.1002 77.5858 64.538 73.3649 65.2841 67.9325C66.1548 61.5921 62.7669 55.034 57.9448 52.3372C53.1227 49.6403 47.268 50.4736 42.6256 53.5978C37.9835 56.722 34.464 61.9047 31.9904 67.5924C30.6042 70.7794 32.3763 74.915 32.1548 78.5713C31.8446 83.6924 31.2391 88.7854 30.3413 93.8041C28.5464 103.839 25.5881 113.574 21.5562 122.61Z" fill="#B70F02"/>
<path d="M4.8187 146.261C9.13882 143.855 13.4589 141.449 17.7791 139.043C20.1673 137.713 22.5997 136.348 24.5235 134.18C26.5182 131.932 27.8444 128.953 28.9126 125.919C32.5409 115.613 33.5421 103.979 31.7462 92.9893C36.0892 99.8041 37.7154 108.519 39.2273 116.927C39.3724 117.734 39.518 118.562 39.4168 119.378C39.302 120.305 38.8803 121.128 38.4648 121.919C36.4082 125.836 34.2729 129.691 32.0611 133.482C30.9586 135.371 29.8162 137.271 28.3098 138.695C26.5007 140.405 24.2799 141.324 22.1049 142.213C15.9609 144.726 9.81697 147.238 3.67302 149.751C2.91412 150.061 2.08555 150.373 1.32959 150.052C0.0796387 149.521 -0.296798 147.451 0.233339 145.982C0.763476 144.513 2.23924 144.469 3.32458 143.55C0.596434 145.859 1.87494 147.9 4.8187 146.261Z" fill="#A00B04"/>
<path d="M44.9893 69.8545C41.9843 82.9358 44.0716 96.8073 47.983 109.611C50.6648 118.39 54.206 126.929 55.6989 136.027C58.1848 151.176 54.9893 167.672 61.363 181.456C63.0366 185.075 66.5783 188.797 70.061 187.247C70.6001 185.137 69.389 183.029 68.3971 181.116C62.5488 169.843 63.1372 156.016 65.4893 143.368C67.8415 130.719 71.7987 118.303 72.1867 105.413C72.2956 101.794 72.134 98.0758 73.2546 94.6591C74.4222 91.0991 76.8648 88.2221 78.8537 85.1075C83.3006 78.1438 85.5793 69.4358 84.3176 61.1085C82.8462 51.398 74.6266 37.9166 64.3107 43.0838C54.4093 48.0437 47.5559 58.6814 44.9893 69.8545Z" fill="#B70F02"/>
<path d="M55.082 132.119C53.5955 125.441 55.4952 118.42 55.7152 111.51C55.8734 106.539 55.164 101.447 56.2607 96.6528C56.3575 96.2297 56.4758 95.7948 56.7281 95.4791C56.9847 95.158 57.3493 94.9996 57.7088 94.8978C59.9566 94.2609 62.341 95.504 64.0186 97.4227C65.6961 99.3417 66.801 101.862 67.876 104.334C69.2378 107.465 70.5177 113.624 70.9778 117.118C72.5385 106.687 73.8247 92.6966 70.781 82.7561C69.7669 79.4444 68.3024 76.3456 66.5407 73.5298C64.7759 70.7094 62.5985 68.0781 59.8254 66.9578C56.5623 65.6398 52.8505 66.6559 50.0156 69.0137C47.1808 71.3715 45.1495 74.9355 43.7567 78.7412C41.3878 85.214 40.8459 92.5813 42.0065 99.5004C43.2274 106.779 46.8569 112.047 49.5021 118.502C51.3619 123.041 53.222 127.58 55.082 132.119Z" fill="#A00B04"/>
<path d="M30.6148 57.0731C27.3041 66.5384 27.8362 77.081 29.9512 86.9242C32.0662 96.7673 35.6865 106.164 38.5176 115.802C41.3486 125.441 43.4055 135.575 42.2522 145.596C40.9604 156.82 35.7111 168.165 38.9308 178.945C39.7122 181.561 42.1727 184.449 44.4252 183.097C41.5609 177.105 41.8433 169.924 43.3692 163.404C44.8951 156.883 47.5686 150.729 49.3663 144.287C51.5075 136.614 52.3886 128.549 51.9584 120.561C51.3164 108.639 47.8704 96.1488 52.2292 85.1385C56.0095 75.5893 65.3196 68.3602 65.7868 58.0158C66.1495 49.9821 58.0418 39.1819 50.1124 38.7187C41.2336 38.2001 33.3326 49.3035 30.6148 57.0731Z" fill="#D31600"/>
<path d="M54.5182 66.7257C55.154 72.3634 57.1888 77.6234 59.429 82.6262C61.5706 87.4088 63.9386 92.0761 66.8817 96.1881C72.1917 103.607 79.1568 108.94 85.5928 114.914C92.0288 120.887 98.2258 127.967 100.962 137.206C103.878 147.048 102.476 157.866 101.941 168.301C101.898 169.14 101.892 170.086 102.377 170.687C103.513 172.093 105.282 170.005 105.888 168.181C110.63 153.921 110.596 138.006 109.294 122.715C108.777 116.641 108.053 110.508 106.086 104.884C104.041 99.0379 98.7722 95.6619 96.7369 89.8105C93.8317 81.4583 93.3721 74.1312 91.8313 65.2634C90.2905 56.3956 88.9234 43.3732 81.9712 40.0023C75.5463 36.8872 67.8106 36.0554 62.4834 41.7773C56.7731 47.9105 53.4765 57.4893 54.5182 66.7257Z" fill="#D31600"/>
<path d="M60.3728 52.5693C60.0674 57.1092 58.0811 61.2265 55.8523 64.8973C53.6235 68.5682 51.0845 72.0111 49.3876 76.0771C45.8635 84.5219 46.3899 94.5568 47.6279 103.898C48.8659 113.238 50.7366 122.686 49.6224 132.05C48.5631 140.951 44.8869 149.042 42.6353 157.612C40.3837 166.182 39.7799 176.327 44.3062 183.46C43.8964 181.194 43.4162 178.941 43.1831 176.639C42.414 169.04 44.3739 161.435 46.737 154.332C49.1002 147.23 51.9153 140.245 52.9886 132.699C55.1855 117.254 49.9226 100.662 54.5876 86.0409C55.577 82.9398 56.9828 80.0628 58.1926 77.0782C60.5103 71.3612 62.1135 65.2212 62.9313 58.9308C63.4445 54.9835 63.6314 50.8217 62.4219 47.1035C61.3988 43.9586 58.3015 39.7061 55.16 40.4289C55.9398 42.1502 57.8703 43.0995 58.823 44.8671C60.0315 47.1094 60.5514 49.9131 60.3728 52.5693Z" fill="#B70F02"/>
<path d="M85.8136 51.926C86.9178 58.0729 86.1772 64.4773 86.6741 70.7388C87.3774 79.5992 90.651 88.1301 95.7916 94.4978C97.4814 96.5912 99.3673 98.4611 100.899 100.725C102.794 103.526 104.093 106.856 105.063 110.28C107.475 118.789 107.928 127.899 108.361 136.879C108.91 148.27 109.933 158.491 105.672 168.67C109.819 156.307 110.101 144.497 110.21 131.155C110.267 124.052 110.121 116.884 108.774 109.97C107.904 105.503 106.484 101.076 103.949 97.6619C102.893 96.239 101.659 95.0127 100.674 93.5169C97.3582 88.4813 95.6187 81.1075 94.5574 74.7984C93.6896 69.6397 92.0756 52.8629 90.7527 49.7211C89.2145 46.0679 79.4664 35.036 73.4434 39.1701C81.4788 38.701 84.4965 44.5935 85.8136 51.926Z" fill="#B70F02"/>
<path d="M36.8551 52.4767C34.8331 56.5041 33.1765 60.9191 32.8177 65.6112C32.4693 70.1694 33.3589 74.7183 34.2419 79.1694C37.231 94.2344 40.2201 109.299 43.2091 124.364C43.5857 126.263 44.0445 128.317 45.3363 129.487C47.1601 121.788 44.305 113.757 43.2958 105.842C42.2913 97.9637 43.1349 89.8628 42.0721 81.996C41.7105 79.3206 41.129 76.5992 41.5497 73.9364C42.3517 68.8593 46.405 65.6852 49.9859 62.8661C51.8597 61.3908 53.7361 59.8115 55.0644 57.636C56.3927 55.4604 57.1009 52.5602 56.3839 49.9984C55.6445 47.3572 53.5283 45.5571 51.3047 44.8245C44.6584 42.6348 40.339 45.5372 36.8551 52.4767Z" fill="#FF0600"/>
<path d="M64.6908 81.639C66.2862 87.574 70.6914 91.6905 75.0677 94.9941C79.444 98.2977 84.1793 101.334 87.2218 106.374C88.8209 109.023 89.8714 112.109 91.4734 114.755C92.9207 117.146 94.7812 119.118 96.4255 121.314C98.9785 124.724 101.016 128.698 102.407 132.98C104.424 130.651 104.064 126.546 102.732 123.583C101.399 120.62 99.3032 118.232 98.0094 115.244C95.9794 110.555 96.1304 104.92 94.6072 99.9585C93.2833 95.6453 90.6623 91.9345 87.3473 89.6798C84.1973 87.5371 80.0426 86.1335 78.986 81.9525C78.641 80.5876 78.7097 79.1248 78.817 77.7033C79.0508 74.6089 79.4523 71.5331 80.0181 68.502C80.8999 63.7785 82.1907 59.0111 81.7121 54.2032C81.2335 49.3954 78.2774 44.484 74.2756 44.4043C71.6429 44.3519 69.197 46.4828 67.8108 49.0882C66.3703 51.7954 67.0586 54.3617 66.7937 57.4135C66.0976 65.4287 62.5101 73.5272 64.6908 81.639Z" fill="#FF0600"/>
<path d="M59.9588 103.389C57.9419 106.263 57.5184 110.334 57.8234 114.086C58.1284 117.838 59.0658 121.479 59.4282 125.224C59.9142 130.246 59.3566 135.317 59.0978 140.365C58.4915 152.188 59.5437 164.133 62.1956 175.536C62.6173 177.35 63.1628 179.292 64.4551 180.343C60.1272 161.092 60.2728 140.4 64.8707 121.242C65.6569 117.966 66.5795 114.659 66.5204 111.248C66.4716 108.431 63.2009 98.7693 59.9588 103.389Z" fill="#D31600"/>
<path d="M69.7571 140.769C69.6611 144.24 70.7116 147.584 71.5486 150.907C73.1625 157.313 74.0247 163.996 74.1009 170.693C74.1218 172.527 74.1945 174.649 75.4055 175.752C75.6554 168.637 75.9025 161.463 74.967 154.432C74.5967 151.648 74.0406 148.884 73.9764 146.065C73.8319 139.724 76.1615 133.731 78.4442 128.021C79.1956 126.141 79.9663 124.043 79.4906 122.034C79.0447 120.156 77.0934 119.012 75.7209 120.136C74.4901 121.145 74.4339 124.105 74.0565 125.62C72.7828 130.73 69.9087 135.281 69.7571 140.769Z" fill="#B70F02"/>
<path opacity="0.33" d="M38.2762 55.8554C37.434 58.6171 37.07 61.5527 36.7111 64.4643C35.8284 71.6236 34.9503 78.9827 36.2817 86.0396C36.7726 88.6417 37.5612 91.1627 38.6319 93.4963C38.8375 93.9445 39.1997 94.4561 39.5969 94.278C39.863 94.1587 39.9756 93.7832 40.033 93.447C40.4734 90.87 39.5784 88.275 38.9195 85.7671C37.4506 80.1768 37.1328 73.9917 38.8181 68.4915C40.7014 62.3451 44.817 57.6832 48.3257 52.6884C48.5893 52.3128 48.8655 51.8825 48.8425 51.3905C48.8013 50.5047 47.9001 50.1385 47.1763 49.9957C42.8685 49.1457 39.9133 50.4916 38.2762 55.8554Z" fill="white"/>
<path opacity="0.33" d="M69.5163 84.0267C70.7621 86.3548 72.7392 87.9592 74.7575 89.274C76.7759 90.5888 78.9044 91.6914 80.7509 93.3349C83.7612 96.014 85.8178 99.9371 88.339 103.274C88.782 103.861 89.2684 104.452 89.8955 104.687C90.5226 104.921 91.3234 104.668 91.5833 103.939C91.7249 103.541 91.6848 103.084 91.5997 102.664C91.0542 99.9691 88.9493 98.2638 87.2394 96.4151C84.5514 93.5085 82.4413 89.6208 79.1406 87.8663C77.8611 87.1863 76.3023 86.7067 75.7141 85.173C75.4981 84.61 75.4514 83.9764 75.4168 83.3571C75.3209 81.6359 75.2892 79.879 74.8205 78.2499C74.0483 75.566 71.0513 72.9658 69.0447 75.7645C67.58 77.8081 68.4593 82.0516 69.5163 84.0267Z" fill="white"/>
<path opacity="0.33" d="M70.3118 56.2667C69.1476 59.6954 69.8007 63.5748 69.721 67.2803C69.6999 68.2636 69.6264 69.2599 69.7978 70.2214C69.9689 71.183 70.4384 72.1312 71.1926 72.4981C72.1828 72.9797 73.3425 72.2979 74.001 71.2815C74.6592 70.2653 74.9478 68.9817 75.2957 67.7611C76.2744 64.3278 77.8551 60.9869 77.7375 57.3581C77.581 52.5355 71.7326 52.0828 70.3118 56.2667Z" fill="white"/>
<path d="M13.9709 137.599C10.4783 139.943 6.7235 141.728 3.40591 144.419C3.28504 144.939 4.0154 145.003 4.41845 144.77C8.29384 142.529 12.1692 140.289 16.0446 138.048C18.1391 136.838 20.2748 135.593 21.9344 133.629C24.1335 131.028 25.2838 127.429 26.3687 123.947C26.5578 123.34 26.7499 122.706 26.6958 122.061C26.6416 121.416 26.2599 120.761 25.7258 120.705C25.4161 120.673 25.1171 120.841 24.8491 121.032C21.8142 123.189 22.9065 126.439 21.7368 129.543C20.4038 133.08 16.6494 135.8 13.9709 137.599Z" fill="#FF0600"/>
<path d="M56.2971 85.5967C57.6888 84.4341 59.7962 84.2918 60.9454 85.793C58.7557 82.4562 58.2243 77.6416 59.6136 73.7266C58.355 76.7295 56.7952 79.5359 55.5356 82.5381C54.283 85.5232 53.3502 88.744 53.364 92.1268C53.2395 89.6786 54.6646 86.9603 56.2971 85.5967Z" fill="#7A0404"/>
<path d="M42.957 41.9201C43.7887 41.617 44.6626 41.4839 45.5304 41.5278C45.6815 41.5354 45.839 41.5508 45.9684 41.6454C46.1086 41.7478 46.1949 41.9271 46.2903 42.0881C46.7785 42.9118 47.6091 43.3598 48.4392 43.4973C49.2694 43.6346 50.1118 43.4981 50.9419 43.3617C50.6544 43.7341 50.8626 44.3991 51.2373 44.6321C51.612 44.865 52.0632 44.788 52.474 44.6748C52.8849 44.5615 53.3101 44.4169 53.7205 44.5318C54.1469 44.6511 54.4871 45.0316 54.7857 45.4186C55.5515 46.4116 56.1901 47.5481 56.6713 48.7753C56.9564 47.9783 57.8522 47.739 58.5257 48.0392C59.1992 48.3396 59.698 49.022 60.1673 49.6791C60.2261 49.1422 60.8337 48.9356 61.239 49.165C61.6443 49.3946 61.8969 49.8822 62.1661 50.315C62.4353 50.7478 62.7939 51.1772 63.2414 51.1903C63.2535 49.6798 63.1152 48.1677 62.8304 46.6969C62.5785 45.3954 62.2133 44.1306 61.8488 42.8686C61.6828 42.2936 61.5168 41.7187 61.3507 41.1438C60.9488 39.7524 60.5354 38.3347 59.7933 37.1659C58.4517 35.0533 56.0118 34.0264 53.8995 34.7789C52.5846 35.2475 51.4727 36.3119 50.2096 36.9567C48.6585 37.7484 46.9386 37.8805 45.3095 38.3935C43.6801 38.9065 42.0078 39.9646 41.3652 41.8472C41.6877 41.5963 42.0823 41.4843 42.4633 41.5358C42.3833 41.5249 42.2799 41.2097 42.2623 41.1345C42.5744 41.2678 42.8178 41.547 42.957 41.9201Z" fill="#58994B"/>
<path d="M66.2919 44.9116C67.4654 43.194 69.4243 42.6495 71.2459 42.3184C74.2981 41.7633 77.4299 41.5187 80.4595 42.2342C80.3981 42.0664 80.3369 41.8985 80.2755 41.7308C83.6265 42.9678 86.8277 44.7968 89.746 47.142C88.4843 43.2477 86.004 39.9521 82.917 38.0688C82.7018 37.9374 82.4792 37.8089 82.3091 37.6021C82.091 37.337 81.9821 36.9726 81.8621 36.628C80.7121 33.3297 77.9727 31.0356 75.0502 30.4785C72.1275 29.9212 69.0854 30.9738 66.6249 32.9618C65.9614 33.4978 65.3111 34.1348 64.9807 35.0137C64.7537 35.6175 64.6906 36.3051 64.4129 36.8773C63.9426 37.8461 62.9835 38.2631 62.2495 38.9515C61.4384 39.7121 58.8376 45.3629 60.4343 45.5856C61.1323 45.683 62.1232 44.5916 62.8745 44.4942C63.9939 44.349 65.4991 46.0719 66.2919 44.9116Z" fill="#58994B"/>
<path d="M58.1037 36.4671C58.3454 36.8329 58.5652 37.2576 58.5672 37.726C58.569 38.1272 58.408 38.5072 58.1976 38.8173C57.6299 39.6531 56.6611 40.0577 55.7881 39.8234C57.1397 40.344 58.2093 41.6932 58.7834 43.2627C59.3574 44.832 59.4752 46.6019 59.3393 48.3103C59.3279 48.4548 59.3153 48.6059 59.3601 48.7406C59.3962 48.8497 59.4664 48.9364 59.534 49.0206C60.2659 49.9332 60.9152 50.9428 61.4662 52.0257C61.3267 51.6652 61.765 51.3045 62.07 51.4541C62.3749 51.6037 62.5279 52.0081 62.6524 52.3765C62.8879 53.0742 63.1234 53.7719 63.3589 54.4696C63.6254 51.9277 63.6684 49.3515 63.487 46.7985C63.3653 45.0853 63.1028 43.2757 62.152 41.9979C62.0215 41.8226 61.8771 41.6554 61.7932 41.4423C61.709 41.2286 61.6929 40.9867 61.6693 40.7519C61.5072 39.1432 60.9108 37.586 59.9394 36.47C59.1413 35.5532 57.8813 34.7295 56.7488 34.8319C56.944 35.4073 57.7541 35.9378 58.1037 36.4671Z" fill="#4C7744"/>
<path d="M75.6036 31.2255C76.5909 31.8878 77.3595 33.1981 77.2181 34.5532C77.0775 35.9018 76.1336 36.8881 75.2561 37.7371C77.0329 37.2175 81.6712 40.9822 82.4192 41.4513C85.4335 43.3419 89.4296 46.7247 90.979 50.38C90.8711 48.1942 89.2858 44.112 88.0008 42.5702C87.1195 41.5129 83.9103 37.2968 81.8764 37.3942C82.1492 36.9827 82.1811 36.3915 82.046 35.8899C81.911 35.3883 81.6305 34.9631 81.325 34.5869C80.8237 33.9696 80.2438 33.4547 79.6535 32.9664C77.8865 31.5049 75.3657 29.7197 73.1279 30.3593C73.9377 30.7445 74.8086 30.6923 75.6036 31.2255Z" fill="#4C7744"/>
<path d="M61.3891 26.8504C65.6829 25.9428 68.6028 21.8265 70.9139 18.128C71.1625 17.73 71.0116 17.1238 70.5925 16.9025C70.1526 16.6701 69.6323 16.7991 69.3669 17.2237C67.2958 20.5384 64.731 24.3157 60.9127 25.1229C60.4534 25.2199 60.1443 25.7837 60.2871 26.2248C60.5565 27.0572 61.4527 26.8504 61.3891 26.8504Z" fill="#3A3C44"/>
<path d="M73.2707 26.7749C73.6895 26.5625 73.8434 25.9392 73.5921 25.5493C73.3163 25.1215 72.8144 25.0008 72.3666 25.2279C69.1555 26.8558 65.3714 27.5822 61.6411 26.9938C60.2325 26.7716 60.2436 28.5761 61.1648 28.7213C61.9682 28.7215 66.9843 29.9621 73.2707 26.7749Z" fill="#3A3C44"/>
<path d="M48.8866 38.1804C47.5442 38.3697 46.2532 38.9329 45.0384 39.6498C44.664 39.8706 44.2788 40.1246 44.0547 40.5492C44.7171 40.4159 45.3844 40.3184 46.0539 40.2567C46.1358 40.2491 46.2209 40.2427 46.2979 40.2778C46.3686 40.3101 46.4254 40.3746 46.4804 40.4375C46.8273 40.8349 47.1743 41.2324 47.5212 41.6297C47.8393 41.4261 48.1805 41.2751 48.5322 41.1821C48.5052 41.3994 48.6023 41.6313 48.7631 41.7335C49.5812 40.8008 50.6902 40.2961 51.8084 40.1569C52.9266 40.0177 54.0576 40.2231 55.1452 40.567C55.8692 40.796 56.5909 41.093 57.2039 41.6123C56.2048 40.7657 55.0235 40.1216 53.9049 39.5464C52.9225 39.0411 52.0367 38.4181 50.9622 38.2169C50.2759 38.0884 49.5755 38.0832 48.8866 38.1804Z" fill="#77BC53"/>
<path d="M62.6572 39.7864C62.9327 40.1308 63.3957 40.0556 63.7843 39.9624C68.3892 38.8577 73.1728 38.8545 77.7788 39.9529C76.5224 39.6532 75.3973 38.3597 74.0837 38.0447C73.0515 37.7971 71.9144 37.9049 70.8659 37.8799C68.0656 37.8131 65.1366 38.0509 62.6572 39.7864Z" fill="#77BC53"/>
</svg>
