<svg width="143" height="166" viewBox="0 0 143 166" fill="none" xmlns="http://www.w3.org/2000/svg">
<path d="M54.2941 52.5532C54.0359 52.3846 54.3026 51.9808 54.5608 52.1494C55.8235 53 57.0586 53.8838 58.3062 54.7549C58.48 54.8706 58.3115 55.1288 58.1352 55.0207C56.8548 54.1982 55.5593 53.3961 54.2941 52.5532Z" fill="#1D1D1B"/>
<path d="M53.736 54.4265C53.4524 54.2581 53.727 53.8822 54.0052 54.015C57.1219 55.5109 59.8594 58.017 61.9497 60.7439C62.0755 60.9032 61.8456 61.116 61.7097 60.9618C59.3575 58.2597 56.7436 56.3099 53.736 54.4265Z" fill="#1D1D1B"/>
<path d="M55.6332 5.66194C55.6959 5.18326 56.2091 4.74966 56.7305 5.0969C90.6079 27.1971 109.671 69.9302 99.6657 109.763C102.654 109.627 105.76 108.244 108.748 108.861C109.746 109.067 110.537 109.417 111.3 110.088C112.539 111.168 113.334 113.355 114.953 113.89C115.182 113.965 115.257 114.15 115.218 114.323C115.339 114.498 115.391 114.726 115.327 114.951C110.557 131.771 104.86 148.298 98.2344 164.481C98.0769 164.861 97.5375 165.194 97.156 164.858C82.916 152.546 69.0797 139.798 55.6371 126.62C55.2708 126.264 55.4942 125.499 56.0228 125.434C56.0381 125.439 56.0559 125.437 56.0737 125.434C56.628 123.314 57.8427 121.4 58.9586 119.53C59.5415 118.543 60.0282 117.255 61.0213 116.699C61.7154 116.307 64.0608 116.664 64.8898 116.637C66.1563 116.593 67.42 116.53 68.6836 116.442C71.5743 116.24 74.4437 115.896 77.3073 115.466C77.4674 115.442 77.5974 115.484 77.7123 115.547C78.6564 102.295 76.3465 88.9576 69.6883 77.2337C61.1957 62.2825 46.1805 51.4689 29.2129 48.5296C28.5813 48.4172 28.426 47.6984 28.6929 47.32C28.5016 47.2578 28.3374 47.0606 28.4096 46.8388C30.2105 40.8862 33.1122 35.1901 35.6069 29.4969C38.0742 23.888 40.5492 18.2815 43.0267 12.6673C43.0667 12.5704 43.1271 12.4885 43.2004 12.4193C42.6526 11.9451 43.0797 10.866 43.8477 11.1835C43.914 11.2135 43.9804 11.2436 44.0467 11.2736C47.6134 9.22798 51.3344 7.41016 55.0404 5.63825C55.2708 5.52797 55.472 5.55958 55.6332 5.66194ZM55.9761 6.32412C55.9571 6.51249 55.8567 6.69127 55.6336 6.80481C52.1944 8.53662 48.7194 10.2484 45.1667 11.7571C85.1331 29.2319 101.643 78.4344 91.9779 119.148C92.0693 119.127 92.1607 119.106 92.2521 119.085C93.8361 115.828 96.0254 112.919 98.6578 110.418C98.7209 110.354 98.7894 110.325 98.8554 110.304C98.7938 110.234 98.755 110.145 98.7771 110.025C102.323 90.0745 101.173 69.6874 93.2927 50.8501C85.6538 32.624 72.497 17.1115 55.9761 6.32412ZM44.41 12.9913C44.3975 13.0295 44.4004 13.0727 44.388 13.111C39.4131 24.4005 34.9943 36.243 29.1132 47.0939C29.1666 47.0859 29.2123 47.0754 29.276 47.0876C64.3598 53.1792 85.3926 89.4395 77.7684 123.306C78.1107 123.502 78.0876 124.171 77.6125 124.253C71.0476 125.349 64.3927 125.967 57.7716 126.689C70.5683 139.2 83.7336 151.332 97.2597 163.057C103.55 147.569 109.001 131.773 113.602 115.702C106.339 117.357 99.0687 119.01 91.7956 120.67C91.11 120.828 90.7711 120.049 91.0424 119.579C93.6894 97.7378 94.0234 76.1419 85.2678 55.4718C77.3999 36.8836 63.0427 21.0568 44.41 12.9913ZM113.584 114.224C111.737 113.141 110.931 110.756 108.507 110.12C105.633 109.362 102.478 111.102 99.5238 110.928C99.5137 110.933 99.5162 110.925 99.506 110.93C99.4838 111.025 99.4438 111.122 99.3579 111.204C96.9201 113.523 94.9087 116.067 93.1384 118.883C99.9544 117.327 106.768 115.779 113.584 114.224ZM77.6215 116.736C77.6139 116.734 77.6012 116.747 77.5859 116.742C73.5662 117.346 69.5297 117.742 65.4683 117.875C62.5031 117.968 61.2267 118.044 59.6025 120.67C58.6421 122.219 57.8631 123.885 56.7851 125.353C63.4517 124.595 70.1225 123.72 76.8069 123.298C77.17 121.115 77.4339 118.925 77.6215 116.736Z" fill="#1D1D1B"/>
<path d="M55.6341 6.80465C55.8572 6.6911 55.9576 6.51233 55.9766 6.32396C72.4975 17.1113 85.6543 32.6238 93.2932 50.8499C101.173 69.6873 102.323 90.0743 98.7776 110.025C98.7555 110.145 98.7943 110.233 98.8559 110.304C98.7899 110.325 98.7214 110.353 98.6583 110.418C96.0259 112.919 93.8366 115.827 92.2527 119.085C92.1612 119.106 92.0698 119.127 91.9784 119.148C101.644 78.4342 85.1336 29.2318 45.1672 11.757C48.7199 10.2482 52.1949 8.53646 55.6341 6.80465Z" fill="#594234"/>
<path d="M44.3889 13.1112C44.4014 13.073 44.3985 13.0298 44.4109 12.9915C63.0437 21.057 77.4009 36.8839 85.2688 55.4721C94.0243 76.1422 93.6903 97.7381 91.0434 119.58C90.772 120.05 91.1109 120.828 91.7966 120.671C99.0697 119.01 106.34 117.357 113.603 115.702C109.001 131.773 103.551 147.569 97.2607 163.057C83.7345 151.332 70.5692 139.201 57.7725 126.69C64.3936 125.967 71.0485 125.349 77.6135 124.253C78.0886 124.171 78.1117 123.502 77.7694 123.306C85.3935 89.4398 64.3607 53.1795 29.2769 47.0879C29.2133 47.0757 29.1675 47.0862 29.1142 47.0942C34.9955 36.2425 39.4141 24.4007 44.3889 13.1112ZM54.5627 52.1485C54.3046 51.98 54.0379 52.3838 54.2961 52.5524C55.5613 53.3953 56.8568 54.1973 58.1372 55.0198C58.3135 55.1279 58.482 54.8698 58.3082 54.754C57.0603 53.8837 55.8253 52.9999 54.5627 52.1485ZM54.0063 54.0153C53.728 53.8825 53.4535 54.2584 53.7371 54.4268C56.7447 56.3102 59.3585 58.26 61.7107 60.9621C61.8467 61.1163 62.0766 60.9035 61.9508 60.7442C59.8604 58.0173 57.123 55.5113 54.0063 54.0153ZM103.958 128.086C104.056 127.788 103.597 127.639 103.5 127.937C102.726 130.316 101.998 132.71 101.262 135.101C101.2 135.292 101.498 135.389 101.561 135.198C102.365 132.829 103.185 130.465 103.958 128.086ZM105.685 129.773C105.78 129.457 105.305 129.302 105.196 129.614C103.967 133.156 102.895 136.765 101.758 140.337C101.674 140.597 102.071 140.727 102.156 140.467C103.338 136.91 104.595 133.359 105.685 129.773Z" fill="#F0D39D"/>
<path d="M108.508 110.119C110.931 110.755 111.737 113.14 113.584 114.223C106.768 115.779 99.9547 117.326 93.1387 118.882C94.909 116.066 96.9204 113.523 99.3582 111.203C99.4441 111.121 99.4841 111.024 99.5063 110.93C99.5164 110.925 99.5139 110.932 99.5241 110.927C102.479 111.101 105.633 109.362 108.508 110.119Z" fill="#594234"/>
<path d="M77.586 116.742C77.6013 116.747 77.614 116.734 77.6216 116.737C77.434 118.926 77.1701 121.115 76.807 123.298C70.1226 123.72 63.4518 124.595 56.7852 125.354C57.8632 123.886 58.6422 122.219 59.6026 120.67C61.2268 118.044 62.5032 117.968 65.4684 117.876C69.5298 117.742 73.5665 117.345 77.586 116.742Z" fill="#594234"/>
<path d="M103.499 127.937C103.596 127.638 104.055 127.788 103.958 128.086C103.184 130.465 102.364 132.829 101.56 135.198C101.498 135.389 101.199 135.292 101.262 135.101C101.997 132.709 102.725 130.316 103.499 127.937Z" fill="#1D1D1B"/>
<path d="M105.195 129.613C105.305 129.302 105.779 129.456 105.685 129.772C104.594 133.359 103.338 136.909 102.155 140.466C102.071 140.726 101.673 140.597 101.758 140.337C102.894 136.765 103.967 133.154 105.195 129.613Z" fill="#1D1D1B"/>
<path d="M65.8811 129.533C72.6275 137.478 80.4675 144.874 88.1232 151.937C89.6477 153.343 92.0798 151.181 90.5424 149.783C82.7489 142.697 74.6271 135.454 66.0284 129.364C65.921 129.288 65.7998 129.437 65.8811 129.533Z" fill="white"/>
<path d="M92.1725 153.784C92.1356 153.855 92.0996 153.927 92.0634 153.999C90.7755 156.547 94.8119 157.878 95.2715 155.043C95.2839 154.963 95.2971 154.884 95.3102 154.804C95.5744 153.173 92.9191 152.308 92.1725 153.784Z" fill="white"/>
<path d="M50.0716 21.4717C64.3785 32.9235 75.5962 47.9745 80.873 65.6353C81.4666 67.6224 84.6689 66.8869 84.0092 64.9519C77.9052 47.0364 66.488 31.1787 50.2659 21.1762C50.0699 21.0558 49.8964 21.3318 50.0716 21.4717Z" fill="white"/>
<path d="M83.3343 72.7241C82.6391 74.8613 85.9594 75.9447 86.6555 73.8044C87.3507 71.6672 84.0307 70.5831 83.3343 72.7241Z" fill="white"/>
</svg>
