<svg width="96" height="93" viewBox="0 0 96 93" fill="none" xmlns="http://www.w3.org/2000/svg">
<path d="M7.33697 45.8706C6.78783 39.0916 11.147 32.9308 14.4706 31.4588C20.8197 28.6443 34.8294 28.2622 34.8294 28.2622C34.8294 28.2622 34.4409 19.551 39.8642 16.8483C46.7145 13.4383 86.9256 33.9756 91.1291 45.3144C91.4009 46.0421 91.5219 46.732 91.4759 47.376C90.7242 58.0378 42.6535 75.5116 35.2223 72.1023C30.5317 69.9493 31.9312 60.3287 31.9312 60.3287C31.9312 60.3287 23.6439 60.3409 16.3066 58.91C15.2475 58.7026 14.2349 58.2432 13.2997 57.5849C10.0628 55.3123 7.72461 50.6683 7.33697 45.8706Z" fill="#F0D39D"/>
<path d="M7.33693 45.871C6.7878 39.092 11.147 32.9312 14.4706 31.4593C20.8197 28.6447 34.8293 28.2626 34.8293 28.2626C34.8293 28.2626 34.4408 19.5514 39.8642 16.8487C46.7145 13.4387 86.9256 33.976 91.1291 45.3148L90.937 45.5194C80.942 36.4432 46.4535 17.2485 40.8443 25.3943C39.0067 28.0632 39.0101 35.1085 39.0101 35.1085C39.0101 35.1085 20.0113 35.3229 15.8362 39.2187C11.0363 43.6952 11.5675 52.9578 13.5506 57.4442C13.5506 57.4442 13.4619 57.4948 13.2996 57.5853C10.0627 55.3128 7.72457 50.6687 7.33693 45.871Z" fill="#322015"/>
<path d="M10.4895 34.3169C11.7048 32.746 13.061 31.593 14.2892 31.0492C20.0842 28.4802 31.895 27.9198 34.3734 27.8289C34.3726 26.3696 34.5755 21.7946 36.9931 18.6692C37.6859 17.7736 38.5602 16.9976 39.6643 16.4474C42.3709 15.1 48.9449 17.1949 53.9833 19.1896C67.3664 24.4877 88.4448 36.7842 91.5495 45.1588C91.8469 45.9551 91.9728 46.7122 91.9232 47.408C91.7107 50.42 88.1571 53.9904 81.361 58.0193C74.4071 62.1419 64.4643 66.4281 54.764 69.4847C44.993 72.5637 37.6178 73.6945 35.0354 72.51C30.6858 70.5133 31.2002 62.85 31.4252 60.7729C29.5058 60.7474 22.4818 60.5711 16.2209 59.3501C15.1245 59.1354 14.055 58.6648 13.0419 57.9514C9.70716 55.6103 7.29237 50.8822 6.89044 45.9066C6.52792 41.4335 8.27357 37.181 10.4895 34.3169ZM35.184 28.5366C35.1757 28.5472 35.1669 28.5577 35.1575 28.5677C35.0756 28.6557 34.9618 28.7072 34.8418 28.7104C34.7025 28.7142 20.8473 29.1226 14.6523 31.8687C11.4271 33.2972 7.25444 39.301 7.78389 45.8344C7.78397 45.8345 7.78397 45.8345 7.78386 45.8346C8.16525 50.5552 10.4315 55.0236 13.5574 57.2182C14.4674 57.8589 15.4212 58.2801 16.3928 58.4703C23.6035 59.8765 31.8483 59.8807 31.9307 59.8807C32.0609 59.8805 32.1848 59.937 32.2701 60.0353C32.3554 60.1338 32.3937 60.2644 32.375 60.3933C32.3615 60.4861 31.0782 69.707 35.4094 71.6951C40.5293 74.0439 66.4655 65.808 80.9038 57.2483C87.3398 53.4327 90.8409 50.0081 91.029 47.3446C91.0693 46.7776 90.9619 46.1474 90.7093 45.4715C89.4226 42.0003 84.39 37.2305 76.5384 32.0399C69.5572 27.4246 61.002 22.9323 53.6533 20.023C46.8706 17.3379 41.9176 16.3271 40.0641 17.2497C34.9683 19.7895 35.2736 28.1584 35.2773 28.2426C35.282 28.3489 35.2486 28.4531 35.184 28.5366Z" fill="#000200"/>
<path d="M15.55 54.0753C15.9309 53.583 16.6165 53.407 17.1991 53.6892C19.4123 54.7611 24.4902 54.8291 26.2601 54.765C27.0022 54.7381 27.6257 55.3179 27.6527 56.06C27.6797 56.8024 27.0997 57.4258 26.3575 57.4526C25.6379 57.4788 19.2339 57.6628 16.0269 56.1097C15.3585 55.786 15.079 54.9818 15.4027 54.3133C15.4443 54.2275 15.4939 54.1479 15.55 54.0753Z" fill="white"/>
<path d="M59.7049 61.35C59.8441 61.1701 60.0308 61.0231 60.2563 60.9303C82.0435 51.9689 83.5958 47.6906 83.6857 46.9237C83.6978 46.8187 83.6835 46.7605 83.6731 46.7427C83.6728 46.7422 83.6727 46.7419 83.6727 46.7419C83.6728 46.7418 83.6744 46.7435 83.6764 46.7457C83.689 46.7537 83.7763 46.8318 83.7763 46.8318L85.3463 44.6483C85.9052 45.0502 86.5053 45.9691 86.3568 47.2366C86.1431 49.0614 84.4718 51.0596 81.248 53.3441C77.0976 56.2856 70.3792 59.6748 61.2794 63.4176C60.5926 63.7 59.8068 63.3723 59.5243 62.6855C59.3345 62.2241 59.4201 61.7181 59.7049 61.35Z" fill="white"/>
</svg>
