<svg width="157" height="117" viewBox="0 0 157 117" fill="none" xmlns="http://www.w3.org/2000/svg">
<path d="M100.682 86.1592C100.737 86.4631 101.236 86.3789 101.181 86.0751C100.89 84.5782 100.555 83.0936 100.237 81.6024C100.199 81.3969 99.8806 81.449 99.911 81.6537C100.168 83.1555 100.399 84.6631 100.682 86.1592Z" fill="#1D1D1B"/>
<path d="M98.6513 85.9275C98.695 86.2547 99.1703 86.1523 99.1586 85.8442C99.0189 82.3896 97.7513 78.8815 96.0023 75.8792C95.9016 75.7004 95.6016 75.8268 95.6931 76.0128C97.3093 79.2455 98.0942 82.4191 98.6513 85.9275Z" fill="#1D1D1B"/>
<path d="M146.274 103.575C146.76 103.708 147.39 103.409 147.274 102.793C140.147 62.9211 107.039 28.4395 64.6189 21.7822C65.9931 19.0948 68.6144 16.7949 69.2657 13.8078C69.483 12.8095 69.4757 11.9443 69.1487 10.9775C68.6274 9.41131 66.8576 7.81304 67.0175 6.11461C67.0413 5.87438 66.8947 5.73183 66.7119 5.69913C66.5945 5.51884 66.3968 5.37976 66.1545 5.34977C48.0152 3.03819 29.7714 1.6948 11.4718 1.34017C11.0412 1.33354 10.4978 1.69645 10.6613 2.17986C16.5601 20.1413 23.045 37.9053 30.1069 55.4791C30.2964 55.9568 31.1238 56.0559 31.4061 55.5967C31.4077 55.5806 31.4177 55.5654 31.4276 55.5501C33.6948 55.8845 36.0386 55.531 38.299 55.2507C39.4886 55.1078 40.9283 55.1734 41.8762 54.4835C42.5412 54.0023 43.1745 51.7085 43.5449 50.9582C44.1149 49.814 44.701 48.6793 45.3114 47.5549C46.708 44.9827 48.2324 42.4866 49.8374 40.0301C49.9271 39.8928 49.9406 39.7567 49.9282 39.6263C63.0483 44.0289 74.8966 51.4514 83.3855 62.2219C94.2105 75.959 98.3472 94.0357 94.109 110.773C93.9541 111.397 94.5797 111.826 95.0542 111.731C95.0344 111.931 95.1554 112.161 95.3985 112.183C101.865 112.897 108.543 112.499 115.049 112.474C121.463 112.44 127.877 112.398 134.3 112.357C134.41 112.359 134.514 112.336 134.611 112.296C134.838 112.987 136.052 113.024 136.067 112.193C136.066 112.121 136.064 112.048 136.063 111.975C139.512 109.516 142.806 106.824 146.051 104.128C146.252 103.961 146.306 103.763 146.274 103.575ZM145.781 102.997C145.592 102.939 145.379 102.96 145.177 103.12C142.083 105.587 138.992 108.095 136.065 110.755C135.914 67.1355 95.5306 32.424 52.4067 25.1051C52.465 25.0296 52.5232 24.9541 52.5814 24.8785C56.3689 24.7202 60.073 23.8676 63.5712 22.4469C63.659 22.4145 63.7148 22.363 63.7623 22.3107C63.8047 22.3953 63.8737 22.4662 63.9979 22.4936C84.6343 27.1722 103.735 36.3335 118.548 51.0534C132.873 65.3091 142.296 83.549 145.781 102.997ZM134.565 110.959C134.523 110.955 134.482 110.935 134.441 110.931C121.528 111.007 108.315 110.353 95.4464 111.435C95.4763 111.39 95.5054 111.352 95.5201 111.289C104.27 76.6751 78.1984 42.9594 42.5001 36.49C42.4544 36.098 41.8021 35.8532 41.5253 36.2564C37.7409 41.8445 34.3777 47.705 30.9287 53.4932C24.2385 36.7771 18.0657 19.8735 12.4341 2.80078C29.927 3.18748 47.3654 4.46606 64.7156 6.63354C60.1033 12.6396 55.4902 18.6537 50.8687 24.667C50.432 25.2335 51.0386 25.8539 51.6029 25.7919C73.6814 32.0472 94.5613 40.3271 110.769 56.5791C125.347 71.1889 134.573 90.6552 134.565 110.959ZM66.1272 7.23794C66.3986 9.3632 68.3541 11.051 67.9564 13.5278C67.4875 16.4668 64.5038 18.6692 63.4417 21.4495C63.4326 21.4568 63.4409 21.4575 63.4318 21.4648C63.332 21.4477 63.2222 21.4458 63.1077 21.492C59.8653 22.8065 56.5858 23.641 53.1446 24.1457C57.4749 18.5101 61.7969 12.8736 66.1272 7.23794ZM48.7482 39.2367C48.7474 39.2447 48.7298 39.2512 48.7282 39.2673C46.4752 42.7154 44.4154 46.2619 42.5968 49.9352C41.2736 52.6192 40.67 53.7604 37.4714 54.2062C35.5845 54.4719 33.6596 54.5239 31.8012 54.9295C35.3037 49.1139 38.9204 43.3409 42.1079 37.3756C44.3552 37.9102 46.5678 38.5386 48.7482 39.2367Z" fill="#1D1D1B"/>
<path d="M145.177 103.12C145.378 102.961 145.592 102.939 145.781 102.997C142.296 83.549 132.873 65.3091 118.547 51.0534C103.735 36.3335 84.6338 27.1723 63.9974 22.4937C63.8733 22.4663 63.8042 22.3954 63.7618 22.3108C63.7144 22.3631 63.6585 22.4146 63.5707 22.447C60.0725 23.8677 56.3684 24.7203 52.581 24.8786C52.5227 24.9541 52.4645 25.0296 52.4063 25.1052C95.5302 32.4241 135.914 67.1356 136.064 110.755C138.992 108.095 142.082 105.587 145.177 103.12Z" fill="#594234"/>
<path d="M134.44 110.93C134.482 110.934 134.522 110.954 134.564 110.958C134.572 90.6544 125.347 71.1881 110.769 56.5783C94.5607 40.3263 73.6808 32.0464 51.6023 25.7911C51.038 25.8532 50.4314 25.2327 50.8681 24.6662C55.4896 18.6529 60.1027 12.6388 64.715 6.63274C47.3647 4.46527 29.9264 3.18668 12.4335 2.79998C18.0651 19.8727 24.2378 36.7763 30.9281 53.4924C34.3771 47.7042 37.7403 41.8437 41.5247 36.2556C41.8014 35.8524 42.4537 36.0973 42.4995 36.4892C78.1978 42.9586 104.269 76.6743 95.5195 111.288C95.5047 111.351 95.4756 111.389 95.4457 111.435C108.315 110.353 121.527 111.007 134.44 110.93ZM101.182 86.0744C101.237 86.3783 100.738 86.4625 100.683 86.1586C100.4 84.6625 100.169 83.1549 99.912 81.6531C99.8816 81.4483 100.2 81.3963 100.238 81.6018C100.555 83.0929 100.89 84.5775 101.182 86.0744ZM99.1576 85.8428C99.1694 86.1509 98.6941 86.2533 98.6504 85.9262C98.0933 82.4177 97.3084 79.2441 95.6921 76.0115C95.6006 75.8254 95.9007 75.6991 96.0014 75.8778C97.7504 78.8801 99.018 82.3882 99.1576 85.8428ZM48.8074 10.5586C49.1343 10.5882 49.0867 11.0686 48.7598 11.039C46.1531 10.8032 43.5511 10.5194 40.9483 10.2435C40.7388 10.2246 40.7697 9.91223 40.9793 9.93119C43.5892 10.135 46.2007 10.3228 48.8074 10.5586ZM47.9061 8.30361C48.249 8.34271 48.1998 8.83919 47.8553 8.8161C43.9423 8.53483 40.0291 8.08387 36.1256 7.7065C35.8406 7.68072 35.8819 7.26432 36.1668 7.2901C40.0751 7.61943 44.0082 7.87827 47.9061 8.30361Z" fill="#F0D39D"/>
<path d="M67.9563 13.5276C68.354 11.0508 66.3986 9.36296 66.1272 7.23769C61.7968 12.8734 57.4749 18.5098 53.1445 24.1455C56.5858 23.6408 59.8652 22.8063 63.1077 21.4918C63.2222 21.4456 63.3319 21.4474 63.4317 21.4645C63.4409 21.4573 63.4325 21.4565 63.4417 21.4493C64.5046 18.6691 67.4874 16.4665 67.9563 13.5276Z" fill="#594234"/>
<path d="M48.7278 39.2675C48.7294 39.2514 48.7469 39.245 48.7477 39.2369C46.5674 38.5388 44.3547 37.9104 42.1074 37.3758C38.9199 43.3411 35.3033 49.1141 31.8008 54.9297C33.6592 54.5242 35.5841 54.4721 37.471 54.2064C40.6696 53.7606 41.2732 52.6194 42.5963 49.9354C44.415 46.2621 46.4756 42.7157 48.7278 39.2675Z" fill="#594234"/>
<path d="M48.7606 11.04C49.0875 11.0696 49.1351 10.5891 48.8082 10.5596C46.2015 10.3238 43.59 10.136 40.98 9.93218C40.7705 9.91323 40.7395 10.2255 40.9491 10.2445C43.5519 10.5204 46.1538 10.8042 48.7606 11.04Z" fill="#1D1D1B"/>
<path d="M47.8552 8.81627C48.1996 8.83935 48.2488 8.34288 47.9059 8.30378C44.0072 7.87836 40.075 7.61959 36.1667 7.29027C35.8817 7.26449 35.8404 7.68089 36.1254 7.70667C40.0289 8.08404 43.9429 8.53507 47.8552 8.81627Z" fill="#1D1D1B"/>
<path d="M31.5721 44.9213C26.7496 35.5724 22.909 25.4381 19.3117 15.6053C18.5958 13.6475 21.6841 12.2754 22.3865 14.2417C25.9492 24.2103 29.525 34.542 31.7961 44.8535C31.824 44.9821 31.6302 45.0341 31.5721 44.9213Z" fill="white"/>
<path d="M19.2231 11.1563C19.1389 11.1616 19.0547 11.1661 18.9705 11.1706C15.9879 11.3395 16.3889 7.1065 19.3034 7.81211C19.3851 7.83243 19.4669 7.85194 19.5487 7.87146C21.2252 8.27764 20.9513 11.0581 19.2231 11.1563Z" fill="white"/>
<path d="M128.776 102.392C123.732 84.7114 113.945 68.4343 99.1793 56.5708C97.5179 55.236 99.5569 52.5901 101.141 53.9647C115.807 66.6887 126.285 83.4695 129.141 102.331C129.175 102.559 128.838 102.608 128.776 102.392Z" fill="white"/>
<path d="M93.3963 51.493C91.0545 51.2811 91.3957 47.8038 93.7409 48.016C96.0828 48.2278 95.7424 51.7052 93.3963 51.493Z" fill="white"/>
</svg>
