<svg width="149" height="117" viewBox="0 0 149 117" fill="none" xmlns="http://www.w3.org/2000/svg">
<path d="M53.0308 86.1592C52.9787 86.4631 52.5022 86.3789 52.5542 86.0751C52.8326 84.5782 53.1525 83.0936 53.4557 81.6024C53.4928 81.3969 53.7967 81.449 53.7676 81.6537C53.522 83.1555 53.3012 84.6631 53.0308 86.1592Z" fill="#1D1D1B"/>
<path d="M54.9721 85.9275C54.9303 86.2547 54.4762 86.1523 54.4875 85.8442C54.6209 82.3896 55.8319 78.8815 57.5029 75.8792C57.5991 75.7004 57.8858 75.8268 57.7984 76.0128C56.2542 79.2455 55.5044 82.4191 54.9721 85.9275Z" fill="#1D1D1B"/>
<path d="M9.47237 103.575C9.00825 103.708 8.40634 103.409 8.51763 102.793C15.3266 62.9211 46.9576 28.4395 87.485 21.7822C86.1721 19.0948 83.6678 16.7949 83.0456 13.8078C82.838 12.8094 82.8449 11.9443 83.1574 10.9774C83.6555 9.41131 85.3463 7.81303 85.1935 6.11461C85.1708 5.87437 85.3108 5.73183 85.4855 5.69913C85.5977 5.51883 85.7865 5.37976 86.018 5.34977C103.348 3.03819 120.778 1.6948 138.261 1.34017C138.673 1.33353 139.192 1.69644 139.035 2.17986C133.4 20.1413 127.204 37.9053 120.457 55.4791C120.276 55.9568 119.486 56.0559 119.216 55.5967C119.215 55.5806 119.205 55.5654 119.196 55.5501C117.03 55.8845 114.79 55.531 112.631 55.2507C111.494 55.1078 110.119 55.1734 109.213 54.4835C108.578 54.0023 107.973 51.7085 107.619 50.9582C107.074 49.814 106.514 48.6793 105.931 47.5549C104.597 44.9827 103.141 42.4866 101.607 40.0301C101.521 39.8928 101.509 39.7567 101.52 39.6263C88.9856 44.0289 77.6659 51.4513 69.5557 62.2219C59.2137 75.959 55.2615 94.0357 59.3106 110.773C59.4586 111.397 58.8609 111.826 58.4075 111.731C58.4265 111.931 58.3108 112.161 58.0786 112.183C51.9007 112.897 45.5205 112.499 39.3048 112.474C33.1772 112.44 27.0489 112.398 20.9125 112.357C20.8077 112.359 20.7085 112.336 20.6159 112.296C20.3986 112.987 19.2386 113.024 19.2246 112.193C19.2258 112.121 19.2269 112.048 19.2281 111.975C15.9331 109.516 12.7857 106.824 9.68635 104.128C9.49355 103.961 9.44257 103.763 9.47237 103.575ZM9.94365 102.997C10.124 102.939 10.328 102.96 10.5209 103.12C13.4773 105.587 16.4296 108.095 19.2265 110.755C19.3704 67.1355 57.9524 32.424 99.1524 25.1051C99.0968 25.0296 99.0412 24.9541 98.9855 24.8785C95.367 24.7202 91.8282 23.8676 88.486 22.4469C88.4022 22.4145 88.3488 22.363 88.3035 22.3107C88.263 22.3953 88.197 22.4662 88.0784 22.4936C68.3627 27.1722 50.1136 36.3335 35.9622 51.0534C22.2758 65.3091 13.2731 83.549 9.94365 102.997ZM20.6598 110.959C20.6998 110.955 20.7383 110.935 20.7783 110.931C33.1151 111.007 45.7383 110.353 58.0329 111.435C58.0043 111.39 57.9765 111.352 57.9625 111.289C49.6028 76.6751 74.5114 42.9594 108.617 36.49C108.661 36.098 109.284 35.8532 109.548 36.2564C113.164 41.8445 116.377 47.705 119.672 53.4932C126.064 36.7771 131.961 19.8735 137.342 2.80078C120.629 3.18747 103.969 4.46606 87.3927 6.63354C91.7992 12.6396 96.2065 18.6537 100.622 24.667C101.039 25.2335 100.46 25.854 99.9204 25.7919C78.8269 32.0472 58.8785 40.3271 43.3935 56.5791C29.466 71.1889 20.6521 90.6552 20.6598 110.959ZM86.044 7.23793C85.7847 9.3632 83.9166 11.051 84.2965 13.5278C84.7445 16.4668 87.5951 18.6692 88.6097 21.4495C88.6185 21.4568 88.6105 21.4575 88.6193 21.4648C88.7146 21.4477 88.8195 21.4458 88.9289 21.492C92.0267 22.8065 95.1598 23.641 98.4475 24.1457C94.3104 18.5101 90.1812 12.8736 86.044 7.23793ZM102.648 39.2367C102.649 39.2447 102.665 39.2512 102.667 39.2673C104.819 42.7154 106.787 46.2619 108.525 49.9352C109.789 52.6192 110.366 53.7604 113.421 54.2062C115.224 54.4719 117.063 54.5239 118.839 54.9295C115.492 49.1139 112.037 43.3409 108.992 37.3756C106.845 37.9102 104.731 38.5385 102.648 39.2367Z" fill="#1D1D1B"/>
<path d="M10.5211 103.12C10.3283 102.961 10.1243 102.939 9.94393 102.997C13.2734 83.549 22.2761 65.3091 35.9625 51.0534C50.1139 36.3335 68.3629 27.1723 88.0787 22.4937C88.1973 22.4663 88.2633 22.3954 88.3037 22.3108C88.3491 22.3631 88.4025 22.4146 88.4863 22.447C91.8285 23.8677 95.3673 24.7203 98.9858 24.8786C99.0414 24.9541 99.0971 25.0296 99.1527 25.1052C57.9527 32.4241 19.3707 67.1356 19.2268 110.755C16.4298 108.095 13.4776 105.587 10.5211 103.12Z" fill="#594234"/>
<path d="M20.7783 110.93C20.7383 110.934 20.6997 110.954 20.6597 110.958C20.6521 90.6544 29.4659 71.1881 43.3935 56.5783C58.8784 40.3263 78.8268 32.0464 99.9203 25.7911C100.459 25.8532 101.039 25.2327 100.622 24.6662C96.2065 18.6529 91.7992 12.6388 87.3926 6.63274C103.969 4.46526 120.629 3.18668 137.342 2.79998C131.961 19.8727 126.064 36.7763 119.672 53.4924C116.377 47.7042 113.164 41.8437 109.548 36.2556C109.284 35.8524 108.661 36.0972 108.617 36.4892C74.5113 42.9586 49.6028 76.6743 57.9624 111.288C57.9765 111.351 58.0043 111.389 58.0329 111.435C45.7374 110.353 33.1151 111.007 20.7783 110.93ZM52.5524 86.0744C52.5004 86.3783 52.9769 86.4625 53.029 86.1586C53.2994 84.6625 53.5202 83.1549 53.7658 81.6531C53.7949 81.4483 53.491 81.3963 53.4539 81.6018C53.1515 83.0929 52.8316 84.5775 52.5524 86.0744ZM54.4865 85.8428C54.4753 86.1509 54.9294 86.2533 54.9711 85.9262C55.5034 82.4177 56.2533 79.2441 57.7974 76.0115C57.8849 75.8254 57.5982 75.6991 57.502 75.8778C55.831 78.8801 54.62 82.3882 54.4865 85.8428ZM102.591 10.5586C102.278 10.5881 102.324 11.0686 102.636 11.039C105.126 10.8032 107.612 10.5194 110.099 10.2435C110.299 10.2245 110.27 9.91223 110.069 9.93119C107.576 10.135 105.081 10.3228 102.591 10.5586ZM103.452 8.30361C103.124 8.34271 103.171 8.83918 103.5 8.81611C107.239 8.53483 110.977 8.08387 114.707 7.7065C114.979 7.68072 114.939 7.26432 114.667 7.2901C110.933 7.61943 107.176 7.87827 103.452 8.30361Z" fill="#F0D39D"/>
<path d="M84.2963 13.5276C83.9163 11.0508 85.7845 9.36296 86.0438 7.23769C90.1809 12.8734 94.3101 18.5098 98.4473 24.1455C95.1595 23.6408 92.0264 22.8063 88.9286 21.4918C88.8192 21.4456 88.7144 21.4474 88.619 21.4645C88.6103 21.4573 88.6183 21.4565 88.6095 21.4493C87.594 18.6691 84.7442 16.4665 84.2963 13.5276Z" fill="#594234"/>
<path d="M102.668 39.2675C102.666 39.2514 102.65 39.245 102.649 39.2369C104.732 38.5388 106.846 37.9104 108.993 37.3758C112.038 43.3411 115.494 49.1141 118.84 54.9297C117.064 54.5242 115.225 54.4721 113.423 54.2064C110.367 53.7606 109.79 52.6194 108.526 49.9354C106.788 46.2621 104.82 42.7157 102.668 39.2675Z" fill="#594234"/>
<path d="M102.636 11.04C102.324 11.0696 102.279 10.5891 102.591 10.5596C105.081 10.3238 107.576 10.136 110.07 9.93218C110.27 9.91323 110.3 10.2255 110.099 10.2445C107.613 10.5204 105.127 10.8042 102.636 11.04Z" fill="#1D1D1B"/>
<path d="M103.5 8.81627C103.171 8.83935 103.124 8.34288 103.452 8.30378C107.177 7.87836 110.933 7.61959 114.667 7.29027C114.94 7.26449 114.979 7.68089 114.707 7.70667C110.977 8.08404 107.238 8.53507 103.5 8.81627Z" fill="#1D1D1B"/>
<path d="M119.058 44.9213C123.665 35.5724 127.334 25.4381 130.771 15.6053C131.455 13.6475 128.504 12.2754 127.833 14.2417C124.43 24.2103 121.013 34.542 118.843 44.8535C118.817 44.9821 119.002 45.0341 119.058 44.9213Z" fill="white"/>
<path d="M130.856 11.1563C130.936 11.1616 131.017 11.1661 131.097 11.1706C133.947 11.3395 133.564 7.1065 130.779 7.81211C130.701 7.83243 130.623 7.85194 130.545 7.87146C128.943 8.27764 129.205 11.0581 130.856 11.1563Z" fill="white"/>
<path d="M26.1908 102.392C31.0103 84.7114 40.3604 68.4343 54.4672 56.5707C56.0545 55.236 54.1065 52.5901 52.5932 53.9647C38.5816 66.6887 28.5706 83.4695 25.8425 102.331C25.8099 102.559 26.1321 102.608 26.1908 102.392Z" fill="white"/>
<path d="M59.9926 51.493C62.23 51.2811 61.904 47.8038 59.6634 48.016C57.426 48.2278 57.7512 51.7052 59.9926 51.493Z" fill="white"/>
</svg>
