<svg width="265" height="156" viewBox="0 0 265 156" fill="none" xmlns="http://www.w3.org/2000/svg">
<path d="M130.009 11.17C126.352 15.495 126.027 23.5817 129.235 28.3459C132.453 33.1101 144.502 37.0914 149.829 30.3604C155.166 23.6294 152.789 15.5427 145.953 13.2704C139.107 11.0077 136.195 14.1392 134.152 16.4497C132.109 18.7698 132.376 26.1022 138.353 27.4962C144.33 28.8997 146.488 23.9922 146.65 23.5626C146.812 23.133 147.08 16.8794 141.857 17.309C136.625 17.7386 136.74 21.7295 137.761 24.0973C137.761 24.0973 135.441 23.4767 135.537 20.0873C135.699 14.5498 141.532 14.7025 141.532 14.7025C146.297 14.3684 153.285 20.3547 147.633 27.2288C141.981 34.0935 132.224 29.1097 130.677 22.6842C129.13 16.2588 134.773 8.50621 143.747 9.94788C152.732 11.3896 156.493 18.4738 155.835 28.0117C155.166 37.5401 149.295 46.0756 149.295 46.0756C152.178 46.1806 157.715 41.7601 158.05 38.7622C158.384 35.7643 162.594 31.0001 162.594 31.0001L162.04 27.8972C160.818 19.0276 154.727 13.385 150.736 9.94788C146.745 6.51079 146.344 2.12849 145.972 2.10939C145.6 2.09985 145.39 5.81383 140.434 6.39622C136.081 6.91179 132.825 7.67559 130.009 11.17Z" fill="white"/>
<path d="M117.423 26.2837C117.796 31.8212 119.047 34.6377 119.047 34.6377C119.047 34.6377 122.894 37.2919 126.073 38.8482C129.243 40.4044 132.575 44.0993 132.719 44.9777C132.719 44.9777 138.332 47.3454 145.273 46.9731C145.273 46.9731 150.305 42.4667 152.663 31.1624C152.663 31.1624 146.982 37.0055 141.435 36.4136C135.898 35.8216 125.176 33.387 124.517 21.7868C124.088 14.3207 127.506 9.89062 127.506 9.89062C127.506 9.89062 116.679 15.0845 117.423 26.2837Z" fill="white"/>
<path d="M115.868 32.7956C115.868 32.7956 113.281 22.5989 117.128 16.8418C117.128 16.8418 122.59 6.20587 134.705 4.72601C146.821 3.24615 142.544 0.515565 142.907 0H142.544C142.544 0 143.203 2.14819 140.253 2.36778C137.293 2.58737 129.321 2.58737 125.845 2.95972C125.845 2.95972 114.913 3.99085 107.963 10.7887L108.412 20.3171C108.412 20.3075 108.335 26.0647 115.868 32.7956Z" fill="white"/>
<path d="M108.641 54.4019C110.408 44.4916 121.015 44.3102 121.015 44.3102C125.245 43.5751 128.729 44.2911 128.863 44.1288C128.997 43.976 128.567 43.7469 128.567 43.7469C128.567 43.7469 127.097 41.4173 118.781 37.7224C108.307 33.0633 105.854 20.6133 105.854 20.6133L105.204 10.0252C105.204 10.0252 105.157 9.84375 104.985 9.84375C104.813 9.84375 104.813 9.96787 104.813 9.96787C104.813 9.96787 104.612 10.5216 104.641 11.7723C104.803 18.7516 97.2035 17.6822 97.1176 35.2974C97.0412 50.812 107.925 59.653 107.925 59.653C109.042 60.5409 108.594 59.3762 108.594 59.3762C108.135 57.3425 108.641 54.4019 108.641 54.4019Z" fill="white"/>
<path d="M158.345 42.7628C152.139 52.6635 137.655 49.1882 134.705 48.3767C134.705 48.3767 128.795 46.2285 122.742 46.7536C105.767 48.2048 112.393 63.1562 112.393 63.1562C112.393 63.1562 117.711 67.5958 127.611 68.035C140.243 68.5983 148.301 61.9723 148.301 61.9723C160.407 53.2555 161.744 43.2115 163.806 37.378C165.878 31.5349 167.644 30.2842 167.644 30.2842C164.111 31.2389 164.551 32.862 158.345 42.7628Z" fill="white"/>
<path d="M0 113.634C1.63262 113.624 2.69239 113.328 3.18886 112.765C3.67578 112.202 3.92402 111.352 3.92402 110.216V89.8222C3.92402 88.6574 3.64714 87.8936 3.08384 87.5213C2.52054 87.1585 1.53715 86.9102 0.105021 86.8052V85.7168H10.9223L19.3719 105.585H19.7251L28.1174 85.7168H38.9347V86.8052C37.4835 86.9198 36.4905 87.1871 35.9559 87.6072C35.4212 88.0273 35.1634 89.068 35.1634 90.7197V109.7C35.1634 111.275 35.4307 112.316 35.9559 112.803C36.4905 113.29 37.4739 113.567 38.9347 113.624V114.713H24.6803V113.624C25.9501 113.586 26.9048 113.366 27.5541 112.984C28.1937 112.603 28.5184 111.762 28.5184 110.464V89.4881H28.2033L17.682 114.722H16.5267L5.90035 89.9941H5.7094V109.395C5.7094 110.827 5.97673 111.877 6.50184 112.536C7.0365 113.194 8.21084 113.557 10.0249 113.634V114.722H0V113.634Z" fill="white"/>
<path d="M43.7933 106.112C45.6551 104.975 48.567 103.839 52.5293 102.694V99.5716C52.5293 98.3017 52.2619 97.3565 51.7177 96.755C51.1831 96.144 50.2283 95.848 48.8535 95.848C48.0897 95.848 47.45 95.9912 46.9535 96.2777C46.457 96.5641 46.2088 96.9269 46.2088 97.3565C46.2088 97.5284 46.2375 97.6621 46.2947 97.7766C46.352 97.8912 46.4379 98.0058 46.543 98.1299L46.7912 98.4258C46.9822 98.6645 47.1445 98.9223 47.259 99.2087C47.3736 99.4952 47.4404 99.8007 47.4404 100.116C47.4404 100.927 47.1731 101.548 46.6289 101.987C46.0942 102.426 45.4641 102.646 44.7576 102.646C43.9365 102.646 43.23 102.398 42.6476 101.911C42.0652 101.424 41.7788 100.717 41.7788 99.8007C41.7788 98.1585 42.5521 96.8505 44.1084 95.8958C45.6551 94.9315 47.5646 94.4541 49.8273 94.4541C52.2619 94.4541 54.286 94.9219 55.9282 95.8576C57.5512 96.8123 58.3628 98.55 58.3628 101.099V111.496C58.3628 111.802 58.4391 112.069 58.6015 112.279C58.7638 112.499 58.9356 112.604 59.1361 112.604C59.308 112.604 59.4512 112.575 59.5848 112.508C59.7185 112.442 59.919 112.27 60.2054 111.993L60.8547 112.89C60.0145 113.864 59.0884 114.552 58.0668 114.943C57.4271 115.191 56.7492 115.315 56.0332 115.315C54.7634 115.315 53.8373 114.943 53.2453 114.198C52.9112 113.778 52.6629 113.158 52.5102 112.327C51.3263 113.52 49.9801 114.361 48.4907 114.848C47.5836 115.153 46.6862 115.306 45.8078 115.306C44.6335 115.306 43.5355 114.933 42.5139 114.179C41.4924 113.435 40.9863 112.27 40.9863 110.685C41.0054 108.785 41.9315 107.248 43.7933 106.112ZM51.269 111.64C51.6031 111.391 52.0041 111 52.4624 110.465V104.183C51.3167 104.46 50.3142 104.909 49.4454 105.51C47.9751 106.532 47.2495 107.84 47.2495 109.415C47.2495 110.351 47.4595 111.067 47.8892 111.544C48.3188 112.031 48.7962 112.27 49.3213 112.27C50.0278 112.27 50.677 112.06 51.269 111.64Z" fill="white"/>
<path d="M64.884 97.4031C66.4976 95.4364 68.4357 94.4625 70.6985 94.4625C71.8346 94.4625 72.8371 94.7394 73.7155 95.3027C74.2597 95.6369 74.9471 96.2383 75.7682 97.1072V89.2496C75.7682 88.1612 75.5581 87.4928 75.1381 87.2351C74.718 86.9773 73.8491 86.815 72.5411 86.7577V85.7266H81.7831V110.435C81.7831 111.323 81.955 111.934 82.2891 112.278C82.6233 112.622 83.2821 112.832 84.2559 112.908V113.892C81.8499 114.13 80.3032 114.312 79.6063 114.426C78.9093 114.541 77.6777 114.846 75.9209 115.333V112.507C75.1094 113.347 74.3743 113.968 73.6964 114.369C72.6366 115.009 71.4909 115.333 70.2593 115.333C68.1684 115.333 66.3448 114.445 64.7886 112.67C63.2419 110.894 62.459 108.488 62.459 105.442C62.4685 102.043 63.2705 99.3699 64.884 97.4031ZM74.6702 111.658C75.4054 110.836 75.7777 110.254 75.7777 109.92V99.4845C75.7777 99.1312 75.4627 98.6157 74.8325 97.9378C74.2024 97.2504 73.3718 96.9067 72.3311 96.9067C70.8035 96.9067 69.7628 97.9664 69.2186 100.067C68.9226 101.203 68.7794 102.797 68.7794 104.869C68.7794 107.075 68.9226 108.736 69.1995 109.853C69.7151 111.877 70.7176 112.889 72.1879 112.889C73.1044 112.899 73.9351 112.488 74.6702 111.658Z" fill="white"/>
<path d="M88.8207 97.1935C90.5774 95.3699 92.6874 94.4629 95.1697 94.4629C96.5828 94.4629 97.9099 94.8352 99.1606 95.5704C100.402 96.3151 101.366 97.3367 102.034 98.6542C102.54 99.6472 102.884 100.936 103.085 102.511C103.18 103.256 103.228 103.819 103.228 104.211H92.2673C92.3628 105.929 92.6492 107.419 93.1075 108.67C93.9477 111.028 95.4275 112.212 97.5375 112.212C98.5495 112.212 99.4948 111.897 100.392 111.266C100.936 110.885 101.614 110.254 102.426 109.357L103.409 109.968C102.082 112.145 100.545 113.663 98.7978 114.513C97.6616 115.057 96.3632 115.334 94.8929 115.334C92.7829 115.334 90.797 114.503 88.9543 112.842C87.1117 111.181 86.1855 108.526 86.1855 104.879C86.1855 101.576 87.0639 99.017 88.8207 97.1935ZM97.9385 102.607C97.9099 100.077 97.7094 98.3105 97.3466 97.308C96.9838 96.3056 96.2486 95.7995 95.1602 95.7995C94.0431 95.7995 93.2698 96.3819 92.8592 97.5372C92.4487 98.6924 92.21 100.392 92.1527 102.607H97.9385Z" fill="white"/>
<path d="M115.707 113.692C116.461 113.568 116.977 113.377 117.254 113.128C117.674 112.756 117.884 112.078 117.884 111.095V98.4826C117.884 97.6138 117.741 97.0123 117.445 96.6972C117.149 96.3821 116.576 96.1435 115.707 95.9907V94.9596H123.947V111.267C123.947 112.202 124.09 112.804 124.367 113.071C124.643 113.338 125.169 113.549 125.942 113.701V114.732H115.717V113.692H115.707ZM118.571 86.0422C119.221 85.393 120.003 85.0684 120.929 85.0684C121.837 85.0684 122.619 85.393 123.269 86.0422C123.918 86.6914 124.242 87.4743 124.242 88.4004C124.242 89.3265 123.918 90.1094 123.269 90.7587C122.619 91.4079 121.837 91.7325 120.929 91.7325C120.003 91.7325 119.221 91.4079 118.571 90.7587C117.922 90.1094 117.597 89.3265 117.597 88.4004C117.597 87.4839 117.922 86.6914 118.571 86.0422Z" fill="white"/>
<path d="M127.631 113.692C128.414 113.596 128.987 113.376 129.359 113.052C129.731 112.727 129.913 112.068 129.913 111.095V98.4824C129.913 97.6136 129.76 97.0025 129.464 96.6684C129.158 96.3342 128.557 96.1051 127.631 95.9905V94.9594H135.765V98.0432C136.453 97.0121 137.322 96.1528 138.372 95.4749C139.422 94.7971 140.596 94.4629 141.885 94.4629C143.728 94.4629 145.16 94.9403 146.172 95.8855C147.184 96.8402 147.69 98.5015 147.69 100.898V111.266C147.69 112.231 147.852 112.851 148.187 113.128C148.511 113.405 149.065 113.596 149.829 113.692V114.723H139.747V113.692C140.51 113.539 141.036 113.329 141.322 113.061C141.599 112.794 141.742 112.193 141.742 111.257V100.86C141.742 99.8859 141.647 99.1507 141.446 98.6542C141.112 97.7759 140.444 97.3367 139.46 97.3367C138.715 97.3367 138.038 97.604 137.417 98.1482C136.796 98.6829 136.319 99.2271 135.985 99.7713V111.257C135.985 112.193 136.128 112.794 136.405 113.061C136.682 113.329 137.207 113.539 137.98 113.692V114.723H127.631V113.692Z" fill="white"/>
<path d="M162.232 113.634C163.445 113.605 164.323 113.462 164.848 113.195C165.717 112.746 166.147 111.887 166.147 110.617V89.832C166.147 88.5717 165.736 87.722 164.915 87.2924C164.409 87.025 163.521 86.8723 162.232 86.815V85.7266H177.231V86.815C175.895 86.8723 174.969 87.025 174.463 87.2733C173.622 87.7029 173.202 88.5526 173.202 89.832V110.617C173.202 111.82 173.536 112.622 174.205 113.023C174.873 113.424 175.885 113.634 177.222 113.634V114.722H162.223V113.634H162.232Z" fill="white"/>
<path d="M178.93 96.8506V95.6572C179.312 95.3039 179.77 94.8934 180.333 94.416C181.078 93.7286 181.775 93.0221 182.434 92.2964C183.732 90.8739 184.916 89.3367 185.976 87.7041H187.064V94.9506H191.15V96.8411H187.064V109.749C187.064 110.351 187.15 110.857 187.341 111.258C187.618 111.888 188.086 112.203 188.725 112.203C189.289 112.203 189.757 112.002 190.129 111.601C190.511 111.2 190.883 110.656 191.265 109.959L192.296 110.465C191.79 111.64 191.198 112.594 190.492 113.339C189.26 114.638 187.761 115.287 185.995 115.287C184.992 115.287 184.114 115.096 183.36 114.724C181.909 113.998 181.183 112.68 181.173 110.761V96.8506H178.93Z" fill="white"/>
<path d="M196.411 106.112C198.272 104.975 201.184 103.839 205.147 102.694V99.5716C205.147 98.3017 204.879 97.3565 204.345 96.755C203.81 96.144 202.855 95.848 201.48 95.848C200.717 95.848 200.077 95.9912 199.58 96.2777C199.084 96.5641 198.836 96.9269 198.836 97.3565C198.836 97.5284 198.864 97.6621 198.922 97.7766C198.979 97.8912 199.065 98.0058 199.17 98.1299L199.418 98.4258C199.609 98.6645 199.771 98.9223 199.886 99.2087C200.001 99.4952 200.067 99.8007 200.067 100.116C200.067 100.927 199.8 101.548 199.256 101.987C198.721 102.426 198.091 102.646 197.385 102.646C196.563 102.646 195.857 102.398 195.275 101.911C194.692 101.424 194.406 100.717 194.406 99.8007C194.406 98.1585 195.179 96.8505 196.735 95.8958C198.282 94.9315 200.192 94.4541 202.454 94.4541C204.889 94.4541 206.913 94.9219 208.555 95.8576C210.178 96.8123 210.99 98.55 210.99 101.099V111.496C210.99 111.802 211.066 112.069 211.228 112.279C211.391 112.499 211.563 112.604 211.763 112.604C211.935 112.604 212.078 112.575 212.212 112.508C212.345 112.442 212.546 112.27 212.832 111.993L213.482 112.89C212.641 113.864 211.715 114.552 210.694 114.943C210.054 115.191 209.376 115.315 208.66 115.315C207.39 115.315 206.464 114.943 205.872 114.198C205.538 113.778 205.29 113.158 205.137 112.327C203.953 113.52 202.607 114.361 201.118 114.848C200.211 115.153 199.313 115.306 198.435 115.306C197.26 115.306 196.162 114.933 195.141 114.179C194.119 113.435 193.613 112.27 193.613 110.685C193.623 108.785 194.549 107.248 196.411 106.112ZM203.886 111.64C204.221 111.391 204.622 111 205.08 110.465V104.183C203.934 104.46 202.932 104.909 202.063 105.51C200.593 106.532 199.867 107.84 199.867 109.415C199.867 110.351 200.077 111.067 200.507 111.544C200.936 112.031 201.414 112.27 201.939 112.27C202.636 112.27 203.285 112.06 203.886 111.64Z" fill="white"/>
<path d="M214.676 113.691C215.43 113.51 215.965 113.271 216.28 112.965C216.595 112.669 216.748 112.039 216.748 111.094V89.2398C216.748 88.3233 216.604 87.7218 216.308 87.4449C216.012 87.1585 215.468 86.9293 214.676 86.7479V85.7168H222.81V111.094C222.81 112.049 222.963 112.669 223.269 112.956C223.574 113.252 224.118 113.49 224.901 113.691V114.722H214.676V113.691Z" fill="white"/>
<path d="M226.809 118.093C227.411 117.635 228.127 117.406 228.957 117.406C229.683 117.406 230.284 117.606 230.752 118.017C231.22 118.418 231.459 118.905 231.459 119.458L231.354 120.404C231.354 120.585 231.43 120.757 231.573 120.91C231.717 121.062 231.907 121.139 232.127 121.139C232.872 121.139 233.569 120.556 234.208 119.392C234.609 118.675 235.192 117.262 235.956 115.172L230.867 102.607C230.504 101.71 230.151 100.869 229.807 100.087C229.463 99.3036 229.101 98.5398 228.728 97.7951C228.337 97.0409 228.031 96.5635 227.802 96.363C227.582 96.1625 227.172 96.0384 226.59 95.9811V94.95H237.321V95.9811C236.653 95.9907 236.099 96.0766 235.679 96.2102C235.249 96.3535 235.039 96.6494 235.039 97.1077C235.039 97.2032 235.068 97.3369 235.115 97.5087C235.163 97.6806 235.268 97.9765 235.44 98.4062L238.858 106.846H239.068L241.894 99.3036C242.037 98.8835 242.152 98.5207 242.238 98.2057C242.324 97.8906 242.372 97.6137 242.372 97.375C242.372 96.7736 242.171 96.3917 241.77 96.2293C241.369 96.067 240.777 95.9811 239.994 95.9716V94.9404H246.496V95.9716C245.933 96.0098 245.484 96.1625 245.121 96.4203C244.758 96.6781 244.396 97.3082 244.023 98.2916L237.607 115.41C236.357 118.57 235.287 120.709 234.39 121.845C233.492 122.981 232.089 123.545 230.17 123.545C228.776 123.545 227.716 123.201 226.981 122.504C226.255 121.817 225.893 121.053 225.893 120.232C225.912 119.277 226.208 118.561 226.809 118.093Z" fill="white"/>
<path d="M17.367 153.486C18.5795 153.458 19.4579 153.314 19.983 153.047C20.8518 152.598 21.2814 151.739 21.2814 150.469V129.675C21.2814 128.414 20.8709 127.565 20.0403 127.135C19.5342 126.868 18.6463 126.715 17.3574 126.658V125.569H32.3565V126.658C31.0199 126.715 30.0938 126.868 29.5878 127.116C28.7476 127.546 28.3275 128.395 28.3275 129.675V150.46C28.3275 151.663 28.6617 152.465 29.33 152.866C29.9983 153.267 31.0103 153.477 32.347 153.477V154.565H17.367V153.486Z" fill="white"/>
<path d="M34.0742 136.7V135.507C34.4561 135.154 34.9144 134.743 35.4777 134.275C36.2224 133.588 36.9194 132.881 37.5686 132.156C38.8671 130.733 40.051 129.196 41.1107 127.563H42.1991V134.81H46.2855V136.7H42.1991V149.609C42.1991 150.21 42.2851 150.716 42.4665 151.117C42.7433 151.747 43.2112 152.062 43.8509 152.062C44.4142 152.062 44.882 151.862 45.2543 151.461C45.6267 151.06 46.0086 150.516 46.3905 149.819L47.4216 150.325C46.9156 151.499 46.3237 152.454 45.6171 153.199C44.3855 154.497 42.8866 155.146 41.1203 155.146C40.1178 155.146 39.2394 154.955 38.4852 154.583C37.0339 153.857 36.3083 152.54 36.2988 150.621V136.71H34.0742V136.7Z" fill="white"/>
<path d="M51.5472 145.962C53.409 144.826 56.3209 143.69 60.2832 142.544V139.422C60.2832 138.152 60.0158 137.207 59.4716 136.606C58.937 135.995 57.9822 135.699 56.6074 135.699C55.8436 135.699 55.2039 135.842 54.7074 136.128C54.2109 136.415 53.9627 136.777 53.9627 137.207C53.9627 137.379 53.9914 137.513 54.0486 137.627C54.1059 137.742 54.1919 137.856 54.2969 137.98L54.5451 138.276C54.7361 138.515 54.8984 138.773 55.0129 139.059C55.1275 139.346 55.1943 139.651 55.1943 139.966C55.1943 140.778 54.927 141.398 54.3828 141.838C53.8481 142.277 53.218 142.496 52.5115 142.496C51.6904 142.496 50.9839 142.248 50.4015 141.761C49.8191 141.274 49.5327 140.568 49.5327 139.651C49.5327 138.009 50.306 136.701 51.8623 135.746C53.409 134.782 55.3185 134.305 57.5812 134.305C60.0158 134.305 62.0399 134.773 63.6821 135.708C65.3051 136.663 66.1167 138.401 66.1167 140.95V151.347C66.1167 151.652 66.1931 151.92 66.3554 152.13C66.5177 152.349 66.6895 152.454 66.89 152.454C67.0619 152.454 67.2051 152.426 67.3388 152.359C67.4724 152.292 67.6729 152.12 67.9593 151.843L68.6086 152.741C67.7684 153.715 66.8423 154.402 65.8207 154.794C65.181 155.042 64.5031 155.166 63.7871 155.166C62.5173 155.166 61.5912 154.794 60.9992 154.049C60.6651 153.629 60.4168 153.008 60.2641 152.178C59.0802 153.371 57.734 154.211 56.2446 154.698C55.3376 155.004 54.4401 155.156 53.5617 155.156C52.3874 155.156 51.2894 154.784 50.2678 154.03C49.2463 153.285 48.7402 152.12 48.7402 150.535C48.7593 148.635 49.6854 147.098 51.5472 145.962ZM59.0324 151.49C59.3666 151.242 59.7676 150.85 60.2259 150.316V144.034C59.0802 144.31 58.0777 144.759 57.2089 145.361C55.7385 146.382 55.0129 147.69 55.0129 149.266C55.0129 150.201 55.223 150.917 55.6526 151.395C56.0823 151.882 56.5596 152.12 57.0847 152.12C57.7817 152.12 58.4309 151.91 59.0324 151.49Z" fill="white"/>
<path d="M69.8203 153.543C70.5746 153.362 71.1092 153.123 71.4243 152.818C71.7394 152.522 71.8921 151.892 71.8921 150.947V129.092C71.8921 128.176 71.7489 127.574 71.4529 127.297C71.157 127.011 70.6128 126.782 69.8203 126.6V125.569H77.9548V150.947C77.9548 151.901 78.1075 152.522 78.4131 152.808C78.7186 153.104 79.2628 153.343 80.0457 153.543V154.575H69.8203V153.543Z" fill="white"/>
<path d="M81.7461 153.542C82.5003 153.418 83.0159 153.227 83.2928 152.979C83.7129 152.607 83.9229 151.929 83.9229 150.945V138.333C83.9229 137.464 83.7797 136.863 83.4837 136.548C83.1878 136.233 82.6149 135.994 81.7461 135.841V134.81H89.9856V151.117C89.9856 152.053 90.1288 152.654 90.4057 152.922C90.6825 153.189 91.2077 153.399 91.981 153.552V154.583H81.7556V153.542H81.7461ZM84.6008 125.893C85.25 125.244 86.0329 124.919 86.959 124.919C87.866 124.919 88.6489 125.244 89.2982 125.893C89.9474 126.542 90.272 127.325 90.272 128.251C90.272 129.177 89.9474 129.96 89.2982 130.609C88.6489 131.258 87.866 131.583 86.959 131.583C86.0329 131.583 85.25 131.258 84.6008 130.609C83.9516 129.96 83.627 129.177 83.627 128.251C83.627 127.334 83.9516 126.542 84.6008 125.893Z" fill="white"/>
<path d="M96.8499 145.962C98.7117 144.826 101.624 143.69 105.586 142.544V139.422C105.586 138.152 105.319 137.207 104.774 136.606C104.24 135.995 103.285 135.699 101.91 135.699C101.146 135.699 100.507 135.842 100.01 136.128C99.5137 136.415 99.2654 136.777 99.2654 137.207C99.2654 137.379 99.2941 137.513 99.3514 137.627C99.4087 137.742 99.4946 137.856 99.5996 137.98L99.8478 138.276C100.039 138.515 100.201 138.773 100.316 139.059C100.43 139.346 100.497 139.651 100.497 139.966C100.497 140.778 100.23 141.398 99.6855 141.838C99.1509 142.277 98.5207 142.496 97.8142 142.496C96.9931 142.496 96.2866 142.248 95.7042 141.761C95.1218 141.274 94.8354 140.568 94.8354 139.651C94.8354 138.009 95.6087 136.701 97.165 135.746C98.7117 134.782 100.621 134.305 102.884 134.305C105.319 134.305 107.343 134.773 108.985 135.708C110.608 136.663 111.419 138.401 111.419 140.95V151.347C111.419 151.652 111.496 151.92 111.658 152.13C111.82 152.349 111.992 152.454 112.193 152.454C112.365 152.454 112.508 152.426 112.641 152.359C112.775 152.292 112.976 152.12 113.262 151.843L113.911 152.741C113.071 153.715 112.145 154.402 111.123 154.794C110.484 155.042 109.806 155.166 109.09 155.166C107.82 155.166 106.894 154.794 106.302 154.049C105.968 153.629 105.72 153.008 105.567 152.178C104.383 153.371 103.037 154.211 101.547 154.698C100.64 155.004 99.7428 155.156 98.8645 155.156C97.6901 155.156 96.5921 154.784 95.5706 154.03C94.549 153.285 94.043 152.12 94.043 150.535C94.0621 148.635 94.9977 147.098 96.8499 145.962ZM104.335 151.49C104.669 151.242 105.07 150.85 105.529 150.316V144.034C104.383 144.31 103.38 144.759 102.512 145.361C101.041 146.382 100.316 147.69 100.316 149.266C100.316 150.201 100.526 150.917 100.955 151.395C101.385 151.882 101.862 152.12 102.387 152.12C103.084 152.12 103.734 151.91 104.335 151.49Z" fill="white"/>
<path d="M115.123 153.543C115.906 153.448 116.479 153.228 116.851 152.903C117.223 152.579 117.405 151.92 117.405 150.946V138.334C117.405 137.465 117.252 136.854 116.956 136.52C116.651 136.186 116.049 135.957 115.123 135.842V134.811H123.258V137.895C123.945 136.864 124.814 136.004 125.864 135.326C126.914 134.649 128.089 134.314 129.377 134.314C131.22 134.314 132.652 134.792 133.664 135.737C134.676 136.692 135.182 138.353 135.182 140.749V151.118C135.182 152.082 135.345 152.703 135.679 152.98C136.003 153.257 136.557 153.448 137.321 153.543V154.574H127.239V153.543C128.003 153.39 128.528 153.18 128.814 152.913C129.091 152.646 129.234 152.044 129.234 151.108V140.711C129.234 139.737 129.139 139.002 128.938 138.506C128.604 137.627 127.936 137.188 126.952 137.188C126.208 137.188 125.53 137.456 124.909 138C124.289 138.534 123.811 139.079 123.477 139.623V151.108C123.477 152.044 123.62 152.646 123.897 152.913C124.174 153.18 124.699 153.39 125.473 153.543V154.574H115.123V153.543Z" fill="white"/>
<path d="M149.619 153.542C150.497 153.476 151.127 153.275 151.519 152.96C151.901 152.635 152.092 151.967 152.092 150.946V136.987H149.619V135.097H152.092V133.502C152.092 131.507 152.407 129.865 153.037 128.576C154.221 126.17 156.417 124.967 159.615 124.967C161.324 124.967 162.766 125.358 163.94 126.132C165.124 126.905 165.706 127.927 165.706 129.206C165.706 129.998 165.458 130.648 164.962 131.134C164.465 131.621 163.806 131.87 162.985 131.87C162.298 131.87 161.716 131.65 161.229 131.201C160.742 130.753 160.494 130.218 160.494 129.588C160.494 129.11 160.646 128.614 160.961 128.089C161.276 127.564 161.429 127.249 161.429 127.134C161.429 126.781 161.305 126.561 161.057 126.466C160.809 126.37 160.532 126.323 160.236 126.323C159.539 126.323 159.004 126.523 158.622 126.934C158.25 127.335 158.059 128.213 158.059 129.55V135.106H161.792V136.997H158.059V150.182C158.059 151.662 158.269 152.569 158.699 152.903C159.128 153.237 160.073 153.457 161.534 153.552V154.583H149.609V153.542H149.619Z" fill="white"/>
<path d="M167.015 137.265C168.848 135.269 171.159 134.267 173.937 134.267C176.773 134.267 179.093 135.288 180.907 137.322C182.711 139.365 183.618 141.838 183.618 144.74C183.618 147.604 182.721 150.068 180.935 152.13C179.15 154.192 176.811 155.223 173.937 155.223C171.14 155.223 168.829 154.221 167.006 152.216C165.172 150.211 164.256 147.719 164.256 144.75C164.265 141.752 165.182 139.26 167.015 137.265ZM171.035 151.051C171.522 152.913 172.495 153.839 173.947 153.839C175.331 153.839 176.238 153.123 176.668 151.7C177.097 150.278 177.317 147.958 177.317 144.74C177.317 141.542 177.088 139.222 176.639 137.79C176.181 136.358 175.293 135.641 173.966 135.641C172.514 135.641 171.541 136.568 171.054 138.429C170.729 139.67 170.576 141.771 170.576 144.74C170.567 147.748 170.72 149.848 171.035 151.051Z" fill="white"/>
<path d="M188.478 137.265C190.311 135.269 192.622 134.267 195.4 134.267C198.236 134.267 200.556 135.288 202.37 137.322C204.174 139.365 205.081 141.838 205.081 144.74C205.081 147.604 204.184 150.068 202.398 152.13C200.613 154.192 198.274 155.223 195.4 155.223C192.602 155.223 190.292 154.221 188.468 152.216C186.635 150.211 185.719 147.719 185.719 144.75C185.719 141.752 186.635 139.26 188.478 137.265ZM192.488 151.051C192.975 152.913 193.949 153.839 195.4 153.839C196.784 153.839 197.691 153.123 198.121 151.7C198.551 150.278 198.77 147.958 198.77 144.74C198.77 141.542 198.541 139.222 198.092 137.79C197.634 136.358 196.746 135.641 195.419 135.641C193.968 135.641 192.994 136.568 192.507 138.429C192.182 139.67 192.03 141.771 192.03 144.74C192.03 147.748 192.182 149.848 192.488 151.051Z" fill="white"/>
<path d="M209.749 137.255C211.363 135.288 213.301 134.314 215.564 134.314C216.69 134.314 217.702 134.591 218.581 135.154C219.125 135.488 219.812 136.09 220.633 136.959V129.101C220.633 128.013 220.423 127.344 220.003 127.087C219.583 126.829 218.714 126.667 217.406 126.609V125.578H226.648V150.287C226.648 151.175 226.82 151.786 227.154 152.13C227.489 152.473 228.147 152.683 229.121 152.76V153.743C226.715 153.982 225.168 154.163 224.472 154.278C223.775 154.392 222.543 154.698 220.786 155.185V152.359C219.975 153.199 219.239 153.82 218.562 154.221C217.502 154.86 216.356 155.185 215.125 155.185C213.034 155.185 211.21 154.297 209.654 152.521C208.098 150.745 207.324 148.339 207.324 145.294C207.324 141.895 208.136 139.212 209.749 137.255ZM219.526 151.509C220.261 150.688 220.633 150.106 220.633 149.771V139.336C220.633 138.983 220.318 138.467 219.688 137.789C219.058 137.102 218.227 136.758 217.187 136.758C215.659 136.758 214.619 137.818 214.074 139.918C213.778 141.055 213.635 142.649 213.635 144.721C213.635 146.926 213.778 148.588 214.055 149.705C214.571 151.729 215.573 152.741 217.044 152.741C217.96 152.75 218.791 152.34 219.526 151.509Z" fill="white"/>
<path d="M262.565 78.1844C264.188 79.7216 264.999 81.6215 264.999 83.9034C264.999 86.1279 264.217 88.0088 262.641 89.5459C261.104 91.0544 259.261 91.7991 257.113 91.7991C254.889 91.7991 252.998 91.0258 251.461 89.4791C249.934 87.942 249.16 86.0897 249.16 83.9034C249.16 81.6884 249.953 79.8075 251.538 78.2703C253.094 76.7618 254.946 75.998 257.113 75.998C259.204 76.0076 261.018 76.7332 262.565 78.1844ZM252.32 88.7344C253.647 90.0233 255.251 90.663 257.113 90.663C258.956 90.663 260.531 90.0329 261.858 88.7726C263.233 87.4741 263.921 85.8511 263.921 83.9034C263.921 82.0321 263.262 80.4472 261.935 79.1296C260.608 77.8025 258.994 77.1437 257.113 77.1437C255.213 77.1437 253.6 77.8216 252.263 79.1774C250.946 80.5045 250.287 82.0798 250.287 83.9129C250.287 85.8129 250.965 87.4168 252.32 88.7344ZM259.806 83.426C259.376 83.6265 258.87 83.7602 258.307 83.827V83.9034L258.412 83.9225C259.481 83.932 260.168 84.7436 260.464 86.3666C260.598 86.7867 260.741 86.9967 260.913 86.9967C261.047 86.9967 261.152 86.9299 261.209 86.8058C261.266 86.6721 261.314 86.443 261.352 86.1184H261.992C261.954 86.6817 261.782 87.1877 261.476 87.6173C261.171 88.0565 260.722 88.2761 260.14 88.2761C259.615 88.2761 259.223 88.1138 258.946 87.7796C258.784 87.5887 258.65 87.3023 258.545 86.9204C258.488 86.634 258.45 86.4048 258.431 86.252C258.412 86.0993 258.393 85.9465 258.374 85.8033C258.24 85.0777 257.925 84.6099 257.409 84.3903C257.113 84.2662 256.636 84.2184 255.977 84.2375V85.7556C255.977 86.3475 256.034 86.739 256.158 86.9299C256.283 87.1209 256.617 87.2164 257.171 87.2164V88.0374H252.912V87.2164C253.485 87.2164 253.819 87.0827 253.924 86.8249C254.029 86.5671 254.077 85.7842 254.077 84.4953V83.0632C254.077 82.4808 254.077 82.0034 254.068 81.6311C254.058 81.2014 253.982 80.9054 253.848 80.7336C253.705 80.5617 253.39 80.4758 252.912 80.4758V79.6547C253.552 79.6547 254.545 79.6547 255.882 79.6643C257.218 79.6643 257.973 79.6738 258.154 79.6834C258.794 79.7311 259.319 79.8457 259.748 80.0175C260.598 80.3803 261.018 80.9627 261.018 81.7647C261.009 82.4999 260.608 83.0536 259.806 83.426ZM258.049 83.1682C258.65 82.9582 258.946 82.5094 258.946 81.8316C258.946 81.3065 258.689 80.9341 258.173 80.705C257.829 80.5522 257.438 80.4758 256.98 80.4758C256.483 80.4758 256.187 80.6095 256.092 80.8673C256.006 81.1346 255.958 81.9652 255.958 83.3592C256.989 83.3687 257.677 83.3019 258.049 83.1682Z" fill="white"/>
</svg>
